AnivaSerifVF.glyphspackage
{
glyphname = numbersign;
layers = (
{
layerId = m004;
shapes = (
{
closed = 1;
nodes = (
(102,0,l),
(162,0,l),
(340,667,l),
(280,667,l)
);
},
{
closed = 1;
nodes = (
(375,0,l),
(435,0,l),
(613,667,l),
(553,667,l)
);
},
{
closed = 1;
nodes = (
(153,500,l),
(137,440,l),
(637,440,l),
(653,500,l)
);
},
{
closed = 1;
nodes = (
(77,227,l),
(61,167,l),
(561,167,l),
(577,227,l)
);
}
);
width = 712;
},
{
hints = (
{
horizontal = 1;
place = (0,21);
target = up;
type = BottomGhost;
},
{
horizontal = 1;
place = (138,65);
type = Stem;
},
{
horizontal = 1;
place = (298,65);
type = Stem;
},
{
place = (70,454);
type = Stem;
}
);
layerId = m005;
shapes = (
{
closed = 1;
nodes = (
(89,0,l),
(159,0,l),
(337,667,l),
(267,667,l)
);
},
{
closed = 1;
nodes = (
(352,0,l),
(422,0,l),
(600,667,l),
(530,667,l)
);
},
{
closed = 1;
nodes = (
(140,500,l),
(122,430,l),
(622,430,l),
(640,500,l)
);
},
{
closed = 1;
nodes = (
(68,237,l),
(50,167,l),
(550,167,l),
(568,237,l)
);
}
);
width = 690;
},
{
layerId = m006;
shapes = (
{
closed = 1;
nodes = (
(54,0,l),
(154,0,l),
(332,667,l),
(232,667,l)
);
},
{
closed = 1;
nodes = (
(287,0,l),
(387,0,l),
(565,667,l),
(465,667,l)
);
},
{
closed = 1;
nodes = (
(105,500,l),
(80,400,l),
(580,400,l),
(605,500,l)
);
},
{
closed = 1;
nodes = (
(40,267,l),
(15,167,l),
(515,167,l),
(540,267,l)
);
}
);
width = 620;
},
{
layerId = m007;
shapes = (
{
closed = 1;
nodes = (
(102,0,l),
(162,0,l),
(340,667,l),
(280,667,l)
);
},
{
closed = 1;
nodes = (
(375,0,l),
(435,0,l),
(613,667,l),
(553,667,l)
);
},
{
closed = 1;
nodes = (
(153,500,l),
(137,440,l),
(637,440,l),
(653,500,l)
);
},
{
closed = 1;
nodes = (
(77,227,l),
(61,167,l),
(561,167,l),
(577,227,l)
);
}
);
width = 713;
},
{
hints = (
{
horizontal = 1;
place = (0,21);
target = up;
type = BottomGhost;
},
{
horizontal = 1;
place = (138,65);
type = Stem;
},
{
horizontal = 1;
place = (298,65);
type = Stem;
},
{
place = (70,454);
type = Stem;
}
);
layerId = m008;
shapes = (
{
closed = 1;
nodes = (
(89,0,l),
(139,0,l),
(317,667,l),
(267,667,l)
);
},
{
closed = 1;
nodes = (
(372,0,l),
(422,0,l),
(600,667,l),
(550,667,l)
);
},
{
closed = 1;
nodes = (
(140,500,l),
(126,450,l),
(626,450,l),
(640,500,l)
);
},
{
closed = 1;
nodes = (
(64,217,l),
(50,167,l),
(550,167,l),
(564,217,l)
);
}
);
width = 690;
},
{
layerId = m009;
shapes = (
{
closed = 1;
nodes = (
(79,0,l),
(154,0,l),
(332,667,l),
(257,667,l)
);
},
{
closed = 1;
nodes = (
(337,0,l),
(412,0,l),
(590,667,l),
(515,667,l)
);
},
{
closed = 1;
nodes = (
(130,500,l),
(110,425,l),
(610,425,l),
(630,500,l)
);
},
{
closed = 1;
nodes = (
(60,242,l),
(40,167,l),
(540,167,l),
(560,242,l)
);
}
);
width = 670;
}
);
metricLeft = "=period";
metricRight = "=period";
note = numbersign;
unicode = 35;
}
{
glyphname = percent;
layers = (
{
layerId = m004;
shapes = (
{
closed = 1;
nodes = (
(639,664,l),
(590,697,l),
(178,-2,l),
(227,-35,l)
);
},
{
closed = 1;
nodes = (
(43,421,o),
(87,325,o),
(206,325,cs),
(325,325,o),
(370,421,o),
(370,507,cs),
(370,592,o),
(325,685,o),
(206,685,cs),
(87,685,o),
(43,592,o),
(43,507,cs)
);
},
{
closed = 1;
nodes = (
(128,522,ls),
(128,609,o),
(153,644,o),
(206,644,cs),
(259,644,o),
(285,609,o),
(285,522,cs),
(285,488,ls),
(285,401,o),
(259,366,o),
(206,366,cs),
(153,366,o),
(128,401,o),
(128,488,cs)
);
},
{
closed = 1;
nodes = (
(763,187,ls),
(763,292,o),
(709,350,o),
(611,350,cs),
(513,350,o),
(460,292,o),
(460,187,cs),
(460,153,ls),
(460,48,o),
(513,-10,o),
(611,-10,cs),
(709,-10,o),
(763,48,o),
(763,153,cs)
);
},
{
closed = 1;
nodes = (
(533,187,ls),
(533,274,o),
(558,309,o),
(611,309,cs),
(664,309,o),
(690,274,o),
(690,187,cs),
(690,153,ls),
(690,66,o),
(664,31,o),
(611,31,cs),
(558,31,o),
(533,66,o),
(533,153,cs)
);
}
);
width = 806;
},
{
hints = (
{
horizontal = 1;
place = (-10,41);
type = Stem;
},
{
horizontal = 1;
place = (325,41);
type = Stem;
},
{
horizontal = 1;
place = (644,41);
type = Stem;
},
{
place = (55,110);
type = Stem;
},
{
place = (297,110);
type = Stem;
},
{
place = (472,98);
type = Stem;
},
{
place = (702,98);
type = Stem;
},
{
horizontal = 1;
place = (0,21);
target = up;
type = BottomGhost;
},
{
horizontal = 1;
place = (309,41);
type = Stem;
}
);
layerId = m005;
shapes = (
{
closed = 1;
nodes = (
(649,662,l),
(584,705,l),
(168,0,l),
(233,-43,l)
);
},
{
closed = 1;
nodes = (
(30,422,o),
(78,325,o),
(206,325,cs),
(334,325,o),
(382,422,o),
(382,507,cs),
(382,592,o),
(334,685,o),
(206,685,cs),
(78,685,o),
(30,592,o),
(30,507,cs)
);
},
{
closed = 1;
nodes = (
(140,522,ls),
(140,600,o),
(165,634,o),
(206,634,cs),
(247,634,o),
(272,600,o),
(272,522,cs),
(272,488,ls),
(272,410,o),
(247,376,o),
(206,376,cs),
(165,376,o),
(140,410,o),
(140,488,cs)
);
},
{
closed = 1;
nodes = (
(775,187,ls),
(775,290,o),
(717,350,o),
(611,350,cs),
(505,350,o),
(447,290,o),
(447,187,cs),
(447,153,ls),
(447,50,o),
(505,-10,o),
(611,-10,cs),
(717,-10,o),
(775,50,o),
(775,153,cs)
);
},
{
closed = 1;
nodes = (
(545,187,ls),
(545,265,o),
(570,299,o),
(611,299,cs),
(652,299,o),
(677,265,o),
(677,187,cs),
(677,153,ls),
(677,75,o),
(652,41,o),
(611,41,cs),
(570,41,o),
(545,75,o),
(545,153,cs)
);
}
);
width = 805;
},
{
layerId = m006;
shapes = (
{
closed = 1;
nodes = (
(811,665,l),
(674,756,l),
(226,-3,l),
(363,-94,l)
);
},
{
closed = 1;
nodes = (
(0,402,o),
(74,302,o),
(226,302,cs),
(378,302,o),
(452,402,o),
(452,507,cs),
(452,616,o),
(374,708,o),
(226,708,cs),
(78,708,o),
(0,616,o),
(0,507,cs)
);
},
{
closed = 1;
nodes = (
(210,522,ls),
(210,597,o),
(210,621,o),
(226,621,cs),
(242,621,o),
(242,597,o),
(242,522,cs),
(242,488,ls),
(242,413,o),
(242,389,o),
(226,389,cs),
(210,389,o),
(210,413,o),
(210,488,cs)
);
},
{
closed = 1;
nodes = (
(1025,187,ls),
(1025,307,o),
(941,373,o),
(811,373,cs),
(681,373,o),
(597,307,o),
(597,187,cs),
(597,153,ls),
(597,33,o),
(681,-33,o),
(811,-33,cs),
(941,-33,o),
(1025,33,o),
(1025,153,cs)
);
},
{
closed = 1;
nodes = (
(795,187,ls),
(795,262,o),
(795,286,o),
(811,286,cs),
(827,286,o),
(827,262,o),
(827,187,cs),
(827,153,ls),
(827,78,o),
(827,54,o),
(811,54,cs),
(795,54,o),
(795,78,o),
(795,153,cs)
);
}
);
width = 1025;
},
{
layerId = m007;
shapes = (
{
closed = 1;
nodes = (
(639,664,l),
(590,697,l),
(178,-2,l),
(227,-35,l)
);
},
{
closed = 1;
nodes = (
(43,421,o),
(87,325,o),
(206,325,cs),
(325,325,o),
(370,421,o),
(370,507,cs),
(370,592,o),
(325,685,o),
(206,685,cs),
(87,685,o),
(43,592,o),
(43,507,cs)
);
},
{
closed = 1;
nodes = (
(128,522,ls),
(128,621,o),
(153,656,o),
(206,656,cs),
(259,656,o),
(285,621,o),
(285,522,cs),
(285,488,ls),
(285,389,o),
(259,354,o),
(206,354,cs),
(153,354,o),
(128,389,o),
(128,488,cs)
);
},
{
closed = 1;
nodes = (
(763,187,ls),
(763,292,o),
(709,350,o),
(611,350,cs),
(513,350,o),
(460,292,o),
(460,187,cs),
(460,153,ls),
(460,48,o),
(513,-10,o),
(611,-10,cs),
(709,-10,o),
(763,48,o),
(763,153,cs)
);
},
{
closed = 1;
nodes = (
(533,187,ls),
(533,286,o),
(558,321,o),
(611,321,cs),
(664,321,o),
(690,286,o),
(690,187,cs),
(690,153,ls),
(690,54,o),
(664,19,o),
(611,19,cs),
(558,19,o),
(533,54,o),
(533,153,cs)
);
}
);
width = 806;
},
{
hints = (
{
horizontal = 1;
place = (-10,41);
type = Stem;
},
{
horizontal = 1;
place = (325,41);
type = Stem;
},
{
horizontal = 1;
place = (644,41);
type = Stem;
},
{
place = (55,110);
type = Stem;
},
{
place = (297,110);
type = Stem;
},
{
place = (472,98);
type = Stem;
},
{
place = (702,98);
type = Stem;
},
{
horizontal = 1;
place = (0,21);
target = up;
type = BottomGhost;
},
{
horizontal = 1;
place = (309,41);
type = Stem;
}
);
layerId = m008;
shapes = (
{
closed = 1;
nodes = (
(649,662,l),
(584,705,l),
(168,0,l),
(233,-43,l)
);
},
{
closed = 1;
nodes = (
(30,422,o),
(78,325,o),
(206,325,cs),
(334,325,o),
(382,422,o),
(382,507,cs),
(382,592,o),
(334,685,o),
(206,685,cs),
(78,685,o),
(30,592,o),
(30,507,cs)
);
},
{
closed = 1;
nodes = (
(140,522,ls),
(140,606,o),
(165,640,o),
(206,640,cs),
(247,640,o),
(272,606,o),
(272,522,cs),
(272,488,ls),
(272,404,o),
(247,370,o),
(206,370,cs),
(165,370,o),
(140,404,o),
(140,488,cs)
);
},
{
closed = 1;
nodes = (
(775,187,ls),
(775,290,o),
(717,350,o),
(611,350,cs),
(505,350,o),
(447,290,o),
(447,187,cs),
(447,153,ls),
(447,50,o),
(505,-10,o),
(611,-10,cs),
(717,-10,o),
(775,50,o),
(775,153,cs)
);
},
{
closed = 1;
nodes = (
(545,187,ls),
(545,271,o),
(570,305,o),
(611,305,cs),
(652,305,o),
(677,271,o),
(677,187,cs),
(677,153,ls),
(677,69,o),
(652,35,o),
(611,35,cs),
(570,35,o),
(545,69,o),
(545,153,cs)
);
}
);
width = 805;
},
{
layerId = m009;
shapes = (
{
closed = 1;
nodes = (
(811,665,l),
(674,756,l),
(226,-3,l),
(363,-94,l)
);
},
{
closed = 1;
nodes = (
(0,402,o),
(74,302,o),
(226,302,cs),
(378,302,o),
(452,402,o),
(452,507,cs),
(452,616,o),
(374,708,o),
(226,708,cs),
(78,708,o),
(0,616,o),
(0,507,cs)
);
},
{
closed = 1;
nodes = (
(210,522,ls),
(210,622,o),
(210,646,o),
(226,646,cs),
(242,646,o),
(242,622,o),
(242,522,cs),
(242,488,ls),
(242,388,o),
(242,364,o),
(226,364,cs),
(210,364,o),
(210,388,o),
(210,488,cs)
);
},
{
closed = 1;
nodes = (
(1025,187,ls),
(1025,307,o),
(941,373,o),
(811,373,cs),
(681,373,o),
(597,307,o),
(597,187,cs),
(597,153,ls),
(597,33,o),
(681,-33,o),
(811,-33,cs),
(941,-33,o),
(1025,33,o),
(1025,153,cs)
);
},
{
closed = 1;
nodes = (
(795,187,ls),
(795,287,o),
(795,311,o),
(811,311,cs),
(827,311,o),
(827,287,o),
(827,187,cs),
(827,153,ls),
(827,53,o),
(827,29,o),
(811,29,cs),
(795,29,o),
(795,53,o),
(795,153,cs)
);
}
);
width = 1025;
}
);
metricLeft = "=H";
metricRight = "=H";
note = percent;
unicode = 37;
}
{
glyphname = ampersand;
layers = (
{
layerId = m004;
shapes = (
{
closed = 1;
nodes = (
(423,-10,o),
(529,69,o),
(529,340,c),
(494,340,l),
(494,102,o),
(408,40,o),
(281,40,cs),
(185,40,o),
(118,101,o),
(118,194,cs),
(118,291,o),
(190,314,o),
(275,361,cs),
(330,391,o),
(431,426,o),
(431,525,cs),
(431,606,o),
(384,677,o),
(281,677,cs),
(178,677,o),
(121,608,o),
(121,525,cs),
(121,401,o),
(254,260,o),
(355,159,cs),
(439,75,o),
(512,-10,o),
(550,-10,cs),
(574,-10,o),
(596,22,o),
(608,61,c),
(546,73,o),
(464,172,o),
(407,229,cs),
(332,304,o),
(196,439,o),
(196,525,cs),
(196,576,o),
(214,627,o),
(281,627,cs),
(348,627,o),
(366,576,o),
(366,525,cs),
(366,463,o),
(290,435,o),
(213,400,cs),
(106,352,o),
(43,308,o),
(43,194,cs),
(43,64,o),
(135,-10,o),
(281,-10,cs)
);
},
{
closed = 1;
nodes = (
(432,340,o),
(425,331,o),
(425,322,cs),
(425,314,o),
(432,305,o),
(444,305,c),
(494,305,o),
(492,280,o),
(490,255,c),
(504,340,l),
(444,340,l)
);
},
{
closed = 1;
nodes = (
(519,340,l),
(526,260,l),
(528,280,o),
(529,305,o),
(579,305,c),
(591,305,o),
(598,314,o),
(598,322,cs),
(598,331,o),
(591,340,o),
(579,340,c)
);
}
);
width = 630;
},
{
hints = (
{
horizontal = 1;
place = (-10,64);
type = Stem;
},
{
horizontal = 1;
place = (248,65);
type = Stem;
},
{
horizontal = 1;
place = (560,70);
type = Stem;
},
{
place = (98,90);
type = Stem;
},
{
place = (424,95);
type = Stem;
},
{
place = (70,95);
type = Stem;
},
{
horizontal = 1;
place = (200,85);
type = Stem;
},
{
horizontal = 1;
place = (200,80);
type = Stem;
},
{
place = (23,90);
type = Stem;
},
{
place = (23,110);
type = Stem;
},
{
horizontal = 1;
place = (-10,70);
type = Stem;
},
{
horizontal = 1;
place = (326,70);
type = Stem;
},
{
horizontal = 1;
place = (608,69);
type = Stem;
},
{
place = (49,105);
type = Stem;
},
{
place = (364,112);
type = Stem;
},
{
place = (24,112);
type = Stem;
},
{
place = (345,105);
type = Stem;
}
);
layerId = m005;
shapes = (
{
closed = 1;
nodes = (
(433,-10,o),
(531,71,o),
(531,340,c),
(481,340,l),
(481,101,o),
(398,50,o),
(281,50,cs),
(192,50,o),
(130,101,o),
(130,194,cs),
(130,294,o),
(198,315,o),
(281,361,cs),
(338,392,o),
(443,430,o),
(443,525,cs),
(443,607,o),
(390,677,o),
(281,677,cs),
(171,677,o),
(108,607,o),
(108,525,cs),
(108,405,o),
(240,265,o),
(346,159,cs),
(426,79,o),
(500,-10,o),
(550,-10,cs),
(600,-10,o),
(620,60,o),
(620,60,c),
(570,60,o),
(482,163,o),
(416,229,cs),
(345,300,o),
(208,435,o),
(208,525,cs),
(208,577,o),
(226,627,o),
(281,627,cs),
(336,627,o),
(353,577,o),
(353,525,cs),
(353,460,o),
(281,433,o),
(208,400,cs),
(94,349,o),
(30,305,o),
(30,194,cs),
(30,64,o),
(131,-10,o),
(281,-10,cs)
);
},
{
closed = 1;
nodes = (
(419,340,o),
(412,331,o),
(412,322,cs),
(412,314,o),
(419,305,o),
(431,305,c),
(481,305,o),
(479,280,o),
(477,255,c),
(491,340,l),
(431,340,l)
);
},
{
closed = 1;
nodes = (
(521,340,l),
(527,255,l),
(529,280,o),
(531,305,o),
(581,305,c),
(593,305,o),
(600,314,o),
(600,322,cs),
(600,331,o),
(593,340,o),
(581,340,c)
);
}
);
width = 635;
},
{
layerId = m006;
shapes = (
{
closed = 1;
nodes = (
(489,-10,o),
(633,75,o),
(626,340,c),
(501,340,l),
(504,110,o),
(411,65,o),
(301,65,cs),
(236,65,o),
(200,107,o),
(200,194,cs),
(200,284,o),
(237,324,o),
(325,356,cs),
(387,379,o),
(513,415,o),
(513,525,cs),
(513,611,o),
(434,677,o),
(301,677,cs),
(166,677,o),
(78,609,o),
(78,525,cs),
(78,411,o),
(217,272,o),
(331,154,cs),
(379,104,o),
(481,-10,o),
(531,-10,cs),
(631,-10,o),
(650,109,o),
(650,109,c),
(582,159,o),
(543,188,o),
(471,260,cs),
(409,322,o),
(268,438,o),
(268,525,cs),
(268,574,o),
(279,602,o),
(301,602,cs),
(322,602,o),
(333,575,o),
(333,525,cs),
(333,470,o),
(274,446,o),
(207,416,cs),
(73,355,o),
(0,297,o),
(0,194,cs),
(0,64,o),
(126,-10,o),
(301,-10,cs)
);
},
{
closed = 1;
nodes = (
(439,340,o),
(432,331,o),
(432,322,cs),
(432,314,o),
(439,305,o),
(451,305,c),
(501,305,o),
(501,280,o),
(497,255,c),
(511,340,l),
(451,340,l)
);
},
{
closed = 1;
nodes = (
(621,340,l),
(623,259,l),
(625,279,o),
(631,305,o),
(681,305,c),
(693,305,o),
(700,314,o),
(700,322,cs),
(700,331,o),
(693,340,o),
(681,340,c)
);
}
);
width = 700;
},
{
layerId = m007;
shapes = (
{
closed = 1;
nodes = (
(423,-10,o),
(529,69,o),
(529,340,c),
(494,340,l),
(494,90,o),
(408,28,o),
(281,28,cs),
(185,28,o),
(118,89,o),
(118,194,cs),
(118,291,o),
(190,314,o),
(275,361,cs),
(330,391,o),
(431,426,o),
(431,525,cs),
(431,606,o),
(384,677,o),
(281,677,cs),
(178,677,o),
(121,608,o),
(121,525,cs),
(121,401,o),
(254,260,o),
(355,159,cs),
(439,75,o),
(512,-10,o),
(550,-10,cs),
(574,-10,o),
(596,22,o),
(608,61,c),
(546,73,o),
(464,172,o),
(407,229,cs),
(332,304,o),
(196,439,o),
(196,525,cs),
(196,588,o),
(214,639,o),
(281,639,cs),
(348,639,o),
(366,588,o),
(366,525,cs),
(366,463,o),
(290,435,o),
(213,400,cs),
(106,352,o),
(43,308,o),
(43,194,cs),
(43,64,o),
(135,-10,o),
(281,-10,cs)
);
},
{
closed = 1;
nodes = (
(432,340,o),
(425,336,o),
(425,327,cs),
(425,319,o),
(432,315,o),
(444,315,c),
(494,315,o),
(492,280,o),
(490,255,c),
(504,340,l),
(444,340,l)
);
},
{
closed = 1;
nodes = (
(519,340,l),
(526,260,l),
(528,280,o),
(529,315,o),
(579,315,c),
(591,315,o),
(598,319,o),
(598,327,cs),
(598,336,o),
(591,340,o),
(579,340,c)
);
}
);
width = 630;
},
{
hints = (
{
horizontal = 1;
place = (-10,64);
type = Stem;
},
{
horizontal = 1;
place = (248,65);
type = Stem;
},
{
horizontal = 1;
place = (560,70);
type = Stem;
},
{
place = (98,90);
type = Stem;
},
{
place = (424,95);
type = Stem;
},
{
place = (70,95);
type = Stem;
},
{
horizontal = 1;
place = (200,85);
type = Stem;
},
{
horizontal = 1;
place = (200,80);
type = Stem;
},
{
place = (23,90);
type = Stem;
},
{
place = (23,110);
type = Stem;
},
{
horizontal = 1;
place = (-10,70);
type = Stem;
},
{
horizontal = 1;
place = (326,70);
type = Stem;
},
{
horizontal = 1;
place = (608,69);
type = Stem;
},
{
place = (49,105);
type = Stem;
},
{
place = (364,112);
type = Stem;
},
{
place = (24,112);
type = Stem;
},
{
place = (345,105);
type = Stem;
}
);
layerId = m008;
shapes = (
{
closed = 1;
nodes = (
(433,-10,o),
(531,71,o),
(531,340,c),
(481,340,l),
(481,95,o),
(398,44,o),
(281,44,cs),
(192,44,o),
(130,95,o),
(130,194,cs),
(130,294,o),
(198,315,o),
(281,361,cs),
(338,392,o),
(443,430,o),
(443,525,cs),
(443,607,o),
(390,677,o),
(281,677,cs),
(171,677,o),
(108,607,o),
(108,525,cs),
(108,405,o),
(240,265,o),
(346,159,cs),
(426,79,o),
(500,-10,o),
(550,-10,cs),
(600,-10,o),
(620,60,o),
(620,60,c),
(570,60,o),
(482,163,o),
(416,229,cs),
(345,300,o),
(208,435,o),
(208,525,cs),
(208,583,o),
(226,633,o),
(281,633,cs),
(336,633,o),
(353,583,o),
(353,525,cs),
(353,460,o),
(281,433,o),
(208,400,cs),
(94,349,o),
(30,305,o),
(30,194,cs),
(30,64,o),
(131,-10,o),
(281,-10,cs)
);
},
{
closed = 1;
nodes = (
(419,340,o),
(412,336,o),
(412,327,cs),
(412,319,o),
(419,315,o),
(431,315,c),
(481,315,o),
(479,280,o),
(477,255,c),
(491,340,l),
(431,340,l)
);
},
{
closed = 1;
nodes = (
(521,340,l),
(527,255,l),
(529,280,o),
(531,315,o),
(581,315,c),
(593,315,o),
(600,319,o),
(600,327,cs),
(600,336,o),
(593,340,o),
(581,340,c)
);
}
);
width = 635;
},
{
layerId = m009;
shapes = (
{
closed = 1;
nodes = (
(489,-10,o),
(633,75,o),
(626,340,c),
(501,340,l),
(505,85,o),
(412,40,o),
(302,40,cs),
(237,40,o),
(201,82,o),
(200,194,cs),
(199,284,o),
(237,324,o),
(325,356,cs),
(387,379,o),
(513,415,o),
(513,525,cs),
(513,611,o),
(434,677,o),
(301,677,cs),
(166,677,o),
(78,609,o),
(78,525,cs),
(78,411,o),
(217,272,o),
(331,154,cs),
(379,104,o),
(481,-10,o),
(531,-10,cs),
(631,-10,o),
(650,109,o),
(650,109,c),
(582,159,o),
(543,188,o),
(471,260,cs),
(409,322,o),
(268,438,o),
(268,525,cs),
(268,599,o),
(279,627,o),
(301,627,cs),
(322,627,o),
(333,600,o),
(333,525,cs),
(333,470,o),
(274,446,o),
(207,416,cs),
(73,355,o),
(0,297,o),
(0,194,cs),
(0,64,o),
(126,-10,o),
(301,-10,cs)
);
},
{
closed = 1;
nodes = (
(439,340,o),
(432,336,o),
(432,327,cs),
(432,319,o),
(439,315,o),
(451,315,c),
(501,315,o),
(501,280,o),
(497,255,c),
(511,340,l),
(451,340,l)
);
},
{
closed = 1;
nodes = (
(621,340,l),
(623,259,l),
(625,279,o),
(631,315,o),
(681,315,c),
(693,315,o),
(700,319,o),
(700,327,cs),
(700,336,o),
(693,340,o),
(681,340,c)
);
}
);
width = 700;
}
);
metricLeft = "=|B";
metricRight = "=L";
note = ampersand;
unicode = 38;
}
{
glyphname = quotesingle;
layers = (
{
layerId = m004;
shapes = (
{
closed = 1;
nodes = (
(73,472,o),
(125,472,o),
(127,500,cs),
(137,700,l),
(61,700,l),
(71,500,ls)
);
}
);
width = 196;
},
{
hints = (
{
horizontal = 1;
place = (500,200);
type = Stem;
},
{
place = (80,62.5);
type = Stem;
}
);
layerId = m005;
shapes = (
{
closed = 1;
nodes = (
(61,475,o),
(139,475,o),
(140,500,cs),
(150,700,l),
(50,700,l),
(60,500,ls)
);
}
);
width = 200;
},
{
layerId = m006;
shapes = (
{
closed = 1;
nodes = (
(27,450,o),
(153,450,o),
(155,500,cs),
(165,700,l),
(15,700,l),
(25,500,ls)
);
}
);
width = 180;
},
{
layerId = m007;
shapes = (
{
closed = 1;
nodes = (
(73,472,o),
(125,472,o),
(127,500,cs),
(137,700,l),
(61,700,l),
(71,500,ls)
);
}
);
width = 197;
},
{
hints = (
{
horizontal = 1;
place = (500,200);
type = Stem;
},
{
place = (80,62.5);
type = Stem;
}
);
layerId = m008;
shapes = (
{
closed = 1;
nodes = (
(61,475,o),
(139,475,o),
(140,500,cs),
(150,700,l),
(50,700,l),
(60,500,ls)
);
}
);
width = 200;
},
{
layerId = m009;
shapes = (
{
closed = 1;
nodes = (
(52,450,o),
(178,450,o),
(180,500,cs),
(190,700,l),
(40,700,l),
(50,500,ls)
);
}
);
width = 230;
}
);
metricLeft = "=period";
metricRight = "=period";
note = quotesingle;
unicode = 39;
}
{
glyphname = parenleft;
layers = (
{
layerId = m004;
shapes = (
{
closed = 1;
nodes = (
(107,505,o),
(150,634,o),
(252,697,c),
(228,741,l),
(122,684,o),
(42,528,o),
(42,334,cs),
(42,140,o),
(123,-17,o),
(228,-74,c),
(252,-30,l),
(150,33,o),
(107,163,o),
(107,334,cs)
);
}
);
width = 261;
},
{
hints = (
{
horizontal = 1;
place = (-80,827);
type = Stem;
},
{
place = (70,100);
type = Stem;
}
);
layerId = m005;
shapes = (
{
closed = 1;
nodes = (
(120,513,o),
(171,644,o),
(263,699,c),
(236,747,l),
(111,690,o),
(30,528,o),
(30,334,cs),
(30,140,o),
(111,-23,o),
(236,-80,c),
(263,-32,l),
(171,23,o),
(120,154,o),
(120,334,cs)
);
}
);
width = 266;
},
{
layerId = m006;
shapes = (
{
closed = 1;
nodes = (
(185,549,o),
(245,689,o),
(308,727,c),
(266,797,l),
(111,726,o),
(10,544,o),
(10,334,cs),
(10,123,o),
(111,-59,o),
(266,-130,c),
(308,-60,l),
(245,-22,o),
(185,118,o),
(185,334,cs)
);
}
);
width = 313;
},
{
layerId = m007;
shapes = (
{
closed = 1;
nodes = (
(107,505,o),
(150,634,o),
(252,697,c),
(228,741,l),
(122,684,o),
(42,528,o),
(42,334,cs),
(42,140,o),
(123,-17,o),
(228,-74,c),
(252,-30,l),
(150,33,o),
(107,163,o),
(107,334,cs)
);
}
);
width = 261;
},
{
hints = (
{
horizontal = 1;
place = (-80,827);
type = Stem;
},
{
place = (70,100);
type = Stem;
}
);
layerId = m008;
shapes = (
{
closed = 1;
nodes = (
(120,513,o),
(171,644,o),
(263,699,c),
(236,747,l),
(111,690,o),
(30,528,o),
(30,334,cs),
(30,140,o),
(111,-23,o),
(236,-80,c),
(263,-32,l),
(171,23,o),
(120,154,o),
(120,334,cs)
);
}
);
width = 266;
},
{
layerId = m009;
shapes = (
{
closed = 1;
nodes = (
(175,549,o),
(235,689,o),
(298,727,c),
(256,797,l),
(101,726,o),
(0,544,o),
(0,334,cs),
(0,123,o),
(101,-59,o),
(256,-130,c),
(298,-60,l),
(235,-22,o),
(175,118,o),
(175,334,cs)
);
}
);
width = 298;
}
);
metricLeft = "=n";
metricRight = "=n/2";
note = parenleft;
unicode = 40;
}
{
glyphname = comma;
kernLeft = period;
layers = (
{
layerId = m004;
shapes = (
{
pos = (3,0);
ref = period;
},
{
closed = 1;
nodes = (
(113,-10,l),
(132,-10,o),
(143,-21,o),
(143,-40,cs),
(143,-81,o),
(109,-115,o),
(63,-115,c),
(63,-140,l),
(129,-140,o),
(178,-84,o),
(178,-10,cs),
(178,60,o),
(150,90,o),
(113,90,c)
);
}
);
width = 208;
},
{
hints = (
{
horizontal = 1;
place = (-150,35);
type = Stem;
},
{
horizontal = 1;
place = (-5,120);
type = Stem;
},
{
place = (125,51);
type = Stem;
}
);
layerId = m005;
shapes = (
{
ref = period;
},
{
closed = 1;
nodes = (
(110,-10,l),
(127,-10,o),
(140,-23,o),
(140,-40,cs),
(140,-80,o),
(106,-110,o),
(60,-110,c),
(60,-150,l),
(137,-150,o),
(195,-86,o),
(195,0,cs),
(195,53,o),
(159,110,o),
(110,110,c)
);
}
);
width = 245;
},
{
layerId = m006;
shapes = (
{
ref = period;
},
{
closed = 1;
nodes = (
(125,-10,l),
(138,-10,o),
(145,-17,o),
(145,-30,cs),
(145,-59,o),
(102,-90,o),
(45,-90,c),
(45,-170,l),
(168,-170,o),
(260,-93,o),
(260,17,cs),
(260,127,o),
(212,190,o),
(125,190,c)
);
}
);
width = 275;
},
{
layerId = m007;
shapes = (
{
pos = (3,0);
ref = period;
},
{
closed = 1;
nodes = (
(113,-10,l),
(132,-10,o),
(143,-21,o),
(143,-40,cs),
(143,-81,o),
(109,-115,o),
(63,-115,c),
(63,-140,l),
(129,-140,o),
(178,-84,o),
(178,-10,cs),
(178,60,o),
(150,90,o),
(113,90,c)
);
}
);
width = 265;
},
{
hints = (
{
horizontal = 1;
place = (-150,35);
type = Stem;
},
{
horizontal = 1;
place = (-5,120);
type = Stem;
},
{
place = (125,51);
type = Stem;
}
);
layerId = m008;
shapes = (
{
ref = period;
},
{
closed = 1;
nodes = (
(110,-10,l),
(127,-10,o),
(140,-23,o),
(140,-40,cs),
(140,-80,o),
(106,-110,o),
(60,-110,c),
(60,-150,l),
(137,-150,o),
(195,-86,o),
(195,0,cs),
(195,53,o),
(159,110,o),
(110,110,c)
);
}
);
width = 245;
},
{
layerId = m009;
shapes = (
{
ref = period;
},
{
closed = 1;
nodes = (
(125,-10,l),
(138,-10,o),
(145,-17,o),
(145,-30,cs),
(145,-59,o),
(102,-90,o),
(45,-90,c),
(45,-170,l),
(168,-170,o),
(260,-93,o),
(260,17,cs),
(260,82,o),
(212,145,o),
(125,145,c)
);
}
);
width = 275;
}
);
note = comma;
unicode = 44;
}
{
glyphname = slash;
kernLeft = slash;
kernRight = slash;
layers = (
{
layerId = m004;
shapes = (
{
closed = 1;
nodes = (
(147,-100,l),
(362,700,l),
(276,700,l),
(61,-100,l)
);
}
);
width = 421;
},
{
hints = (
{
horizontal = 1;
place = (0,21);
target = up;
type = BottomGhost;
},
{
place = (10,405);
type = Stem;
}
);
layerId = m005;
shapes = (
{
closed = 1;
nodes = (
(160,-100,l),
(375,700,l),
(265,700,l),
(50,-100,l)
);
}
);
width = 425;
},
{
layerId = m006;
shapes = (
{
closed = 1;
nodes = (
(225,-100,l),
(440,700,l),
(230,700,l),
(15,-100,l)
);
}
);
width = 455;
},
{
layerId = m007;
shapes = (
{
closed = 1;
nodes = (
(137,-100,l),
(352,700,l),
(276,700,l),
(61,-100,l)
);
}
);
width = 412;
},
{
hints = (
{
horizontal = 1;
place = (0,21);
target = up;
type = BottomGhost;
},
{
place = (10,405);
type = Stem;
}
);
layerId = m008;
shapes = (
{
closed = 1;
nodes = (
(150,-100,l),
(365,700,l),
(265,700,l),
(50,-100,l)
);
}
);
width = 415;
},
{
layerId = m009;
shapes = (
{
closed = 1;
nodes = (
(240,-100,l),
(455,700,l),
(255,700,l),
(40,-100,l)
);
}
);
width = 495;
}
);
metricLeft = "=period";
metricRight = "=period";
note = slash;
unicode = 47;
}
{
glyphname = six;
layers = (
{
layerId = m004;
shapes = (
{
closed = 1;
nodes = (
(33,85,o),
(109,-10,o),
(251,-10,cs),
(383,-10,o),
(465,74,o),
(465,200,cs),
(465,326,o),
(384,410,o),
(251,410,cs),
(213,410,o),
(163,393,o),
(119,360,c),
(148,522,o),
(242,621,o),
(385,627,c),
(384,677,l),
(173,671,o),
(33,506,o),
(33,250,cs)
);
},
{
closed = 1;
nodes = (
(113,297,o),
(166,360,o),
(251,360,cs),
(337,360,o),
(390,297,o),
(390,200,cs),
(390,103,o),
(337,40,o),
(251,40,cs),
(166,40,o),
(113,103,o),
(113,200,cs)
);
}
);
width = 517;
},
{
hints = (
{
horizontal = 1;
place = (15,95);
type = Stem;
},
{
horizontal = 1;
place = (365,95);
type = Stem;
},
{
horizontal = 1;
place = (637,90);
type = Stem;
},
{
place = (49,142);
type = Stem;
},
{
place = (394,137);
type = Stem;
}
);
layerId = m005;
shapes = (
{
closed = 1;
nodes = (
(20,83,o),
(103,-10,o),
(251,-10,cs),
(388,-10,o),
(477,73,o),
(477,200,cs),
(477,328,o),
(388,410,o),
(251,410,cs),
(216,410,o),
(170,397,o),
(134,375,c),
(168,537,o),
(262,627,o),
(397,627,c),
(397,677,l),
(168,677,o),
(20,509,o),
(20,250,cs)
);
},
{
closed = 1;
nodes = (
(125,287,o),
(175,350,o),
(251,350,cs),
(328,350,o),
(377,287,o),
(377,200,cs),
(377,113,o),
(328,50,o),
(251,50,cs),
(175,50,o),
(125,113,o),
(125,200,cs)
);
}
);
width = 517;
},
{
layerId = m006;
shapes = (
{
closed = 1;
nodes = (
(10,83,o),
(110,-10,o),
(291,-10,cs),
(468,-10,o),
(567,70,o),
(567,213,cs),
(567,356,o),
(468,435,o),
(291,435,cs),
(276,435,o),
(256,432,o),
(239,427,c),
(279,540,o),
(367,602,o),
(487,602,c),
(487,677,l),
(180,677,o),
(10,525,o),
(10,250,cs)
);
},
{
closed = 1;
nodes = (
(215,325,o),
(242,360,o),
(291,360,cs),
(340,360,o),
(367,325,o),
(367,213,cs),
(367,100,o),
(340,65,o),
(291,65,cs),
(242,65,o),
(215,100,o),
(215,213,cs)
);
}
);
width = 587;
},
{
layerId = m007;
shapes = (
{
closed = 1;
nodes = (
(33,85,o),
(109,-10,o),
(251,-10,cs),
(383,-10,o),
(465,74,o),
(465,200,cs),
(465,326,o),
(384,410,o),
(251,410,cs),
(213,410,o),
(163,393,o),
(119,360,c),
(148,522,o),
(242,633,o),
(385,639,c),
(384,677,l),
(173,671,o),
(33,506,o),
(33,250,cs)
);
},
{
closed = 1;
nodes = (
(113,309,o),
(166,372,o),
(251,372,cs),
(337,372,o),
(390,309,o),
(390,200,cs),
(390,91,o),
(337,28,o),
(251,28,cs),
(166,28,o),
(113,91,o),
(113,200,cs)
);
}
);
width = 517;
},
{
hints = (
{
horizontal = 1;
place = (15,95);
type = Stem;
},
{
horizontal = 1;
place = (365,95);
type = Stem;
},
{
horizontal = 1;
place = (637,90);
type = Stem;
},
{
place = (49,142);
type = Stem;
},
{
place = (394,137);
type = Stem;
}
);
layerId = m008;
shapes = (
{
closed = 1;
nodes = (
(20,83,o),
(103,-10,o),
(251,-10,cs),
(388,-10,o),
(477,73,o),
(477,200,cs),
(477,328,o),
(388,410,o),
(251,410,cs),
(216,410,o),
(170,397,o),
(134,375,c),
(168,543,o),
(262,633,o),
(397,633,c),
(397,677,l),
(168,677,o),
(20,509,o),
(20,250,cs)
);
},
{
closed = 1;
nodes = (
(125,293,o),
(175,356,o),
(251,356,cs),
(328,356,o),
(377,293,o),
(377,200,cs),
(377,107,o),
(328,44,o),
(251,44,cs),
(175,44,o),
(125,107,o),
(125,200,cs)
);
}
);
width = 517;
},
{
layerId = m009;
shapes = (
{
closed = 1;
nodes = (
(10,83,o),
(110,-10,o),
(291,-10,cs),
(468,-10,o),
(567,70,o),
(567,213,cs),
(567,356,o),
(468,435,o),
(291,435,cs),
(276,435,o),
(256,432,o),
(239,427,c),
(279,565,o),
(367,627,o),
(487,627,c),
(487,677,l),
(180,677,o),
(10,525,o),
(10,250,cs)
);
},
{
closed = 1;
nodes = (
(215,350,o),
(242,385,o),
(291,385,cs),
(340,385,o),
(367,350,o),
(367,213,cs),
(367,75,o),
(340,40,o),
(291,40,cs),
(242,40,o),
(215,75,o),
(215,213,cs)
);
}
);
width = 577;
}
);
metricLeft = "=O";
metricRight = "=o";
note = six;
unicode = 54;
}
{
glyphname = eight;
layers = (
{
layerId = m004;
shapes = (
{
closed = 1;
nodes = (
(68,432,o),
(113,382,o),
(162,364,c),
(100,340,o),
(43,276,o),
(43,194,cs),
(43,72,o),
(123,-10,o),
(256,-10,cs),
(389,-10,o),
(470,72,o),
(470,194,cs),
(470,277,o),
(411,341,o),
(348,365,c),
(398,385,o),
(444,435,o),
(444,500,cs),
(444,606,o),
(373,677,o),
(256,677,cs),
(138,677,o),
(68,606,o),
(68,500,cs)
);
},
{
closed = 1;
nodes = (
(133,579,o),
(183,627,o),
(256,627,cs),
(329,627,o),
(379,580,o),
(379,500,cs),
(379,429,o),
(328,386,o),
(256,386,cs),
(183,386,o),
(133,429,o),
(133,500,cs)
);
},
{
closed = 1;
nodes = (
(118,282,o),
(174,336,o),
(256,336,cs),
(338,336,o),
(395,283,o),
(395,194,cs),
(395,102,o),
(343,40,o),
(256,40,cs),
(172,40,o),
(118,100,o),
(118,194,cs)
);
}
);
width = 513;
},
{
hints = (
{
horizontal = 1;
place = (15,95);
type = Stem;
},
{
horizontal = 1;
place = (351,95);
type = Stem;
},
{
horizontal = 1;
place = (633,94);
type = Stem;
},
{
place = (74,130);
type = Stem;
},
{
place = (389,137);
type = Stem;
},
{
place = (49,137);
type = Stem;
},
{
place = (370,130);
type = Stem;
}
);
layerId = m005;
shapes = (
{
closed = 1;
nodes = (
(55,440,o),
(95,387,o),
(158,364,c),
(80,334,o),
(30,267,o),
(30,194,cs),
(30,70,o),
(119,-10,o),
(256,-10,cs),
(393,-10,o),
(482,70,o),
(482,194,cs),
(482,268,o),
(431,335,o),
(353,365,c),
(416,390,o),
(456,443,o),
(456,500,cs),
(456,607,o),
(377,677,o),
(256,677,cs),
(134,677,o),
(55,607,o),
(55,500,cs)
);
},
{
closed = 1;
nodes = (
(145,567,o),
(189,617,o),
(256,617,cs),
(323,617,o),
(366,567,o),
(366,500,cs),
(366,436,o),
(323,391,o),
(256,391,cs),
(189,391,o),
(145,436,o),
(145,500,cs)
);
},
{
closed = 1;
nodes = (
(130,275,o),
(180,331,o),
(256,331,cs),
(333,331,o),
(382,275,o),
(382,194,cs),
(382,111,o),
(333,50,o),
(256,50,cs),
(180,50,o),
(130,111,o),
(130,194,cs)
);
}
);
width = 512;
},
{
layerId = m006;
shapes = (
{
closed = 1;
nodes = (
(25,432,o),
(56,388,o),
(111,364,c),
(40,332,o),
(0,276,o),
(0,207,cs),
(0,68,o),
(99,-10,o),
(276,-10,cs),
(453,-10,o),
(552,68,o),
(552,207,cs),
(552,279,o),
(512,335,o),
(439,365,c),
(495,390,o),
(526,434,o),
(526,487,cs),
(526,609,o),
(437,677,o),
(276,677,cs),
(115,677,o),
(25,609,o),
(25,487,cs)
);
},
{
closed = 1;
nodes = (
(215,565,o),
(237,602,o),
(276,602,cs),
(315,602,o),
(336,565,o),
(336,498,cs),
(336,431,o),
(315,394,o),
(276,394,cs),
(237,394,o),
(215,431,o),
(215,498,cs)
);
},
{
closed = 1;
nodes = (
(200,274,o),
(227,319,o),
(276,319,cs),
(325,319,o),
(352,274,o),
(352,192,cs),
(352,110,o),
(325,65,o),
(276,65,cs),
(227,65,o),
(200,110,o),
(200,192,cs)
);
}
);
width = 552;
},
{
layerId = m007;
shapes = (
{
closed = 1;
nodes = (
(68,432,o),
(113,382,o),
(162,364,c),
(100,340,o),
(43,276,o),
(43,194,cs),
(43,72,o),
(123,-10,o),
(256,-10,cs),
(389,-10,o),
(470,72,o),
(470,194,cs),
(470,277,o),
(411,341,o),
(348,365,c),
(398,385,o),
(444,435,o),
(444,500,cs),
(444,606,o),
(373,677,o),
(256,677,cs),
(138,677,o),
(68,606,o),
(68,500,cs)
);
},
{
closed = 1;
nodes = (
(133,591,o),
(183,639,o),
(256,639,cs),
(329,639,o),
(379,592,o),
(379,500,cs),
(379,423,o),
(328,380,o),
(256,380,cs),
(183,380,o),
(133,423,o),
(133,500,cs)
);
},
{
closed = 1;
nodes = (
(118,288,o),
(174,342,o),
(256,342,cs),
(338,342,o),
(395,289,o),
(395,194,cs),
(395,90,o),
(343,28,o),
(256,28,cs),
(172,28,o),
(118,88,o),
(118,194,cs)
);
}
);
width = 513;
},
{
hints = (
{
horizontal = 1;
place = (15,95);
type = Stem;
},
{
horizontal = 1;
place = (351,95);
type = Stem;
},
{
horizontal = 1;
place = (633,94);
type = Stem;
},
{
place = (74,130);
type = Stem;
},
{
place = (389,137);
type = Stem;
},
{
place = (49,137);
type = Stem;
},
{
place = (370,130);
type = Stem;
}
);
layerId = m008;
shapes = (
{
closed = 1;
nodes = (
(55,440,o),
(95,387,o),
(158,364,c),
(80,334,o),
(30,267,o),
(30,194,cs),
(30,70,o),
(119,-10,o),
(256,-10,cs),
(393,-10,o),
(482,70,o),
(482,194,cs),
(482,268,o),
(431,335,o),
(353,365,c),
(416,390,o),
(456,443,o),
(456,500,cs),
(456,607,o),
(377,677,o),
(256,677,cs),
(134,677,o),
(55,607,o),
(55,500,cs)
);
},
{
closed = 1;
nodes = (
(145,573,o),
(189,623,o),
(256,623,cs),
(323,623,o),
(366,573,o),
(366,500,cs),
(366,433,o),
(323,388,o),
(256,388,cs),
(189,388,o),
(145,433,o),
(145,500,cs)
);
},
{
closed = 1;
nodes = (
(130,278,o),
(180,334,o),
(256,334,cs),
(333,334,o),
(382,278,o),
(382,194,cs),
(382,105,o),
(333,44,o),
(256,44,cs),
(180,44,o),
(130,105,o),
(130,194,cs)
);
}
);
width = 512;
},
{
layerId = m009;
shapes = (
{
closed = 1;
nodes = (
(25,432,o),
(56,388,o),
(111,364,c),
(40,332,o),
(0,276,o),
(0,207,cs),
(0,68,o),
(99,-10,o),
(276,-10,cs),
(453,-10,o),
(552,68,o),
(552,207,cs),
(552,279,o),
(512,335,o),
(439,365,c),
(495,390,o),
(526,434,o),
(526,487,cs),
(526,609,o),
(437,677,o),
(276,677,cs),
(115,677,o),
(25,609,o),
(25,487,cs)
);
},
{
closed = 1;
nodes = (
(215,590,o),
(237,627,o),
(276,627,cs),
(315,627,o),
(336,590,o),
(336,498,cs),
(336,419,o),
(315,382,o),
(276,382,cs),
(237,382,o),
(215,419,o),
(215,498,cs)
);
},
{
closed = 1;
nodes = (
(200,287,o),
(227,332,o),
(276,332,cs),
(325,332,o),
(352,287,o),
(352,192,cs),
(352,85,o),
(325,40,o),
(276,40,cs),
(227,40,o),
(200,85,o),
(200,192,cs)
);
}
);
width = 552;
}
);
metricLeft = "=|B";
metricRight = "=B";
note = eight;
unicode = 56;
}
{
glyphname = greater;
layers = (
{
layerId = m004;
shapes = (
{
closed = 1;
nodes = (
(467,225,l),
(490,230,l),
(489,270,l),
(133,451,l),
(110,407,l)
);
},
{
closed = 1;
nodes = (
(489,230,l),
(467,275,l),
(110,93,l),
(133,49,l)
);
}
);
width = 600;
},
{
hints = (
{
horizontal = 1;
place = (218,65);
type = Stem;
},
{
place = (248,65);
type = Stem;
}
);
layerId = m005;
shapes = (
{
closed = 1;
nodes = (
(465,220,l),
(492,227,l),
(492,273,l),
(135,455,l),
(108,402,l)
);
},
{
closed = 1;
nodes = (
(492,227,l),
(465,280,l),
(108,98,l),
(135,45,l)
);
}
);
width = 600;
},
{
layerId = m006;
shapes = (
{
closed = 1;
nodes = (
(458,206,l),
(499,216,l),
(498,286,l),
(142,468,l),
(101,388,l)
);
},
{
closed = 1;
nodes = (
(498,216,l),
(458,296,l),
(101,114,l),
(142,34,l)
);
}
);
width = 600;
},
{
layerId = m007;
shapes = (
{
closed = 1;
nodes = (
(470,231,l),
(487,235,l),
(487,265,l),
(130,446,l),
(113,413,l)
);
},
{
closed = 1;
nodes = (
(487,235,l),
(470,269,l),
(113,87,l),
(130,54,l)
);
}
);
width = 600;
},
{
hints = (
{
horizontal = 1;
place = (218,65);
type = Stem;
},
{
place = (248,65);
type = Stem;
}
);
layerId = m008;
shapes = (
{
closed = 1;
nodes = (
(468,233,l),
(488,228,l),
(488,272,l),
(132,454,l),
(112,414,l)
);
},
{
closed = 1;
nodes = (
(488,228,l),
(468,267,l),
(112,86,l),
(132,46,l)
);
}
);
width = 600;
},
{
layerId = m009;
shapes = (
{
closed = 1;
nodes = (
(465,228,l),
(492,221,l),
(492,281,l),
(136,463,l),
(108,409,l)
);
},
{
closed = 1;
nodes = (
(492,221,l),
(465,274,l),
(108,93,l),
(136,39,l)
);
}
);
width = 600;
}
);
note = plus;
unicode = 62;
}
{
glyphname = D;
layers = (
{
anchors = (
{
name = bottom;
pos = (313,0);
},
{
name = center;
pos = (157,334);
},
{
name = top;
pos = (313,667);
}
);
layerId = m004;
shapes = (
{
closed = 1;
nodes = (
(299,0,ls),
(482,0,o),
(566,146,o),
(566,334,cs),
(566,520,o),
(482,667,o),
(299,667,cs),
(112,667,l),
(112,0,l)
);
},
{
closed = 1;
nodes = (
(187,617,l),
(299,617,ls),
(449,617,o),
(481,490,o),
(481,334,cs),
(481,177,o),
(449,50,o),
(299,50,cs),
(187,50,l)
);
},
{
pos = (112,0);
ref = _serif.H;
},
{
pos = (112,667);
ref = _serif.H;
scale = (1,-1);
}
);
width = 599;
},
{
anchors = (
{
name = bottom;
pos = (299,0);
},
{
name = center;
pos = (150,334);
},
{
name = top;
pos = (299,667);
}
);
hints = (
{
horizontal = 1;
place = (15,105);
type = Stem;
},
{
horizontal = 1;
place = (622,105);
type = Stem;
},
{
place = (60,135);
type = Stem;
},
{
place = (450,135);
type = Stem;
}
);
layerId = m005;
shapes = (
{
closed = 1;
nodes = (
(299,0,ls),
(489,0,o),
(578,144,o),
(578,334,cs),
(578,522,o),
(489,667,o),
(299,667,cs),
(99,667,l),
(99,0,l)
);
},
{
closed = 1;
nodes = (
(199,617,l),
(299,617,ls),
(434,617,o),
(468,495,o),
(468,334,cs),
(468,172,o),
(434,50,o),
(299,50,cs),
(199,50,l)
);
},
{
pos = (99,0);
ref = _serif.H;
},
{
pos = (99,667);
ref = _serif.H;
scale = (1,-1);
}
);
width = 598;
},
{
anchors = (
{
name = bottom;
pos = (327,0);
},
{
name = center;
pos = (164,334);
},
{
name = top;
pos = (327,667);
}
);
layerId = m006;
shapes = (
{
closed = 1;
nodes = (
(344,0,ls),
(541,0,o),
(634,93,o),
(634,334,cs),
(634,574,o),
(541,667,o),
(344,667,cs),
(69,667,l),
(69,0,l)
);
},
{
closed = 1;
nodes = (
(269,577,l),
(344,577,ls),
(408,577,o),
(434,520,o),
(434,334,cs),
(434,147,o),
(408,90,o),
(344,90,cs),
(269,90,l)
);
},
{
pos = (69,0);
ref = _serif.H;
},
{
pos = (69,667);
ref = _serif.H;
scale = (1,-1);
}
);
width = 644;
},
{
anchors = (
{
name = bottom;
pos = (313,0);
},
{
name = center;
pos = (157,334);
},
{
name = top;
pos = (313,667);
}
);
layerId = m007;
shapes = (
{
closed = 1;
nodes = (
(299,0,ls),
(482,0,o),
(566,146,o),
(566,334,cs),
(566,520,o),
(482,667,o),
(299,667,cs),
(112,667,l),
(112,0,l)
);
},
{
closed = 1;
nodes = (
(187,629,l),
(299,629,ls),
(449,629,o),
(481,502,o),
(481,334,cs),
(481,165,o),
(449,38,o),
(299,38,cs),
(187,38,l)
);
},
{
pos = (112,0);
ref = _serif.H;
},
{
pos = (112,667);
ref = _serif.H;
scale = (1,-1);
}
);
width = 599;
},
{
anchors = (
{
name = bottom;
pos = (299,0);
},
{
name = center;
pos = (150,334);
},
{
name = top;
pos = (299,667);
}
);
hints = (
{
horizontal = 1;
place = (15,105);
type = Stem;
},
{
horizontal = 1;
place = (622,105);
type = Stem;
},
{
place = (60,135);
type = Stem;
},
{
place = (450,135);
type = Stem;
}
);
layerId = m008;
shapes = (
{
closed = 1;
nodes = (
(299,0,ls),
(489,0,o),
(578,144,o),
(578,334,cs),
(578,522,o),
(489,667,o),
(299,667,cs),
(99,667,l),
(99,0,l)
);
},
{
closed = 1;
nodes = (
(199,623,l),
(299,623,ls),
(434,623,o),
(468,501,o),
(468,334,cs),
(468,166,o),
(434,44,o),
(299,44,cs),
(199,44,l)
);
},
{
pos = (99,0);
ref = _serif.H;
},
{
pos = (99,667);
ref = _serif.H;
scale = (1,-1);
}
);
width = 598;
},
{
anchors = (
{
name = bottom;
pos = (327,0);
},
{
name = center;
pos = (164,334);
},
{
name = top;
pos = (327,667);
}
);
layerId = m009;
shapes = (
{
closed = 1;
nodes = (
(344,0,ls),
(541,0,o),
(634,93,o),
(634,334,cs),
(634,574,o),
(541,667,o),
(344,667,cs),
(69,667,l),
(69,0,l)
);
},
{
closed = 1;
nodes = (
(269,602,l),
(344,602,ls),
(408,602,o),
(434,545,o),
(434,334,cs),
(434,122,o),
(408,65,o),
(344,65,cs),
(269,65,l)
);
},
{
pos = (69,0);
ref = _serif.H;
},
{
pos = (69,667);
ref = _serif.H;
scale = (1,-1);
}
);
width = 644;
}
);
metricLeft = "=H";
metricRight = "=O";
note = O;
unicode = 68;
}
{
glyphname = F;
layers = (
{
layerId = m004;
shapes = (
{
closed = 1;
nodes = (
(482,667,l),
(112,667,l),
(112,0,l),
(187,0,l),
(187,315,l),
(422,315,l),
(422,365,l),
(187,365,l),
(187,617,l),
(482,617,l)
);
},
{
pos = (112,0);
ref = _serif.H;
},
{
pos = (112,667);
ref = _serif.H;
scale = (1,-1);
},
{
angle = 90;
pos = (422,365);
ref = _serif.H;
scale = (-1,1);
},
{
angle = 90;
pos = (422,315);
ref = _serif.H;
},
{
pos = (483,167);
ref = _serif.z;
scale = (-1,1);
},
{
pos = (187,0);
ref = _serif.H;
scale = (-1,1);
}
);
width = 520;
},
{
hints = (
{
horizontal = 1;
place = (25,100);
type = Stem;
},
{
horizontal = 1;
place = (330,99);
type = Stem;
},
{
horizontal = 1;
place = (617,100);
type = Stem;
},
{
place = (95,125);
type = Stem;
}
);
layerId = m005;
shapes = (
{
closed = 1;
nodes = (
(494,667,l),
(99,667,l),
(99,0,l),
(199,0,l),
(199,310,l),
(434,310,l),
(434,370,l),
(199,370,l),
(199,607,l),
(494,607,l)
);
},
{
pos = (99,0);
ref = _serif.H;
},
{
pos = (99,667);
ref = _serif.H;
scale = (1,-1);
},
{
angle = 90;
pos = (434,370);
ref = _serif.H;
scale = (-1,1);
},
{
angle = 90;
pos = (434,310);
ref = _serif.H;
},
{
pos = (495,167);
ref = _serif.z;
scale = (-1,1);
},
{
pos = (199,0);
ref = _serif.H;
scale = (-1,1);
}
);
width = 525;
},
{
layerId = m006;
shapes = (
{
closed = 1;
nodes = (
(564,667,l),
(69,667,l),
(69,0,l),
(269,0,l),
(269,295,l),
(519,295,l),
(519,385,l),
(269,385,l),
(269,577,l),
(564,577,l)
);
},
{
pos = (69,0);
ref = _serif.H;
},
{
pos = (69,667);
ref = _serif.H;
scale = (1,-1);
},
{
angle = 90;
pos = (519,385);
ref = _serif.H;
scale = (-1,1);
},
{
angle = 90;
pos = (519,295);
ref = _serif.H;
},
{
pos = (565,167);
ref = _serif.z;
scale = (-1,1);
},
{
pos = (269,0);
ref = _serif.H;
scale = (-1,1);
}
);
width = 580;
},
{
layerId = m007;
shapes = (
{
closed = 1;
nodes = (
(482,667,l),
(112,667,l),
(112,0,l),
(187,0,l),
(187,321,l),
(422,321,l),
(422,359,l),
(187,359,l),
(187,629,l),
(482,629,l)
);
},
{
pos = (112,0);
ref = _serif.H;
},
{
pos = (112,667);
ref = _serif.H;
scale = (1,-1);
},
{
angle = 90;
pos = (422,359);
ref = _serif.H;
scale = (-1,1);
},
{
angle = 90;
pos = (422,321);
ref = _serif.H;
},
{
pos = (483,167);
ref = _serif.z;
scale = (-1,1);
},
{
pos = (187,0);
ref = _serif.H;
scale = (-1,1);
}
);
width = 520;
},
{
hints = (
{
horizontal = 1;
place = (25,100);
type = Stem;
},
{
horizontal = 1;
place = (330,99);
type = Stem;
},
{
horizontal = 1;
place = (617,100);
type = Stem;
},
{
place = (95,125);
type = Stem;
}
);
layerId = m008;
shapes = (
{
closed = 1;
nodes = (
(494,667,l),
(99,667,l),
(99,0,l),
(199,0,l),
(199,318,l),
(434,318,l),
(434,362,l),
(199,362,l),
(199,623,l),
(494,623,l)
);
},
{
pos = (99,0);
ref = _serif.H;
},
{
pos = (99,667);
ref = _serif.H;
scale = (1,-1);
},
{
angle = 90;
pos = (434,362);
ref = _serif.H;
scale = (-1,1);
},
{
angle = 90;
pos = (434,318);
ref = _serif.H;
},
{
pos = (495,167);
ref = _serif.z;
scale = (-1,1);
},
{
pos = (199,0);
ref = _serif.H;
scale = (-1,1);
}
);
width = 525;
},
{
layerId = m009;
shapes = (
{
closed = 1;
nodes = (
(564,667,l),
(69,667,l),
(69,0,l),
(269,0,l),
(269,310,l),
(519,310,l),
(519,370,l),
(269,370,l),
(269,607,l),
(564,607,l)
);
},
{
pos = (69,0);
ref = _serif.H;
},
{
pos = (69,667);
ref = _serif.H;
scale = (1,-1);
},
{
angle = 90;
pos = (519,370);
ref = _serif.H;
scale = (-1,1);
},
{
angle = 90;
pos = (519,310);
ref = _serif.H;
},
{
pos = (565,167);
ref = _serif.z;
scale = (-1,1);
},
{
pos = (269,0);
ref = _serif.H;
scale = (-1,1);
}
);
width = 580;
}
);
metricLeft = "=H";
metricRight = "=H/2";
note = E;
unicode = 70;
}
{
glyphname = Q;
layers = (
{
layerId = m004;
shapes = (
{
ref = O;
},
{
closed = 1;
nodes = (
(274,0,l),
(274,-121,o),
(346,-200,o),
(458,-200,c),
(483,-200,o),
(483,-175,o),
(458,-175,c),
(372,-175,o),
(324,-112,o),
(324,0,c)
);
}
);
width = 598;
},
{
hints = (
{
horizontal = 1;
place = (-175,95);
type = Stem;
},
{
horizontal = 1;
place = (18,21);
target = up;
type = BottomGhost;
},
{
horizontal = 1;
place = (622,105);
type = Stem;
},
{
place = (60,135);
type = Stem;
},
{
place = (450,135);
type = Stem;
},
{
horizontal = 1;
place = (18,102);
type = Stem;
}
);
layerId = m005;
shapes = (
{
ref = O;
},
{
closed = 1;
nodes = (
(254,0,l),
(254,-121,o),
(338,-200,o),
(468,-200,cs),
(518,-200,o),
(518,-150,o),
(468,-150,cs),
(388,-150,o),
(344,-96,o),
(344,0,c)
);
}
);
width = 597;
},
{
layerId = m006;
shapes = (
{
ref = O;
},
{
closed = 1;
nodes = (
(263,0,l),
(263,-121,o),
(367,-200,o),
(527,-200,cs),
(602,-200,o),
(602,-110,o),
(527,-110,cs),
(454,-110,o),
(413,-71,o),
(413,0,c)
);
}
);
width = 677;
},
{
layerId = m007;
shapes = (
{
ref = O;
},
{
closed = 1;
nodes = (
(274,0,l),
(274,-121,o),
(346,-200,o),
(458,-200,c),
(483,-200,o),
(483,-175,o),
(458,-175,c),
(372,-175,o),
(324,-112,o),
(324,0,c)
);
}
);
width = 598;
},
{
hints = (
{
horizontal = 1;
place = (-175,95);
type = Stem;
},
{
horizontal = 1;
place = (18,21);
target = up;
type = BottomGhost;
},
{
horizontal = 1;
place = (622,105);
type = Stem;
},
{
place = (60,135);
type = Stem;
},
{
place = (450,135);
type = Stem;
},
{
horizontal = 1;
place = (18,102);
type = Stem;
}
);
layerId = m008;
shapes = (
{
ref = O;
},
{
closed = 1;
nodes = (
(253,0,l),
(253,-121,o),
(337,-200,o),
(467,-200,cs),
(517,-200,o),
(517,-150,o),
(467,-150,cs),
(387,-150,o),
(343,-96,o),
(343,0,c)
);
}
);
width = 597;
},
{
layerId = m009;
shapes = (
{
ref = O;
},
{
closed = 1;
nodes = (
(263,0,l),
(263,-121,o),
(367,-200,o),
(527,-200,cs),
(602,-200,o),
(602,-110,o),
(527,-110,cs),
(454,-110,o),
(413,-71,o),
(413,0,c)
);
}
);
width = 677;
}
);
metricLeft = "=O";
metricRight = "=O";
note = Q;
unicode = 81;
}
{
glyphname = R;
layers = (
{
anchors = (
{
name = bottom;
pos = (193,0);
},
{
name = top;
pos = (193,667);
}
);
layerId = m004;
shapes = (
{
closed = 1;
nodes = (
(187,0,l),
(187,315,l),
(294,315,ls),
(443,315,o),
(522,377,o),
(522,491,cs),
(522,605,o),
(443,667,o),
(294,667,cs),
(112,667,l),
(112,0,l)
);
},
{
closed = 1;
nodes = (
(537,0,l),
(513,181,o),
(427,286,o),
(379,324,c),
(294,315,l),
(294,315,o),
(430,223,o),
(461,0,c)
);
},
{
closed = 1;
nodes = (
(188,617,l),
(295,617,ls),
(399,617,o),
(448,575,o),
(448,491,cs),
(448,408,o),
(399,365,o),
(295,365,cs),
(188,365,l)
);
},
{
pos = (112,0);
ref = _serif.H;
},
{
pos = (187,0);
ref = _serif.H;
scale = (-1,1);
},
{
pos = (112,667);
ref = _serif.H;
scale = (1,-1);
},
{
closed = 1;
nodes = (
(466,0,l),
(443,85,l),
(450,60,o),
(456,35,o),
(406,35,cs),
(394,35,o),
(387,26,o),
(387,18,cs),
(387,9,o),
(394,0,o),
(406,0,cs)
);
},
{
closed = 1;
nodes = (
(582,0,ls),
(594,0,o),
(601,9,o),
(601,18,cs),
(601,26,o),
(594,35,o),
(582,35,cs),
(532,35,o),
(528,60,o),
(520,85,c),
(522,0,l)
);
}
);
width = 623;
},
{
anchors = (
{
name = bottom;
pos = (315,0);
},
{
name = top;
pos = (315,667);
}
);
hints = (
{
horizontal = 1;
place = (25,21);
target = up;
type = BottomGhost;
},
{
horizontal = 1;
place = (307,92);
type = Stem;
},
{
horizontal = 1;
place = (623,94);
type = Stem;
},
{
place = (95,125);
type = Stem;
},
{
place = (431,124);
type = Stem;
}
);
layerId = m005;
shapes = (
{
closed = 1;
nodes = (
(199,0,l),
(199,315,l),
(294,315,ls),
(448,315,o),
(534,378,o),
(534,491,cs),
(534,604,o),
(448,667,o),
(294,667,cs),
(99,667,l),
(99,0,l)
);
},
{
closed = 1;
nodes = (
(549,0,l),
(519,230,o),
(386,325,o),
(386,325,c),
(289,315,l),
(289,318,o),
(419,210,o),
(449,0,c)
);
},
{
closed = 1;
nodes = (
(200,607,l),
(295,607,ls),
(390,607,o),
(435,567,o),
(435,491,cs),
(435,416,o),
(390,375,o),
(295,375,cs),
(200,375,l)
);
},
{
pos = (99,0);
ref = _serif.H;
},
{
pos = (199,0);
ref = _serif.H;
scale = (-1,1);
},
{
pos = (99,667);
ref = _serif.H;
scale = (1,-1);
},
{
closed = 1;
nodes = (
(463,0,l),
(431,85,l),
(438,60,o),
(443,35,o),
(393,35,c),
(381,35,o),
(374,26,o),
(374,18,cs),
(374,9,o),
(381,0,o),
(393,0,c)
);
},
{
closed = 1;
nodes = (
(595,0,l),
(607,0,o),
(614,9,o),
(614,18,cs),
(614,26,o),
(607,35,o),
(595,35,c),
(545,35,o),
(540,60,o),
(532,85,c),
(535,0,l)
);
}
);
width = 629;
},
{
anchors = (
{
name = bottom;
pos = (357,0);
},
{
name = top;
pos = (357,667);
}
);
layerId = m006;
shapes = (
{
closed = 1;
nodes = (
(269,0,l),
(269,295,l),
(314,295,ls),
(500,295,o),
(604,361,o),
(604,481,cs),
(604,601,o),
(500,667,o),
(314,667,cs),
(69,667,l),
(69,0,l)
);
},
{
closed = 1;
nodes = (
(649,0,l),
(619,230,o),
(486,328,o),
(486,328,c),
(289,300,l),
(289,300,o),
(419,210,o),
(449,0,c)
);
},
{
closed = 1;
nodes = (
(270,577,l),
(315,577,ls),
(376,577,o),
(405,546,o),
(405,481,cs),
(405,416,o),
(376,385,o),
(315,385,cs),
(270,385,l)
);
},
{
pos = (69,0);
ref = _serif.H;
},
{
pos = (269,0);
ref = _serif.H;
scale = (-1,1);
},
{
pos = (69,667);
ref = _serif.H;
scale = (1,-1);
},
{
closed = 1;
nodes = (
(463,0,l),
(430,85,l),
(437,60,o),
(443,35,o),
(393,35,cs),
(381,35,o),
(374,26,o),
(374,18,cs),
(374,9,o),
(381,0,o),
(393,0,cs)
);
},
{
closed = 1;
nodes = (
(694,0,ls),
(706,0,o),
(713,9,o),
(713,18,cs),
(713,26,o),
(706,35,o),
(694,35,cs),
(644,35,o),
(640,60,o),
(632,85,c),
(634,0,l)
);
}
);
width = 713;
},
{
anchors = (
{
name = bottom;
pos = (193,0);
},
{
name = top;
pos = (193,667);
}
);
layerId = m007;
shapes = (
{
closed = 1;
nodes = (
(187,0,l),
(187,315,l),
(294,315,ls),
(443,315,o),
(522,377,o),
(522,491,cs),
(522,605,o),
(443,667,o),
(294,667,cs),
(112,667,l),
(112,0,l)
);
},
{
closed = 1;
nodes = (
(537,0,l),
(513,181,o),
(427,286,o),
(379,324,c),
(294,315,l),
(294,315,o),
(430,223,o),
(461,0,c)
);
},
{
closed = 1;
nodes = (
(188,629,l),
(295,629,ls),
(399,629,o),
(448,587,o),
(448,491,cs),
(448,396,o),
(399,353,o),
(295,353,cs),
(188,353,l)
);
},
{
pos = (112,0);
ref = _serif.H;
},
{
pos = (187,0);
ref = _serif.H;
scale = (-1,1);
},
{
pos = (112,667);
ref = _serif.H;
scale = (1,-1);
},
{
closed = 1;
nodes = (
(466,0,l),
(443,85,l),
(450,60,o),
(457,25,o),
(407,25,cs),
(395,25,o),
(388,21,o),
(388,13,cs),
(388,4,o),
(395,0,o),
(407,0,cs)
);
},
{
closed = 1;
nodes = (
(584,0,ls),
(596,0,o),
(603,4,o),
(603,13,cs),
(603,21,o),
(596,25,o),
(584,25,cs),
(534,25,o),
(528,60,o),
(520,85,c),
(522,0,l)
);
}
);
width = 625;
},
{
anchors = (
{
name = bottom;
pos = (315,0);
},
{
name = top;
pos = (315,667);
}
);
hints = (
{
horizontal = 1;
place = (25,21);
target = up;
type = BottomGhost;
},
{
horizontal = 1;
place = (307,92);
type = Stem;
},
{
horizontal = 1;
place = (623,94);
type = Stem;
},
{
place = (95,125);
type = Stem;
},
{
place = (431,124);
type = Stem;
}
);
layerId = m008;
shapes = (
{
closed = 1;
nodes = (
(199,0,l),
(199,315,l),
(294,315,ls),
(448,315,o),
(534,378,o),
(534,491,cs),
(534,604,o),
(448,667,o),
(294,667,cs),
(99,667,l),
(99,0,l)
);
},
{
closed = 1;
nodes = (
(549,0,l),
(519,230,o),
(386,325,o),
(386,325,c),
(289,315,l),
(289,318,o),
(419,210,o),
(449,0,c)
);
},
{
closed = 1;
nodes = (
(200,623,l),
(295,623,ls),
(390,623,o),
(435,583,o),
(435,491,cs),
(435,400,o),
(390,359,o),
(295,359,cs),
(200,359,l)
);
},
{
pos = (99,0);
ref = _serif.H;
},
{
pos = (199,0);
ref = _serif.H;
scale = (-1,1);
},
{
pos = (99,667);
ref = _serif.H;
scale = (1,-1);
},
{
closed = 1;
nodes = (
(463,0,l),
(431,85,l),
(438,60,o),
(445,25,o),
(395,25,c),
(383,25,o),
(376,21,o),
(376,13,cs),
(376,4,o),
(383,0,o),
(395,0,c)
);
},
{
closed = 1;
nodes = (
(595,0,l),
(607,0,o),
(614,4,o),
(614,13,cs),
(614,21,o),
(607,25,o),
(595,25,c),
(545,25,o),
(540,60,o),
(532,85,c),
(535,0,l)
);
}
);
width = 629;
},
{
anchors = (
{
name = bottom;
pos = (357,0);
},
{
name = top;
pos = (357,667);
}
);
layerId = m009;
shapes = (
{
closed = 1;
nodes = (
(269,0,l),
(269,295,l),
(314,295,ls),
(500,295,o),
(604,361,o),
(604,481,cs),
(604,601,o),
(500,667,o),
(314,667,cs),
(69,667,l),
(69,0,l)
);
},
{
closed = 1;
nodes = (
(649,0,l),
(619,230,o),
(486,328,o),
(486,328,c),
(289,300,l),
(289,300,o),
(419,210,o),
(449,0,c)
);
},
{
closed = 1;
nodes = (
(270,607,l),
(315,607,ls),
(376,607,o),
(405,576,o),
(405,481,cs),
(405,386,o),
(376,355,o),
(315,355,cs),
(270,355,l)
);
},
{
pos = (69,0);
ref = _serif.H;
},
{
pos = (269,0);
ref = _serif.H;
scale = (-1,1);
},
{
pos = (69,667);
ref = _serif.H;
scale = (1,-1);
},
{
closed = 1;
nodes = (
(463,0,l),
(430,85,l),
(437,60,o),
(445,25,o),
(395,25,cs),
(383,25,o),
(376,21,o),
(376,13,cs),
(376,4,o),
(383,0,o),
(395,0,cs)
);
},
{
closed = 1;
nodes = (
(696,0,ls),
(708,0,o),
(715,4,o),
(715,13,cs),
(715,21,o),
(708,25,o),
(696,25,cs),
(646,25,o),
(640,60,o),
(632,85,c),
(634,0,l)
);
}
);
width = 715;
}
);
metricLeft = "=H";
metricRight = "=H/2";
note = P;
unicode = 82;
}
{
glyphname = S;
layers = (
{
anchors = (
{
name = bottom;
pos = (202,0);
},
{
name = top;
pos = (202,667);
}
);
layerId = m004;
shapes = (
{
closed = 1;
nodes = (
(419,301,o),
(355,352,o),
(225,388,cs),
(141,411,o),
(99,453,o),
(99,515,cs),
(99,581,o),
(138,626,o),
(202,627,c),
(202,677,l),
(104,677,o),
(44,604,o),
(44,499,cs),
(44,397,o),
(103,340,o),
(201,313,cs),
(301,286,o),
(354,242,o),
(354,180,cs),
(354,97,o),
(295,40,o),
(198,40,c),
(198,-10,l),
(340,-10,o),
(419,78,o),
(419,200,cs)
);
},
{
closed = 1;
nodes = (
(198,40,l),
(94,40,o),
(83,150,o),
(58,150,cs),
(33,150,o),
(31,106,o),
(34,30,c),
(89,1,o),
(142,-10,o),
(198,-10,c)
);
},
{
closed = 1;
nodes = (
(356,533,o),
(369,584,o),
(369,640,c),
(369,640,o),
(289,677,o),
(202,677,c),
(202,627,l),
(306,626,o),
(306,533,o),
(331,533,cs)
);
}
);
width = 452;
},
{
anchors = (
{
name = bottom;
pos = (207,0);
},
{
name = top;
pos = (207,667);
}
);
hints = (
{
horizontal = 1;
place = (15,110);
type = Stem;
},
{
horizontal = 1;
place = (622,105);
type = Stem;
},
{
place = (66,115);
type = Stem;
},
{
place = (356,135);
type = Stem;
}
);
layerId = m005;
shapes = (
{
closed = 1;
nodes = (
(430,298,o),
(365,362,o),
(227,400,cs),
(152,421,o),
(110,462,o),
(110,515,cs),
(110,573,o),
(148,617,o),
(207,617,c),
(207,677,l),
(100,677,o),
(30,607,o),
(30,499,cs),
(30,400,o),
(90,329,o),
(197,300,cs),
(289,275,o),
(340,232,o),
(340,180,cs),
(340,105,o),
(284,50,o),
(197,50,c),
(197,-10,l),
(338,-10,o),
(430,73,o),
(430,200,cs)
);
},
{
closed = 1;
nodes = (
(197,50,l),
(102,50,o),
(82,150,o),
(57,150,cs),
(32,150,o),
(18,108,o),
(20,33,c),
(73,5,o),
(137,-10,o),
(197,-10,c)
);
},
{
closed = 1;
nodes = (
(355,533,o),
(368,584,o),
(368,640,c),
(368,640,o),
(288,677,o),
(207,677,c),
(207,617,l),
(292,617,o),
(305,533,o),
(330,533,cs)
);
}
);
width = 450;
},
{
anchors = (
{
name = bottom;
pos = (237,0);
},
{
name = top;
pos = (237,667);
}
);
layerId = m006;
shapes = (
{
closed = 1;
nodes = (
(510,328,o),
(447,386,o),
(257,430,cs),
(214,440,o),
(190,472,o),
(190,520,cs),
(190,563,o),
(207,587,o),
(237,587,c),
(237,677,l),
(113,677,o),
(20,601,o),
(20,499,cs),
(20,383,o),
(87,309,o),
(227,270,cs),
(283,254,o),
(310,222,o),
(310,170,cs),
(310,109,o),
(283,80,o),
(227,80,c),
(227,-10,l),
(399,-10,o),
(510,73,o),
(510,200,cs)
);
},
{
closed = 1;
nodes = (
(227,80,l),
(163,80,o),
(103,170,o),
(67,170,cs),
(31,170,o),
(-9,100,o),
(20,31,c),
(73,0,o),
(167,-10,o),
(227,-10,c)
);
},
{
closed = 1;
nodes = (
(404,493,o),
(437,554,o),
(437,596,cs),
(437,637,o),
(337,677,o),
(237,677,c),
(237,587,l),
(301,587,o),
(302,493,o),
(362,493,cs)
);
}
);
width = 520;
},
{
anchors = (
{
name = bottom;
pos = (202,0);
},
{
name = top;
pos = (202,667);
}
);
layerId = m007;
shapes = (
{
closed = 1;
nodes = (
(419,301,o),
(355,352,o),
(225,388,cs),
(141,411,o),
(99,453,o),
(99,515,cs),
(99,593,o),
(138,638,o),
(202,639,c),
(202,677,l),
(104,677,o),
(44,604,o),
(44,499,cs),
(44,397,o),
(103,340,o),
(201,313,cs),
(301,286,o),
(354,242,o),
(354,180,cs),
(354,85,o),
(295,28,o),
(198,28,c),
(198,-10,l),
(340,-10,o),
(419,78,o),
(419,200,cs)
);
},
{
closed = 1;
nodes = (
(198,28,l),
(94,28,o),
(83,150,o),
(58,150,cs),
(33,150,o),
(31,106,o),
(34,30,c),
(89,1,o),
(142,-10,o),
(198,-10,c)
);
},
{
closed = 1;
nodes = (
(356,533,o),
(369,584,o),
(369,640,c),
(369,640,o),
(289,677,o),
(202,677,c),
(202,639,l),
(306,638,o),
(306,533,o),
(331,533,cs)
);
}
);
width = 452;
},
{
anchors = (
{
name = bottom;
pos = (207,0);
},
{
name = top;
pos = (207,667);
}
);
hints = (
{
horizontal = 1;
place = (15,110);
type = Stem;
},
{
horizontal = 1;
place = (622,105);
type = Stem;
},
{
place = (66,115);
type = Stem;
},
{
place = (356,135);
type = Stem;
}
);
layerId = m008;
shapes = (
{
closed = 1;
nodes = (
(430,298,o),
(365,362,o),
(227,400,cs),
(152,421,o),
(110,462,o),
(110,515,cs),
(110,589,o),
(148,633,o),
(207,633,c),
(207,677,l),
(100,677,o),
(30,607,o),
(30,499,cs),
(30,400,o),
(90,329,o),
(197,300,cs),
(289,275,o),
(340,232,o),
(340,180,cs),
(340,89,o),
(284,34,o),
(197,34,c),
(197,-10,l),
(338,-10,o),
(430,73,o),
(430,200,cs)
);
},
{
closed = 1;
nodes = (
(197,34,l),
(102,34,o),
(82,150,o),
(57,150,cs),
(32,150,o),
(18,108,o),
(20,33,c),
(73,5,o),
(137,-10,o),
(197,-10,c)
);
},
{
closed = 1;
nodes = (
(355,533,o),
(368,584,o),
(368,640,c),
(368,640,o),
(288,677,o),
(207,677,c),
(207,633,l),
(292,633,o),
(305,533,o),
(330,533,cs)
);
}
);
width = 450;
},
{
anchors = (
{
name = bottom;
pos = (237,0);
},
{
name = top;
pos = (237,667);
}
);
layerId = m009;
shapes = (
{
closed = 1;
nodes = (
(510,328,o),
(447,386,o),
(257,430,cs),
(214,440,o),
(190,472,o),
(190,535,cs),
(190,593,o),
(207,617,o),
(237,617,c),
(237,677,l),
(113,677,o),
(20,601,o),
(20,499,cs),
(20,383,o),
(87,309,o),
(227,270,cs),
(283,254,o),
(310,222,o),
(310,155,cs),
(310,79,o),
(283,50,o),
(227,50,c),
(227,-10,l),
(399,-10,o),
(510,73,o),
(510,200,cs)
);
},
{
closed = 1;
nodes = (
(227,50,l),
(163,50,o),
(103,170,o),
(67,170,cs),
(31,170,o),
(-9,100,o),
(20,31,c),
(73,0,o),
(167,-10,o),
(227,-10,c)
);
},
{
closed = 1;
nodes = (
(404,493,o),
(437,554,o),
(437,596,cs),
(437,637,o),
(337,677,o),
(237,677,c),
(237,617,l),
(301,617,o),
(302,493,o),
(362,493,cs)
);
}
);
width = 520;
}
);
metricLeft = "=O";
metricRight = "=O";
note = S;
unicode = 83;
}
{
glyphname = T;
kernRight = T;
layers = (
{
layerId = m004;
shapes = (
{
closed = 1;
nodes = (
(283,617,l),
(458,617,l),
(458,667,l),
(33,667,l),
(33,617,l),
(208,617,l),
(208,0,l),
(283,0,l)
);
},
{
pos = (32,167);
ref = _serif.z;
},
{
pos = (458,167);
ref = _serif.z;
scale = (-1,1);
},
{
pos = (208,0);
ref = _serif.H;
},
{
pos = (283,0);
ref = _serif.H;
scale = (-1,1);
}
);
width = 490;
},
{
hints = (
{
horizontal = 1;
place = (25,21);
target = up;
type = BottomGhost;
},
{
place = (95,125);
type = Stem;
}
);
layerId = m005;
shapes = (
{
closed = 1;
nodes = (
(300,607,l),
(475,607,l),
(475,667,l),
(25,667,l),
(25,607,l),
(200,607,l),
(200,0,l),
(300,0,l)
);
},
{
pos = (25,167);
ref = _serif.z;
},
{
pos = (475,167);
ref = _serif.z;
scale = (-1,1);
},
{
pos = (200,0);
ref = _serif.H;
},
{
pos = (300,0);
ref = _serif.H;
scale = (-1,1);
}
);
width = 500;
},
{
layerId = m006;
shapes = (
{
closed = 1;
nodes = (
(395,592,l),
(570,592,l),
(570,667,l),
(20,667,l),
(20,592,l),
(195,592,l),
(195,0,l),
(395,0,l)
);
},
{
pos = (20,167);
ref = _serif.z;
},
{
pos = (570,167);
ref = _serif.z;
scale = (-1,1);
},
{
pos = (195,0);
ref = _serif.H;
},
{
pos = (395,0);
ref = _serif.H;
scale = (-1,1);
}
);
width = 590;
},
{
layerId = m007;
shapes = (
{
closed = 1;
nodes = (
(283,629,l),
(458,629,l),
(458,667,l),
(33,667,l),
(33,629,l),
(208,629,l),
(208,0,l),
(283,0,l)
);
},
{
pos = (32,167);
ref = _serif.z;
},
{
pos = (458,167);
ref = _serif.z;
scale = (-1,1);
},
{
pos = (208,0);
ref = _serif.H;
},
{
pos = (283,0);
ref = _serif.H;
scale = (-1,1);
}
);
width = 490;
},
{
hints = (
{
horizontal = 1;
place = (25,21);
target = up;
type = BottomGhost;
},
{
place = (95,125);
type = Stem;
}
);
layerId = m008;
shapes = (
{
closed = 1;
nodes = (
(300,623,l),
(475,623,l),
(475,667,l),
(25,667,l),
(25,623,l),
(200,623,l),
(200,0,l),
(300,0,l)
);
},
{
pos = (25,167);
ref = _serif.z;
},
{
pos = (475,167);
ref = _serif.z;
scale = (-1,1);
},
{
pos = (200,0);
ref = _serif.H;
},
{
pos = (300,0);
ref = _serif.H;
scale = (-1,1);
}
);
width = 500;
},
{
layerId = m009;
shapes = (
{
closed = 1;
nodes = (
(395,617,l),
(570,617,l),
(570,667,l),
(20,667,l),
(20,617,l),
(195,617,l),
(195,0,l),
(395,0,l)
);
},
{
pos = (20,167);
ref = _serif.z;
},
{
pos = (570,167);
ref = _serif.z;
scale = (-1,1);
},
{
pos = (195,0);
ref = _serif.H;
},
{
pos = (395,0);
ref = _serif.H;
scale = (-1,1);
}
);
width = 590;
}
);
metricLeft = "=O/2";
metricRight = "=O/2";
note = I;
unicode = 84;
}
{
glyphname = U;
layers = (
{
anchors = (
{
name = bottom;
pos = (329,0);
},
{
name = ogonek;
pos = (551,10);
},
{
name = top;
pos = (329,667);
},
{
name = topright;
pos = (593,667);
}
);
layerId = m004;
shapes = (
{
closed = 1;
nodes = (
(91,667,l),
(91,270,ls),
(91,90,o),
(163,-10,o),
(329,-10,cs),
(482,-10,o),
(529,90,o),
(529,270,cs),
(529,667,l),
(479,667,l),
(479,270,ls),
(479,122,o),
(449,40,o),
(329,40,cs),
(206,40,o),
(166,109,o),
(166,270,cs),
(166,667,l)
);
},
{
pos = (479,667);
ref = _serif.H;
scale = (1,-1);
},
{
angle = 180;
pos = (529,667);
ref = _serif.H;
},
{
pos = (91,667);
ref = _serif.H;
scale = (1,-1);
},
{
angle = 180;
pos = (166,667);
ref = _serif.H;
}
);
width = 620;
},
{
anchors = (
{
name = bottom;
pos = (334,0);
},
{
name = ogonek;
pos = (556,10);
},
{
name = top;
pos = (334,667);
},
{
name = topright;
pos = (598,667);
}
);
hints = (
{
horizontal = 1;
place = (15,110);
type = Stem;
},
{
place = (75,130);
type = Stem;
},
{
place = (440,130);
type = Stem;
}
);
layerId = m005;
shapes = (
{
closed = 1;
nodes = (
(84,667,l),
(84,270,ls),
(84,90,o),
(156,-10,o),
(334,-10,cs),
(487,-10,o),
(534,90,o),
(534,270,cs),
(534,667,l),
(474,667,l),
(474,270,ls),
(474,132,o),
(444,50,o),
(334,50,cs),
(224,50,o),
(184,119,o),
(184,270,cs),
(184,667,l)
);
},
{
pos = (474,667);
ref = _serif.H;
scale = (1,-1);
},
{
angle = 180;
pos = (534,667);
ref = _serif.H;
},
{
pos = (84,667);
ref = _serif.H;
scale = (1,-1);
},
{
angle = 180;
pos = (184,667);
ref = _serif.H;
}
);
width = 618;
},
{
anchors = (
{
name = bottom;
pos = (381,0);
},
{
name = ogonek;
pos = (591,10);
},
{
name = top;
pos = (381,667);
},
{
name = topright;
pos = (633,667);
}
);
layerId = m006;
shapes = (
{
closed = 1;
nodes = (
(69,667,l),
(69,270,ls),
(69,90,o),
(141,-10,o),
(381,-10,cs),
(522,-10,o),
(569,90,o),
(569,270,cs),
(569,667,l),
(479,667,l),
(479,270,ls),
(479,149,o),
(463,80,o),
(381,80,cs),
(299,80,o),
(269,149,o),
(269,270,cs),
(269,667,l)
);
},
{
pos = (479,667);
ref = _serif.H;
scale = (1,-1);
},
{
angle = 180;
pos = (569,667);
ref = _serif.H;
},
{
pos = (69,667);
ref = _serif.H;
scale = (1,-1);
},
{
angle = 180;
pos = (269,667);
ref = _serif.H;
}
);
width = 638;
},
{
anchors = (
{
name = bottom;
pos = (329,0);
},
{
name = ogonek;
pos = (551,10);
},
{
name = top;
pos = (329,667);
},
{
name = topright;
pos = (593,667);
}
);
layerId = m007;
shapes = (
{
closed = 1;
nodes = (
(91,667,l),
(91,270,ls),
(91,90,o),
(163,-10,o),
(329,-10,cs),
(482,-10,o),
(529,90,o),
(529,270,cs),
(529,667,l),
(491,667,l),
(491,270,ls),
(491,110,o),
(451,28,o),
(329,28,cs),
(206,28,o),
(166,97,o),
(166,270,cs),
(166,667,l)
);
},
{
pos = (491,667);
ref = _serif.H;
scale = (1,-1);
},
{
angle = 180;
pos = (529,667);
ref = _serif.H;
},
{
pos = (91,667);
ref = _serif.H;
scale = (1,-1);
},
{
angle = 180;
pos = (166,667);
ref = _serif.H;
}
);
width = 620;
},
{
anchors = (
{
name = bottom;
pos = (334,0);
},
{
name = ogonek;
pos = (556,10);
},
{
name = top;
pos = (334,667);
},
{
name = topright;
pos = (598,667);
}
);
hints = (
{
horizontal = 1;
place = (15,110);
type = Stem;
},
{
place = (75,130);
type = Stem;
},
{
place = (440,130);
type = Stem;
}
);
layerId = m008;
shapes = (
{
closed = 1;
nodes = (
(84,667,l),
(84,270,ls),
(84,90,o),
(156,-10,o),
(334,-10,cs),
(487,-10,o),
(534,90,o),
(534,270,cs),
(534,667,l),
(490,667,l),
(490,270,ls),
(490,116,o),
(460,34,o),
(334,34,cs),
(224,34,o),
(184,103,o),
(184,270,cs),
(184,667,l)
);
},
{
pos = (490,667);
ref = _serif.H;
scale = (1,-1);
},
{
angle = 180;
pos = (534,667);
ref = _serif.H;
},
{
pos = (84,667);
ref = _serif.H;
scale = (1,-1);
},
{
angle = 180;
pos = (184,667);
ref = _serif.H;
}
);
width = 618;
},
{
anchors = (
{
name = bottom;
pos = (381,0);
},
{
name = ogonek;
pos = (591,10);
},
{
name = top;
pos = (381,667);
},
{
name = topright;
pos = (633,667);
}
);
layerId = m009;
shapes = (
{
closed = 1;
nodes = (
(69,667,l),
(69,270,ls),
(69,90,o),
(141,-10,o),
(381,-10,cs),
(522,-10,o),
(569,90,o),
(569,270,cs),
(569,667,l),
(509,667,l),
(509,270,ls),
(509,119,o),
(473,50,o),
(381,50,cs),
(299,50,o),
(269,119,o),
(269,270,cs),
(269,667,l)
);
},
{
pos = (509,667);
ref = _serif.H;
scale = (1,-1);
},
{
angle = 180;
pos = (569,667);
ref = _serif.H;
},
{
pos = (69,667);
ref = _serif.H;
scale = (1,-1);
},
{
angle = 180;
pos = (269,667);
ref = _serif.H;
}
);
width = 638;
}
);
metricLeft = "=H/2";
metricRight = "=H/2";
note = U;
unicode = 85;
}
{
glyphname = V;
kernLeft = V;
kernRight = V;
layers = (
{
anchors = (
{
name = bottom;
pos = (319,0);
},
{
name = top;
pos = (319,667);
}
);
layerId = m004;
shapes = (
{
closed = 1;
nodes = (
(280,181,o),
(224,437,o),
(183,667,c),
(98,667,l),
(143,468,o),
(187,213,o),
(265,14,cs),
(269,4,o),
(276,0,o),
(286,0,cs),
(341,0,ls),
(351,0,o),
(358,4,o),
(362,14,cs),
(441,213,o),
(494,468,o),
(539,667,c),
(475,667,l),
(434,437,o),
(378,181,o),
(329,55,c)
);
},
{
closed = 1;
nodes = (
(407,667,o),
(400,658,o),
(400,649,cs),
(400,641,o),
(407,632,o),
(419,632,c),
(469,632,o),
(465,608,o),
(460,584,c),
(489,667,l),
(419,667,l)
);
},
{
closed = 1;
nodes = (
(521,667,l),
(520,583,l),
(526,607,o),
(531,632,o),
(581,632,c),
(593,632,o),
(600,641,o),
(600,649,cs),
(600,658,o),
(593,667,o),
(581,667,c)
);
},
{
closed = 1;
nodes = (
(44,667,o),
(37,658,o),
(37,649,cs),
(37,641,o),
(44,632,o),
(56,632,c),
(106,632,o),
(112,607,o),
(117,583,c),
(116,667,l),
(56,667,l)
);
},
{
closed = 1;
nodes = (
(169,667,l),
(198,583,l),
(194,607,o),
(189,632,o),
(239,632,c),
(251,632,o),
(258,641,o),
(258,649,cs),
(258,658,o),
(251,667,o),
(239,667,c)
);
}
);
width = 637;
},
{
anchors = (
{
name = bottom;
pos = (305,0);
},
{
name = top;
pos = (305,667);
}
);
hints = (
{
horizontal = 1;
place = (25,21);
target = up;
type = BottomGhost;
},
{
horizontal = 1;
place = (175,100);
type = Stem;
},
{
horizontal = 1;
place = (582,135);
type = Stem;
},
{
place = (37,541);
type = Stem;
}
);
layerId = m005;
shapes = (
{
closed = 1;
nodes = (
(274,181,o),
(218,437,o),
(177,667,c),
(67,667,l),
(112,468,o),
(156,213,o),
(234,14,cs),
(238,4,o),
(245,0,o),
(255,0,cs),
(345,0,ls),
(355,0,o),
(362,4,o),
(366,14,cs),
(445,213,o),
(498,468,o),
(543,667,c),
(469,667,l),
(428,437,o),
(372,181,o),
(323,55,c)
);
},
{
closed = 1;
nodes = (
(401,667,o),
(394,658,o),
(394,649,cs),
(394,641,o),
(401,632,o),
(413,632,c),
(463,632,o),
(459,608,o),
(454,584,c),
(483,667,l),
(413,667,l)
);
},
{
closed = 1;
nodes = (
(525,667,l),
(524,583,l),
(530,607,o),
(535,632,o),
(585,632,c),
(597,632,o),
(604,641,o),
(604,649,cs),
(604,658,o),
(597,667,o),
(585,667,c)
);
},
{
closed = 1;
nodes = (
(13,667,o),
(6,658,o),
(6,649,cs),
(6,641,o),
(13,632,o),
(25,632,c),
(75,632,o),
(81,607,o),
(86,583,c),
(85,667,l),
(25,667,l)
);
},
{
closed = 1;
nodes = (
(163,667,l),
(192,583,l),
(188,607,o),
(183,632,o),
(233,632,c),
(245,632,o),
(252,641,o),
(252,649,cs),
(252,658,o),
(245,667,o),
(233,667,c)
);
}
);
width = 610;
},
{
anchors = (
{
name = bottom;
pos = (364,0);
},
{
name = top;
pos = (364,667);
}
);
layerId = m006;
shapes = (
{
closed = 1;
nodes = (
(368,181,o),
(312,437,o),
(271,667,c),
(61,667,l),
(106,468,o),
(150,213,o),
(228,14,cs),
(232,4,o),
(239,0,o),
(249,0,cs),
(469,0,ls),
(479,0,o),
(486,4,o),
(490,14,cs),
(569,213,o),
(622,468,o),
(667,667,c),
(563,667,l),
(522,437,o),
(466,181,o),
(417,55,c)
);
},
{
closed = 1;
nodes = (
(495,667,o),
(488,658,o),
(488,649,cs),
(488,641,o),
(495,632,o),
(507,632,c),
(557,632,o),
(553,608,o),
(548,584,c),
(577,667,l),
(507,667,l)
);
},
{
closed = 1;
nodes = (
(649,667,l),
(648,583,l),
(654,607,o),
(659,632,o),
(709,632,c),
(721,632,o),
(728,641,o),
(728,649,cs),
(728,658,o),
(721,667,o),
(709,667,c)
);
},
{
closed = 1;
nodes = (
(7,667,o),
(0,658,o),
(0,649,cs),
(0,641,o),
(7,632,o),
(19,632,c),
(69,632,o),
(75,607,o),
(80,583,c),
(79,667,l),
(19,667,l)
);
},
{
closed = 1;
nodes = (
(257,667,l),
(286,583,l),
(282,607,o),
(277,632,o),
(327,632,c),
(339,632,o),
(346,641,o),
(346,649,cs),
(346,658,o),
(339,667,o),
(327,667,c)
);
}
);
width = 728;
},
{
anchors = (
{
name = bottom;
pos = (313,0);
},
{
name = top;
pos = (313,667);
}
);
layerId = m007;
shapes = (
{
closed = 1;
nodes = (
(280,181,o),
(224,437,o),
(183,667,c),
(98,667,l),
(143,466,o),
(188,210,o),
(267,10,cs),
(270,3,o),
(275,0,o),
(282,0,cs),
(333,0,ls),
(340,0,o),
(345,3,o),
(348,10,cs),
(428,210,o),
(482,466,o),
(527,667,c),
(475,667,l),
(434,437,o),
(378,181,o),
(329,55,c)
);
},
{
closed = 1;
nodes = (
(407,667,o),
(400,663,o),
(400,654,cs),
(400,646,o),
(407,642,o),
(419,642,c),
(469,642,o),
(465,608,o),
(460,584,c),
(489,667,l),
(419,667,l)
);
},
{
closed = 1;
nodes = (
(509,667,l),
(508,583,l),
(514,607,o),
(519,642,o),
(569,642,c),
(581,642,o),
(588,646,o),
(588,654,cs),
(588,663,o),
(581,667,o),
(569,667,c)
);
},
{
closed = 1;
nodes = (
(44,667,o),
(37,663,o),
(37,654,cs),
(37,646,o),
(44,642,o),
(56,642,c),
(106,642,o),
(112,607,o),
(117,583,c),
(116,667,l),
(56,667,l)
);
},
{
closed = 1;
nodes = (
(169,667,l),
(198,583,l),
(194,607,o),
(189,642,o),
(239,642,c),
(251,642,o),
(258,646,o),
(258,654,cs),
(258,663,o),
(251,667,o),
(239,667,c)
);
}
);
width = 625;
},
{
anchors = (
{
name = bottom;
pos = (289,0);
},
{
name = top;
pos = (289,667);
}
);
hints = (
{
horizontal = 1;
place = (25,21);
target = up;
type = BottomGhost;
},
{
horizontal = 1;
place = (175,100);
type = Stem;
},
{
horizontal = 1;
place = (582,135);
type = Stem;
},
{
place = (37,541);
type = Stem;
}
);
layerId = m008;
shapes = (
{
closed = 1;
nodes = (
(268,181,o),
(212,437,o),
(171,667,c),
(61,667,l),
(106,466,o),
(151,210,o),
(230,10,cs),
(233,3,o),
(238,0,o),
(245,0,cs),
(326,0,ls),
(333,0,o),
(338,3,o),
(341,10,cs),
(421,210,o),
(472,466,o),
(517,667,c),
(463,667,l),
(422,437,o),
(366,181,o),
(317,55,c)
);
},
{
closed = 1;
nodes = (
(395,667,o),
(388,663,o),
(388,654,cs),
(388,646,o),
(395,642,o),
(407,642,c),
(457,642,o),
(453,608,o),
(448,584,c),
(477,667,l),
(407,667,l)
);
},
{
closed = 1;
nodes = (
(499,667,l),
(498,583,l),
(504,607,o),
(509,642,o),
(559,642,c),
(571,642,o),
(578,646,o),
(578,654,cs),
(578,663,o),
(571,667,o),
(559,667,c)
);
},
{
closed = 1;
nodes = (
(7,667,o),
(0,663,o),
(0,654,cs),
(0,646,o),
(7,642,o),
(19,642,c),
(69,642,o),
(75,607,o),
(80,583,c),
(79,667,l),
(19,667,l)
);
},
{
closed = 1;
nodes = (
(157,667,l),
(186,583,l),
(182,607,o),
(177,642,o),
(227,642,c),
(239,642,o),
(246,646,o),
(246,654,cs),
(246,663,o),
(239,667,o),
(227,667,c)
);
}
);
width = 578;
},
{
anchors = (
{
name = bottom;
pos = (349,0);
},
{
name = top;
pos = (349,667);
}
);
layerId = m009;
shapes = (
{
closed = 1;
nodes = (
(368,181,o),
(312,437,o),
(271,667,c),
(61,667,l),
(106,466,o),
(151,210,o),
(230,10,cs),
(233,3,o),
(238,0,o),
(245,0,cs),
(443,0,ls),
(450,0,o),
(455,3,o),
(458,10,cs),
(538,210,o),
(592,466,o),
(637,667,c),
(563,667,l),
(522,437,o),
(466,181,o),
(417,55,c)
);
},
{
closed = 1;
nodes = (
(495,667,o),
(488,663,o),
(488,654,cs),
(488,646,o),
(495,642,o),
(507,642,c),
(557,642,o),
(553,608,o),
(548,584,c),
(577,667,l),
(507,667,l)
);
},
{
closed = 1;
nodes = (
(619,667,l),
(618,583,l),
(624,607,o),
(629,642,o),
(679,642,c),
(691,642,o),
(698,646,o),
(698,654,cs),
(698,663,o),
(691,667,o),
(679,667,c)
);
},
{
closed = 1;
nodes = (
(7,667,o),
(0,663,o),
(0,654,cs),
(0,646,o),
(7,642,o),
(19,642,c),
(69,642,o),
(75,607,o),
(80,583,c),
(79,667,l),
(19,667,l)
);
},
{
closed = 1;
nodes = (
(257,667,l),
(286,583,l),
(282,607,o),
(277,642,o),
(327,642,c),
(339,642,o),
(346,646,o),
(346,654,cs),
(346,663,o),
(339,667,o),
(327,667,c)
);
}
);
width = 698;
}
);
metricLeft = "=W";
metricRight = "=W";
note = A;
unicode = 86;
}
{
glyphname = X;
layers = (
{
anchors = (
{
name = bottom;
pos = (297,0);
},
{
name = top;
pos = (297,667);
}
);
layerId = m004;
shapes = (
{
closed = 1;
nodes = (
(373,667,o),
(366,658,o),
(366,649,cs),
(366,641,o),
(373,632,o),
(385,632,c),
(435,632,o),
(422,608,o),
(408,584,c),
(465,667,l),
(385,667,l)
);
},
{
closed = 1;
nodes = (
(488,667,l),
(469,583,l),
(484,607,o),
(498,632,o),
(548,632,c),
(560,632,o),
(567,641,o),
(567,649,cs),
(567,658,o),
(560,667,o),
(548,667,c)
);
},
{
closed = 1;
nodes = (
(24,667,o),
(17,658,o),
(17,649,cs),
(17,641,o),
(24,632,o),
(36,632,c),
(86,632,o),
(102,607,o),
(115,583,c),
(96,667,l),
(36,667,l)
);
},
{
closed = 1;
nodes = (
(151,667,l),
(209,583,l),
(197,607,o),
(181,632,o),
(231,632,c),
(243,632,o),
(250,641,o),
(250,649,cs),
(250,658,o),
(243,667,o),
(231,667,c)
);
},
{
closed = 1;
nodes = (
(231,222,o),
(387,445,o),
(519,667,c),
(457,667,l),
(325,445,o),
(169,222,o),
(62,0,c),
(124,0,l)
);
},
{
closed = 1;
nodes = (
(432,222,o),
(285,445,o),
(162,667,c),
(67,667,l),
(190,445,o),
(337,222,o),
(435,0,c),
(530,0,l)
);
},
{
closed = 1;
nodes = (
(208,0,o),
(215,9,o),
(215,18,cs),
(215,26,o),
(208,35,o),
(196,35,c),
(146,35,o),
(153,59,o),
(166,83,c),
(116,0,l),
(196,0,l)
);
},
{
closed = 1;
nodes = (
(93,0,l),
(105,84,l),
(91,60,o),
(83,35,o),
(33,35,c),
(21,35,o),
(14,26,o),
(14,18,cs),
(14,9,o),
(21,0,o),
(33,0,c)
);
},
{
closed = 1;
nodes = (
(572,0,o),
(579,9,o),
(579,18,cs),
(579,26,o),
(572,35,o),
(560,35,c),
(510,35,o),
(503,60,o),
(490,84,c),
(500,0,l),
(560,0,l)
);
},
{
closed = 1;
nodes = (
(446,0,l),
(396,84,l),
(408,60,o),
(416,35,o),
(366,35,c),
(354,35,o),
(347,26,o),
(347,18,cs),
(347,9,o),
(354,0,o),
(366,0,c)
);
}
);
width = 593;
},
{
anchors = (
{
name = bottom;
pos = (310,0);
},
{
name = top;
pos = (310,667);
}
);
hints = (
{
horizontal = 1;
place = (25,21);
target = up;
type = BottomGhost;
},
{
place = (46,523);
type = Stem;
}
);
layerId = m005;
shapes = (
{
closed = 1;
nodes = (
(394,667,o),
(387,658,o),
(387,649,cs),
(387,641,o),
(394,632,o),
(406,632,c),
(456,632,o),
(440,608,o),
(426,584,c),
(486,667,l),
(406,667,l)
);
},
{
closed = 1;
nodes = (
(519,667,l),
(496,583,l),
(511,607,o),
(529,632,o),
(579,632,c),
(591,632,o),
(598,641,o),
(598,649,cs),
(598,658,o),
(591,667,o),
(579,667,c)
);
},
{
closed = 1;
nodes = (
(30,667,o),
(23,658,o),
(23,649,cs),
(23,641,o),
(30,632,o),
(42,632,c),
(92,632,o),
(107,607,o),
(121,583,c),
(102,667,l),
(42,667,l)
);
},
{
closed = 1;
nodes = (
(182,667,l),
(240,583,l),
(228,607,o),
(212,632,o),
(262,632,c),
(274,632,o),
(281,641,o),
(281,649,cs),
(281,658,o),
(274,667,o),
(262,667,c)
);
},
{
closed = 1;
nodes = (
(245,222,o),
(410,445,o),
(550,667,c),
(478,667,l),
(338,445,o),
(173,222,o),
(58,0,c),
(130,0,l)
);
},
{
closed = 1;
nodes = (
(463,222,o),
(316,445,o),
(193,667,c),
(73,667,l),
(196,445,o),
(343,222,o),
(441,0,c),
(561,0,l)
);
},
{
closed = 1;
nodes = (
(214,0,o),
(221,9,o),
(221,18,cs),
(221,26,o),
(214,35,o),
(202,35,c),
(152,35,o),
(161,59,o),
(176,83,c),
(122,0,l),
(202,0,l)
);
},
{
closed = 1;
nodes = (
(89,0,l),
(104,84,l),
(89,60,o),
(79,35,o),
(29,35,c),
(17,35,o),
(10,26,o),
(10,18,cs),
(10,9,o),
(17,0,o),
(29,0,c)
);
},
{
closed = 1;
nodes = (
(603,0,o),
(610,9,o),
(610,18,cs),
(610,26,o),
(603,35,o),
(591,35,c),
(541,35,o),
(534,60,o),
(521,84,c),
(531,0,l),
(591,0,l)
);
},
{
closed = 1;
nodes = (
(452,0,l),
(402,84,l),
(414,60,o),
(422,35,o),
(372,35,c),
(360,35,o),
(353,26,o),
(353,18,cs),
(353,9,o),
(360,0,o),
(372,0,c)
);
}
);
width = 620;
},
{
anchors = (
{
name = bottom;
pos = (330,0);
},
{
name = top;
pos = (330,667);
}
);
layerId = m006;
shapes = (
{
closed = 1;
nodes = (
(414,667,o),
(407,658,o),
(407,649,cs),
(407,641,o),
(414,632,o),
(426,632,c),
(476,632,o),
(457,608,o),
(442,584,c),
(506,667,l),
(426,667,l)
);
},
{
closed = 1;
nodes = (
(569,667,l),
(542,583,l),
(558,607,o),
(579,632,o),
(629,632,c),
(641,632,o),
(648,641,o),
(648,649,cs),
(648,658,o),
(641,667,o),
(629,667,c)
);
},
{
closed = 1;
nodes = (
(20,667,o),
(13,658,o),
(13,649,cs),
(13,641,o),
(20,632,o),
(32,632,c),
(82,632,o),
(92,607,o),
(105,583,c),
(92,667,l),
(32,667,l)
);
},
{
closed = 1;
nodes = (
(272,667,l),
(325,583,l),
(313,607,o),
(302,632,o),
(352,632,c),
(364,632,o),
(371,641,o),
(371,649,cs),
(371,658,o),
(364,667,o),
(352,667,c)
);
},
{
closed = 1;
nodes = (
(275,222,o),
(450,445,o),
(600,667,c),
(498,667,l),
(348,445,o),
(173,222,o),
(48,0,c),
(150,0,l)
);
},
{
closed = 1;
nodes = (
(527,222,o),
(392,445,o),
(283,667,c),
(63,667,l),
(172,445,o),
(307,222,o),
(391,0,c),
(611,0,l)
);
},
{
closed = 1;
nodes = (
(234,0,o),
(241,9,o),
(241,18,cs),
(241,26,o),
(234,35,o),
(222,35,c),
(172,35,o),
(183,59,o),
(198,83,c),
(142,0,l),
(222,0,l)
);
},
{
closed = 1;
nodes = (
(79,0,l),
(98,84,l),
(82,60,o),
(69,35,o),
(19,35,c),
(7,35,o),
(0,26,o),
(0,18,cs),
(0,9,o),
(7,0,o),
(19,0,c)
);
},
{
closed = 1;
nodes = (
(653,0,o),
(660,9,o),
(660,18,cs),
(660,26,o),
(653,35,o),
(641,35,c),
(591,35,o),
(588,60,o),
(577,84,c),
(581,0,l),
(641,0,l)
);
},
{
closed = 1;
nodes = (
(402,0,l),
(357,84,l),
(368,60,o),
(372,35,o),
(322,35,c),
(310,35,o),
(303,26,o),
(303,18,cs),
(303,9,o),
(310,0,o),
(322,0,c)
);
}
);
width = 660;
},
{
anchors = (
{
name = bottom;
pos = (297,0);
},
{
name = top;
pos = (297,667);
}
);
layerId = m007;
shapes = (
{
closed = 1;
nodes = (
(385,667,o),
(378,664,o),
(378,655,cs),
(378,647,o),
(385,642,o),
(397,642,c),
(447,642,o),
(433,608,o),
(419,584,c),
(477,667,l),
(397,667,l)
);
},
{
closed = 1;
nodes = (
(488,667,l),
(467,583,l),
(482,607,o),
(498,642,o),
(548,642,c),
(560,642,o),
(567,647,o),
(567,655,cs),
(567,664,o),
(560,667,o),
(548,667,c)
);
},
{
closed = 1;
nodes = (
(24,667,o),
(17,664,o),
(17,655,cs),
(17,647,o),
(24,642,o),
(36,642,c),
(86,642,o),
(102,607,o),
(115,583,c),
(96,667,l),
(36,667,l)
);
},
{
closed = 1;
nodes = (
(151,667,l),
(208,583,l),
(196,607,o),
(181,642,o),
(231,642,c),
(243,642,o),
(250,647,o),
(250,655,cs),
(250,664,o),
(243,667,o),
(231,667,c)
);
},
{
closed = 1;
nodes = (
(219,222,o),
(387,445,o),
(519,667,c),
(469,667,l),
(337,445,o),
(169,222,o),
(62,0,c),
(112,0,l)
);
},
{
closed = 1;
nodes = (
(432,222,o),
(285,445,o),
(162,667,c),
(67,667,l),
(190,445,o),
(337,222,o),
(435,0,c),
(530,0,l)
);
},
{
closed = 1;
nodes = (
(196,0,o),
(203,4,o),
(203,13,cs),
(203,21,o),
(196,25,o),
(184,25,c),
(134,25,o),
(141,59,o),
(154,83,c),
(104,0,l),
(184,0,l)
);
},
{
closed = 1;
nodes = (
(93,0,l),
(105,84,l),
(91,60,o),
(83,25,o),
(33,25,c),
(21,25,o),
(14,21,o),
(14,13,cs),
(14,4,o),
(21,0,o),
(33,0,c)
);
},
{
closed = 1;
nodes = (
(572,0,o),
(579,4,o),
(579,13,cs),
(579,21,o),
(572,25,o),
(560,25,c),
(510,25,o),
(503,60,o),
(490,84,c),
(500,0,l),
(560,0,l)
);
},
{
closed = 1;
nodes = (
(446,0,l),
(396,84,l),
(408,60,o),
(416,25,o),
(366,25,c),
(354,25,o),
(347,21,o),
(347,13,cs),
(347,4,o),
(354,0,o),
(366,0,c)
);
}
);
width = 593;
},
{
anchors = (
{
name = bottom;
pos = (310,0);
},
{
name = top;
pos = (310,667);
}
);
hints = (
{
horizontal = 1;
place = (25,21);
target = up;
type = BottomGhost;
},
{
place = (46,523);
type = Stem;
}
);
layerId = m008;
shapes = (
{
closed = 1;
nodes = (
(410,667,o),
(403,663,o),
(403,654,cs),
(403,646,o),
(410,642,o),
(422,642,c),
(472,642,o),
(457,608,o),
(440,584,c),
(502,667,l),
(422,667,l)
);
},
{
closed = 1;
nodes = (
(519,667,l),
(495,583,l),
(512,607,o),
(529,642,o),
(579,642,c),
(591,642,o),
(598,646,o),
(598,654,cs),
(598,663,o),
(591,667,o),
(579,667,c)
);
},
{
closed = 1;
nodes = (
(30,667,o),
(23,663,o),
(23,654,cs),
(23,646,o),
(30,642,o),
(42,642,c),
(92,642,o),
(108,607,o),
(121,583,c),
(102,667,l),
(42,667,l)
);
},
{
closed = 1;
nodes = (
(182,667,l),
(240,583,l),
(227,607,o),
(212,642,o),
(262,642,c),
(274,642,o),
(281,646,o),
(281,654,cs),
(281,663,o),
(274,667,o),
(262,667,c)
);
},
{
closed = 1;
nodes = (
(229,222,o),
(410,445,o),
(550,667,c),
(494,667,l),
(354,445,o),
(173,222,o),
(58,0,c),
(114,0,l)
);
},
{
closed = 1;
nodes = (
(463,222,o),
(316,445,o),
(193,667,c),
(73,667,l),
(196,445,o),
(343,222,o),
(441,0,c),
(561,0,l)
);
},
{
closed = 1;
nodes = (
(198,0,o),
(205,4,o),
(205,13,cs),
(205,21,o),
(198,25,o),
(186,25,c),
(136,25,o),
(145,59,o),
(159,83,c),
(106,0,l),
(186,0,l)
);
},
{
closed = 1;
nodes = (
(89,0,l),
(105,84,l),
(89,60,o),
(79,25,o),
(29,25,c),
(17,25,o),
(10,21,o),
(10,13,cs),
(10,4,o),
(17,0,o),
(29,0,c)
);
},
{
closed = 1;
nodes = (
(603,0,o),
(610,4,o),
(610,13,cs),
(610,21,o),
(603,25,o),
(591,25,c),
(541,25,o),
(534,60,o),
(521,84,c),
(531,0,l),
(591,0,l)
);
},
{
closed = 1;
nodes = (
(452,0,l),
(402,84,l),
(415,60,o),
(422,25,o),
(372,25,c),
(360,25,o),
(353,21,o),
(353,13,cs),
(353,4,o),
(360,0,o),
(372,0,c)
);
}
);
width = 620;
},
{
anchors = (
{
name = bottom;
pos = (330,0);
},
{
name = top;
pos = (330,667);
}
);
layerId = m009;
shapes = (
{
closed = 1;
nodes = (
(444,667,o),
(437,663,o),
(437,654,cs),
(437,646,o),
(444,642,o),
(456,642,c),
(506,642,o),
(487,608,o),
(469,584,c),
(536,667,l),
(456,667,l)
);
},
{
closed = 1;
nodes = (
(569,667,l),
(541,583,l),
(559,607,o),
(579,642,o),
(629,642,c),
(641,642,o),
(648,646,o),
(648,654,cs),
(648,663,o),
(641,667,o),
(629,667,c)
);
},
{
closed = 1;
nodes = (
(20,667,o),
(13,663,o),
(13,654,cs),
(13,646,o),
(20,642,o),
(32,642,c),
(82,642,o),
(92,607,o),
(105,583,c),
(92,667,l),
(32,667,l)
);
},
{
closed = 1;
nodes = (
(272,667,l),
(325,583,l),
(313,607,o),
(302,642,o),
(352,642,c),
(364,642,o),
(371,646,o),
(371,654,cs),
(371,663,o),
(364,667,o),
(352,667,c)
);
},
{
closed = 1;
nodes = (
(245,222,o),
(450,445,o),
(600,667,c),
(528,667,l),
(378,445,o),
(173,222,o),
(48,0,c),
(120,0,l)
);
},
{
closed = 1;
nodes = (
(527,222,o),
(392,445,o),
(283,667,c),
(63,667,l),
(172,445,o),
(307,222,o),
(391,0,c),
(611,0,l)
);
},
{
closed = 1;
nodes = (
(204,0,o),
(211,4,o),
(211,13,cs),
(211,21,o),
(204,25,o),
(192,25,c),
(142,25,o),
(155,59,o),
(170,83,c),
(112,0,l),
(192,0,l)
);
},
{
closed = 1;
nodes = (
(79,0,l),
(99,84,l),
(83,60,o),
(69,25,o),
(19,25,c),
(7,25,o),
(0,21,o),
(0,13,cs),
(0,4,o),
(7,0,o),
(19,0,c)
);
},
{
closed = 1;
nodes = (
(653,0,o),
(660,4,o),
(660,13,cs),
(660,21,o),
(653,25,o),
(641,25,c),
(591,25,o),
(587,60,o),
(577,84,c),
(581,0,l),
(641,0,l)
);
},
{
closed = 1;
nodes = (
(402,0,l),
(357,84,l),
(368,60,o),
(372,25,o),
(322,25,c),
(310,25,o),
(303,21,o),
(303,13,cs),
(303,4,o),
(310,0,o),
(322,0,c)
);
}
);
width = 660;
}
);
metricLeft = "=H/3";
metricRight = "=H/3";
note = X;
unicode = 88;
}
{
glyphname = Y;
kernLeft = Y;
kernRight = Y;
layers = (
{
anchors = (
{
name = bottom;
pos = (329,0);
},
{
name = top;
pos = (329,667);
},
{
name = topleft;
pos = (23,667);
}
);
layerId = m004;
shapes = (
{
closed = 1;
nodes = (
(351,267,l),
(433,388,o),
(488,545,o),
(534,667,c),
(480,667,l),
(442,537,o),
(392,413,o),
(329,316,c),
(266,413,o),
(216,537,o),
(178,667,c),
(93,667,l),
(139,545,o),
(194,388,o),
(276,267,c)
);
},
{
closed = 1;
nodes = (
(350,0,l),
(351,267,l),
(276,267,l),
(275,0,l)
);
},
{
closed = 1;
nodes = (
(408,667,o),
(401,658,o),
(401,649,cs),
(401,641,o),
(408,632,o),
(420,632,c),
(470,632,o),
(461,608,o),
(454,584,c),
(490,667,l),
(420,667,l)
);
},
{
closed = 1;
nodes = (
(511,667,l),
(502,583,l),
(510,607,o),
(521,632,o),
(571,632,c),
(583,632,o),
(590,641,o),
(590,649,cs),
(590,658,o),
(583,667,o),
(571,667,c)
);
},
{
closed = 1;
nodes = (
(44,667,o),
(37,658,o),
(37,649,cs),
(37,641,o),
(44,632,o),
(56,632,c),
(106,632,o),
(116,607,o),
(125,583,c),
(116,667,l),
(56,667,l)
);
},
{
closed = 1;
nodes = (
(168,667,l),
(204,583,l),
(196,607,o),
(188,632,o),
(238,632,c),
(250,632,o),
(257,641,o),
(257,649,cs),
(257,658,o),
(250,667,o),
(238,667,c)
);
},
{
pos = (275,0);
ref = _serif.H;
},
{
pos = (350,0);
ref = _serif.H;
scale = (-1,1);
}
);
width = 627;
},
{
anchors = (
{
name = bottom;
pos = (313,0);
},
{
name = top;
pos = (313,667);
},
{
name = topleft;
pos = (7,667);
}
);
hints = (
{
horizontal = 1;
place = (25,21);
target = up;
type = BottomGhost;
},
{
place = (242,125);
type = Stem;
}
);
layerId = m005;
shapes = (
{
closed = 1;
nodes = (
(345,267,l),
(427,388,o),
(482,545,o),
(528,667,c),
(464,667,l),
(426,537,o),
(376,413,o),
(313,316,c),
(250,413,o),
(200,537,o),
(162,667,c),
(62,667,l),
(108,545,o),
(163,388,o),
(245,267,c)
);
},
{
closed = 1;
nodes = (
(344,0,l),
(345,267,l),
(245,267,l),
(244,0,l)
);
},
{
closed = 1;
nodes = (
(392,667,o),
(385,658,o),
(385,649,cs),
(385,641,o),
(392,632,o),
(404,632,c),
(454,632,o),
(445,608,o),
(438,584,c),
(474,667,l),
(404,667,l)
);
},
{
closed = 1;
nodes = (
(505,667,l),
(496,583,l),
(504,607,o),
(515,632,o),
(565,632,c),
(577,632,o),
(584,641,o),
(584,649,cs),
(584,658,o),
(577,667,o),
(565,667,c)
);
},
{
closed = 1;
nodes = (
(13,667,o),
(6,658,o),
(6,649,cs),
(6,641,o),
(13,632,o),
(25,632,c),
(75,632,o),
(85,607,o),
(94,583,c),
(85,667,l),
(25,667,l)
);
},
{
closed = 1;
nodes = (
(152,667,l),
(188,583,l),
(180,607,o),
(172,632,o),
(222,632,c),
(234,632,o),
(241,641,o),
(241,649,cs),
(241,658,o),
(234,667,o),
(222,667,c)
);
},
{
pos = (245,0);
ref = _serif.H;
},
{
pos = (344,0);
ref = _serif.H;
scale = (-1,1);
}
);
width = 590;
},
{
anchors = (
{
name = bottom;
pos = (398,0);
},
{
name = top;
pos = (398,667);
},
{
name = topleft;
pos = (14,667);
}
);
layerId = m006;
shapes = (
{
closed = 1;
nodes = (
(439,267,l),
(521,388,o),
(576,545,o),
(622,667,c),
(528,667,l),
(490,537,o),
(448,413,o),
(398,334,c),
(344,413,o),
(294,537,o),
(256,667,c),
(56,667,l),
(102,545,o),
(157,388,o),
(239,267,c)
);
},
{
closed = 1;
nodes = (
(438,0,l),
(439,267,l),
(239,267,l),
(238,0,l)
);
},
{
closed = 1;
nodes = (
(456,667,o),
(449,658,o),
(449,649,cs),
(449,641,o),
(456,632,o),
(468,632,c),
(518,632,o),
(510,608,o),
(503,584,c),
(538,667,l),
(468,667,l)
);
},
{
closed = 1;
nodes = (
(599,667,l),
(590,583,l),
(598,607,o),
(609,632,o),
(659,632,c),
(671,632,o),
(678,641,o),
(678,649,cs),
(678,658,o),
(671,667,o),
(659,667,c)
);
},
{
closed = 1;
nodes = (
(7,667,o),
(0,658,o),
(0,649,cs),
(0,641,o),
(7,632,o),
(19,632,c),
(69,632,o),
(79,607,o),
(88,583,c),
(79,667,l),
(19,667,l)
);
},
{
closed = 1;
nodes = (
(246,667,l),
(282,583,l),
(274,607,o),
(266,632,o),
(316,632,c),
(328,632,o),
(335,641,o),
(335,649,cs),
(335,658,o),
(328,667,o),
(316,667,c)
);
},
{
pos = (239,0);
ref = _serif.H;
},
{
pos = (438,0);
ref = _serif.H;
scale = (-1,1);
}
);
width = 678;
},
{
anchors = (
{
name = bottom;
pos = (334,0);
},
{
name = top;
pos = (334,667);
},
{
name = topleft;
pos = (23,667);
}
);
layerId = m007;
shapes = (
{
closed = 1;
nodes = (
(351,267,l),
(433,388,o),
(488,545,o),
(534,667,c),
(492,667,l),
(454,537,o),
(401,413,o),
(334,300,c),
(266,413,o),
(216,537,o),
(178,667,c),
(93,667,l),
(139,545,o),
(194,388,o),
(276,267,c)
);
},
{
closed = 1;
nodes = (
(350,0,l),
(351,267,l),
(276,267,l),
(275,0,l)
);
},
{
closed = 1;
nodes = (
(420,667,o),
(413,663,o),
(413,654,cs),
(413,646,o),
(420,642,o),
(432,642,c),
(482,642,o),
(473,608,o),
(466,584,c),
(502,667,l),
(432,667,l)
);
},
{
closed = 1;
nodes = (
(511,667,l),
(502,583,l),
(510,607,o),
(521,642,o),
(571,642,c),
(583,642,o),
(590,646,o),
(590,654,cs),
(590,663,o),
(583,667,o),
(571,667,c)
);
},
{
closed = 1;
nodes = (
(44,667,o),
(37,663,o),
(37,654,cs),
(37,646,o),
(44,642,o),
(56,642,c),
(106,642,o),
(116,607,o),
(125,583,c),
(116,667,l),
(56,667,l)
);
},
{
closed = 1;
nodes = (
(168,667,l),
(204,583,l),
(196,607,o),
(188,642,o),
(238,642,c),
(250,642,o),
(257,646,o),
(257,654,cs),
(257,663,o),
(250,667,o),
(238,667,c)
);
},
{
pos = (275,0);
ref = _serif.H;
},
{
pos = (350,0);
ref = _serif.H;
scale = (-1,1);
}
);
width = 627;
},
{
anchors = (
{
name = bottom;
pos = (313,0);
},
{
name = top;
pos = (313,667);
},
{
name = topleft;
pos = (1,667);
}
);
hints = (
{
horizontal = 1;
place = (25,21);
target = up;
type = BottomGhost;
},
{
place = (242,125);
type = Stem;
}
);
layerId = m008;
shapes = (
{
closed = 1;
nodes = (
(339,267,l),
(421,388,o),
(476,545,o),
(522,667,c),
(474,667,l),
(436,537,o),
(383,412,o),
(313,300,c),
(244,412,o),
(194,537,o),
(156,667,c),
(56,667,l),
(102,545,o),
(157,388,o),
(239,267,c)
);
},
{
closed = 1;
nodes = (
(338,0,l),
(339,267,l),
(239,267,l),
(238,0,l)
);
},
{
closed = 1;
nodes = (
(402,667,o),
(395,663,o),
(395,654,cs),
(395,646,o),
(402,642,o),
(414,642,c),
(464,642,o),
(455,608,o),
(448,584,c),
(484,667,l),
(414,667,l)
);
},
{
closed = 1;
nodes = (
(499,667,l),
(490,583,l),
(498,607,o),
(509,642,o),
(559,642,c),
(571,642,o),
(578,646,o),
(578,654,cs),
(578,663,o),
(571,667,o),
(559,667,c)
);
},
{
closed = 1;
nodes = (
(7,667,o),
(0,663,o),
(0,654,cs),
(0,646,o),
(7,642,o),
(19,642,c),
(69,642,o),
(79,607,o),
(88,583,c),
(79,667,l),
(19,667,l)
);
},
{
closed = 1;
nodes = (
(146,667,l),
(182,583,l),
(174,607,o),
(166,642,o),
(216,642,c),
(228,642,o),
(235,646,o),
(235,654,cs),
(235,663,o),
(228,667,o),
(216,667,c)
);
},
{
pos = (239,0);
ref = _serif.H;
},
{
pos = (338,0);
ref = _serif.H;
scale = (-1,1);
}
);
width = 578;
},
{
anchors = (
{
name = bottom;
pos = (407,0);
},
{
name = top;
pos = (407,667);
},
{
name = topleft;
pos = (14,667);
}
);
layerId = m009;
shapes = (
{
closed = 1;
nodes = (
(439,267,l),
(521,388,o),
(576,545,o),
(622,667,c),
(558,667,l),
(520,537,o),
(471,413,o),
(407,310,c),
(344,413,o),
(294,537,o),
(256,667,c),
(56,667,l),
(102,545,o),
(157,388,o),
(239,267,c)
);
},
{
closed = 1;
nodes = (
(438,0,l),
(439,267,l),
(239,267,l),
(238,0,l)
);
},
{
closed = 1;
nodes = (
(486,667,o),
(479,663,o),
(479,654,cs),
(479,646,o),
(486,642,o),
(498,642,c),
(548,642,o),
(540,608,o),
(533,584,c),
(568,667,l),
(498,667,l)
);
},
{
closed = 1;
nodes = (
(599,667,l),
(590,583,l),
(598,607,o),
(609,642,o),
(659,642,c),
(671,642,o),
(678,646,o),
(678,654,cs),
(678,663,o),
(671,667,o),
(659,667,c)
);
},
{
closed = 1;
nodes = (
(7,667,o),
(0,663,o),
(0,654,cs),
(0,646,o),
(7,642,o),
(19,642,c),
(69,642,o),
(79,607,o),
(88,583,c),
(79,667,l),
(19,667,l)
);
},
{
closed = 1;
nodes = (
(246,667,l),
(282,583,l),
(274,607,o),
(266,642,o),
(316,642,c),
(328,642,o),
(335,646,o),
(335,654,cs),
(335,663,o),
(328,667,o),
(316,667,c)
);
},
{
pos = (239,0);
ref = _serif.H;
},
{
pos = (438,0);
ref = _serif.H;
scale = (-1,1);
}
);
width = 678;
}
);
metricLeft = "=V";
metricRight = "=V";
note = Y;
unicode = 89;
}
{
glyphname = underscore;
kernRight = hyphen;
layers = (
{
layerId = m004;
shapes = (
{
closed = 1;
nodes = (
(401,-50,l),
(61,-50,l),
(61,-100,l),
(401,-100,l)
);
}
);
width = 460;
},
{
hints = (
{
horizontal = 1;
place = (-75,64);
type = Stem;
},
{
place = (80,400);
type = Stem;
}
);
layerId = m005;
shapes = (
{
closed = 1;
nodes = (
(440,-50,l),
(50,-50,l),
(50,-110,l),
(440,-110,l)
);
}
);
width = 490;
},
{
layerId = m006;
shapes = (
{
closed = 1;
nodes = (
(505,-50,l),
(15,-50,l),
(15,-140,l),
(505,-140,l)
);
}
);
width = 520;
},
{
layerId = m007;
shapes = (
{
closed = 1;
nodes = (
(401,-41,l),
(61,-41,l),
(61,-79,l),
(401,-79,l)
);
}
);
width = 461;
},
{
hints = (
{
horizontal = 1;
place = (-75,64);
type = Stem;
},
{
place = (80,400);
type = Stem;
}
);
layerId = m008;
shapes = (
{
closed = 1;
nodes = (
(440,-50,l),
(50,-50,l),
(50,-94,l),
(440,-94,l)
);
}
);
width = 490;
},
{
layerId = m009;
shapes = (
{
closed = 1;
nodes = (
(530,-50,l),
(40,-50,l),
(40,-110,l),
(530,-110,l)
);
}
);
width = 570;
}
);
metricLeft = "=period";
metricRight = "=period";
note = underscore;
unicode = 95;
}
{
glyphname = e;
kernLeft = o;
kernRight = o;
layers = (
{
anchors = (
{
name = bottom;
pos = (244,0);
},
{
name = ogonek;
pos = (372,22);
},
{
name = top;
pos = (244,500);
}
);
layerId = m004;
shapes = (
{
closed = 1;
nodes = (
(300,-10,o),
(335,0,o),
(372,22,cs),
(372,22,o),
(373,75,o),
(351,75,cs),
(332,75,o),
(302,40,o),
(244,40,cs),
(141,40,o),
(127,102,o),
(127,223,c),
(412,223,l),
(412,290,ls),
(412,395,o),
(380,500,o),
(244,500,cs),
(92,500,o),
(52,394,o),
(52,245,cs),
(52,96,o),
(92,-10,o),
(244,-10,cs)
);
},
{
closed = 1;
nodes = (
(127,290,ls),
(127,382,o),
(140,450,o),
(244,450,cs),
(328,450,o),
(337,362,o),
(337,290,cs),
(337,273,l),
(127,273,l)
);
}
);
width = 464;
},
{
anchors = (
{
name = bottom;
pos = (245,0);
},
{
name = ogonek;
pos = (391,40);
},
{
name = top;
pos = (245,500);
}
);
hints = (
{
horizontal = 1;
place = (15,100);
type = Stem;
},
{
horizontal = 1;
place = (240,90);
type = Stem;
},
{
horizontal = 1;
place = (465,95);
type = Stem;
},
{
place = (65,125);
type = Stem;
},
{
place = (350,125);
type = Stem;
}
);
layerId = m005;
shapes = (
{
closed = 1;
nodes = (
(332,-10,o),
(391,40,o),
(391,40,c),
(391,40,o),
(390,95,o),
(370,95,cs),
(343,95,o),
(320,50,o),
(245,50,cs),
(155,50,o),
(140,106,o),
(140,218,c),
(425,218,l),
(425,290,ls),
(425,395,o),
(391,500,o),
(245,500,cs),
(85,500,o),
(40,395,o),
(40,245,cs),
(40,95,o),
(85,-10,o),
(245,-10,cs)
);
},
{
closed = 1;
nodes = (
(140,290,ls),
(140,373,o),
(153,440,o),
(245,440,cs),
(314,440,o),
(325,353,o),
(325,290,cs),
(325,278,l),
(140,278,l)
);
}
);
width = 465;
},
{
anchors = (
{
name = bottom;
pos = (275,0);
},
{
name = ogonek;
pos = (481,40);
},
{
name = top;
pos = (275,500);
}
);
layerId = m006;
shapes = (
{
closed = 1;
nodes = (
(400,-10,o),
(481,40,o),
(481,40,c),
(481,40,o),
(505,150,o),
(447,150,c),
(389,150,o),
(345,65,o),
(275,65,cs),
(234,65,o),
(220,98,o),
(220,208,c),
(505,208,l),
(505,272,ls),
(505,427,o),
(448,500,o),
(275,500,cs),
(102,500,o),
(20,427,o),
(20,245,cs),
(20,63,o),
(102,-10,o),
(275,-10,cs)
);
},
{
closed = 1;
nodes = (
(220,295,ls),
(220,393,o),
(234,425,o),
(275,425,cs),
(316,425,o),
(330,393,o),
(330,295,cs),
(330,283,l),
(220,283,l)
);
}
);
width = 525;
},
{
anchors = (
{
name = bottom;
pos = (244,0);
},
{
name = ogonek;
pos = (372,22);
},
{
name = top;
pos = (244,500);
}
);
layerId = m007;
shapes = (
{
closed = 1;
nodes = (
(297,-10,o),
(332,6,o),
(372,22,cs),
(372,22,o),
(373,75,o),
(351,75,cs),
(333,75,o),
(302,28,o),
(244,28,cs),
(141,28,o),
(127,90,o),
(127,229,c),
(412,229,l),
(412,290,ls),
(412,395,o),
(380,500,o),
(244,500,cs),
(92,500,o),
(52,394,o),
(52,245,cs),
(52,96,o),
(92,-10,o),
(244,-10,cs)
);
},
{
closed = 1;
nodes = (
(127,290,ls),
(127,394,o),
(140,462,o),
(244,462,cs),
(328,462,o),
(337,374,o),
(337,290,cs),
(337,267,l),
(127,267,l)
);
}
);
width = 464;
},
{
anchors = (
{
name = bottom;
pos = (245,0);
},
{
name = ogonek;
pos = (391,40);
},
{
name = top;
pos = (245,450);
}
);
hints = (
{
horizontal = 1;
place = (15,100);
type = Stem;
},
{
horizontal = 1;
place = (240,90);
type = Stem;
},
{
horizontal = 1;
place = (465,95);
type = Stem;
},
{
place = (65,125);
type = Stem;
},
{
place = (350,125);
type = Stem;
}
);
layerId = m008;
shapes = (
{
closed = 1;
nodes = (
(332,-10,o),
(391,40,o),
(391,40,c),
(391,40,o),
(390,95,o),
(370,95,cs),
(343,95,o),
(320,34,o),
(245,34,cs),
(155,34,o),
(140,98,o),
(140,226,c),
(425,226,l),
(425,300,ls),
(425,395,o),
(391,500,o),
(245,500,cs),
(85,500,o),
(40,395,o),
(40,245,cs),
(40,95,o),
(85,-10,o),
(245,-10,cs)
);
},
{
closed = 1;
nodes = (
(140,300,ls),
(140,389,o),
(153,456,o),
(245,456,cs),
(314,456,o),
(325,369,o),
(325,300,cs),
(325,270,l),
(140,270,l)
);
}
);
width = 465;
},
{
anchors = (
{
name = bottom;
pos = (265,0);
},
{
name = ogonek;
pos = (471,40);
},
{
name = top;
pos = (265,500);
}
);
layerId = m009;
shapes = (
{
closed = 1;
nodes = (
(390,-10,o),
(471,40,o),
(471,40,c),
(471,40,o),
(495,150,o),
(437,150,c),
(379,150,o),
(335,40,o),
(265,40,cs),
(224,40,o),
(210,73,o),
(210,221,c),
(495,221,l),
(495,272,ls),
(495,427,o),
(438,500,o),
(265,500,cs),
(92,500,o),
(10,427,o),
(10,245,cs),
(10,63,o),
(92,-10,o),
(265,-10,cs)
);
},
{
closed = 1;
nodes = (
(210,295,ls),
(210,418,o),
(224,450,o),
(265,450,cs),
(306,450,o),
(320,418,o),
(320,295,cs),
(320,271,l),
(210,271,l)
);
}
);
width = 505;
}
);
metricLeft = "=o";
metricRight = "=o";
note = e;
unicode = 101;
}
{
glyphname = h;
layers = (
{
anchors = (
{
name = bottom;
pos = (281,0);
},
{
name = center;
pos = (141,560);
},
{
name = top;
pos = (281,700);
}
);
layerId = m004;
shapes = (
{
closed = 1;
nodes = (
(186,0,l),
(186,245,ls),
(186,358,o),
(239,450,o),
(313,450,cs),
(389,450,o),
(401,391,o),
(401,290,cs),
(401,0,l),
(476,0,l),
(476,290,ls),
(476,440,o),
(446,500,o),
(338,500,cs),
(257,500,o),
(218,440,o),
(197,440,cs),
(186,440,o),
(186,450,o),
(186,490,cs),
(186,700,l),
(111,700,l),
(111,0,l)
);
},
{
pos = (111,0);
ref = _serif.H;
},
{
pos = (401,0);
ref = _serif.H;
},
{
pos = (476,0);
ref = _serif.H;
scale = (-1,1);
},
{
pos = (186,0);
ref = _serif.H;
scale = (-1,1);
},
{
pos = (111,0);
ref = _serif.l;
}
);
width = 562;
},
{
anchors = (
{
name = bottom;
pos = (282,0);
},
{
name = center;
pos = (141,560);
},
{
name = top;
pos = (282,700);
}
);
hints = (
{
horizontal = 1;
place = (25,21);
target = up;
type = BottomGhost;
},
{
horizontal = 1;
place = (460,100);
type = Stem;
},
{
place = (85,120);
type = Stem;
},
{
place = (370,125);
type = Stem;
}
);
layerId = m005;
shapes = (
{
closed = 1;
nodes = (
(199,0,l),
(199,245,ls),
(199,370,o),
(239,440,o),
(314,440,cs),
(389,440,o),
(389,400,o),
(389,290,cs),
(389,0,l),
(489,0,l),
(489,290,ls),
(489,440,o),
(446,500,o),
(339,500,cs),
(250,500,o),
(218,450,o),
(209,450,cs),
(200,450,o),
(199,459,o),
(199,490,c),
(199,700,l),
(99,700,l),
(99,0,l)
);
},
{
pos = (99,0);
ref = _serif.H;
},
{
pos = (389,0);
ref = _serif.H;
},
{
pos = (489,0);
ref = _serif.H;
scale = (-1,1);
},
{
pos = (199,0);
ref = _serif.H;
scale = (-1,1);
},
{
pos = (99,0);
ref = _serif.l;
}
);
width = 563;
},
{
anchors = (
{
name = bottom;
pos = (324,0);
},
{
name = center;
pos = (162,560);
},
{
name = top;
pos = (324,700);
}
);
layerId = m006;
shapes = (
{
closed = 1;
nodes = (
(279,0,l),
(279,245,ls),
(279,376,o),
(298,425,o),
(339,425,cs),
(362,425,o),
(369,387,o),
(369,272,cs),
(369,0,l),
(569,0,l),
(569,272,ls),
(569,435,o),
(525,500,o),
(414,500,cs),
(335,500,o),
(298,468,o),
(289,468,cs),
(283,468,o),
(279,476,o),
(279,490,c),
(279,700,l),
(79,700,l),
(79,0,l)
);
},
{
pos = (79,0);
ref = _serif.H;
},
{
pos = (369,0);
ref = _serif.H;
},
{
pos = (569,0);
ref = _serif.H;
scale = (-1,1);
},
{
pos = (279,0);
ref = _serif.H;
scale = (-1,1);
},
{
pos = (79,0);
ref = _serif.l;
}
);
width = 648;
},
{
anchors = (
{
name = bottom;
pos = (281,0);
},
{
name = center;
pos = (141,560);
},
{
name = top;
pos = (281,700);
}
);
layerId = m007;
shapes = (
{
closed = 1;
nodes = (
(186,0,l),
(186,245,ls),
(186,373,o),
(239,462,o),
(313,462,cs),
(389,462,o),
(401,403,o),
(401,290,cs),
(401,0,l),
(476,0,l),
(476,290,ls),
(476,441,o),
(446,500,o),
(338,500,cs),
(257,500,o),
(218,440,o),
(197,440,cs),
(186,440,o),
(186,450,o),
(186,490,cs),
(186,700,l),
(111,700,l),
(111,0,l)
);
},
{
pos = (111,0);
ref = _serif.H;
},
{
pos = (401,0);
ref = _serif.H;
},
{
pos = (476,0);
ref = _serif.H;
scale = (-1,1);
},
{
pos = (186,0);
ref = _serif.H;
scale = (-1,1);
},
{
pos = (111,0);
ref = _serif.l;
}
);
width = 562;
},
{
anchors = (
{
name = bottom;
pos = (282,0);
},
{
name = center;
pos = (141,560);
},
{
name = top;
pos = (282,700);
}
);
hints = (
{
horizontal = 1;
place = (25,21);
target = up;
type = BottomGhost;
},
{
horizontal = 1;
place = (460,100);
type = Stem;
},
{
place = (85,120);
type = Stem;
},
{
place = (370,125);
type = Stem;
}
);
layerId = m008;
shapes = (
{
closed = 1;
nodes = (
(199,0,l),
(199,245,ls),
(199,386,o),
(239,456,o),
(314,456,cs),
(389,456,o),
(389,416,o),
(389,290,cs),
(389,0,l),
(489,0,l),
(489,290,ls),
(489,440,o),
(446,500,o),
(339,500,cs),
(250,500,o),
(218,450,o),
(209,450,cs),
(200,450,o),
(199,459,o),
(199,490,c),
(199,700,l),
(99,700,l),
(99,0,l)
);
},
{
pos = (99,0);
ref = _serif.H;
},
{
pos = (389,0);
ref = _serif.H;
},
{
pos = (489,0);
ref = _serif.H;
scale = (-1,1);
},
{
pos = (199,0);
ref = _serif.H;
scale = (-1,1);
},
{
pos = (99,0);
ref = _serif.l;
}
);
width = 563;
},
{
anchors = (
{
name = bottom;
pos = (314,0);
},
{
name = center;
pos = (152,560);
},
{
name = top;
pos = (314,700);
}
);
layerId = m009;
shapes = (
{
closed = 1;
nodes = (
(269,0,l),
(269,245,ls),
(269,401,o),
(288,450,o),
(329,450,cs),
(352,450,o),
(359,412,o),
(359,272,cs),
(359,0,l),
(559,0,l),
(559,272,ls),
(559,435,o),
(515,500,o),
(404,500,cs),
(325,500,o),
(288,468,o),
(279,468,cs),
(273,468,o),
(269,476,o),
(269,490,c),
(269,700,l),
(69,700,l),
(69,0,l)
);
},
{
pos = (69,0);
ref = _serif.H;
},
{
pos = (359,0);
ref = _serif.H;
},
{
pos = (559,0);
ref = _serif.H;
scale = (-1,1);
},
{
pos = (269,0);
ref = _serif.H;
scale = (-1,1);
},
{
pos = (69,0);
ref = _serif.l;
}
);
width = 628;
}
);
metricLeft = "=n";
metricRight = "=n";
note = h;
unicode = 104;
}
{
glyphname = i;
layers = (
{
anchors = (
{
name = bottom;
pos = (148,0);
}
);
layerId = m004;
shapes = (
{
closed = 1;
nodes = (
(186,0,l),
(186,480,l),
(111,480,l),
(111,0,l)
);
},
{
closed = 1;
nodes = (
(174,615,o),
(196,636,o),
(196,662,cs),
(196,688,o),
(174,710,o),
(148,710,cs),
(122,710,o),
(101,688,o),
(101,662,cs),
(101,636,o),
(122,615,o),
(148,615,cs)
);
},
{
pos = (111,0);
ref = _serif.H;
},
{
pos = (186,0);
ref = _serif.H;
scale = (-1,1);
},
{
pos = (111,0);
ref = _serif.i;
}
);
width = 272;
},
{
anchors = (
{
name = bottom;
pos = (149,0);
}
);
hints = (
{
horizontal = 1;
place = (25,21);
target = up;
type = BottomGhost;
},
{
horizontal = 1;
place = (610,145);
type = Stem;
},
{
place = (73,145);
type = Stem;
},
{
place = (85,120);
type = Stem;
}
);
layerId = m005;
shapes = (
{
closed = 1;
nodes = (
(199,0,l),
(199,480,l),
(99,480,l),
(99,0,l)
);
},
{
closed = 1;
nodes = (
(182,590,o),
(209,617,o),
(209,650,cs),
(209,683,o),
(182,710,o),
(149,710,cs),
(116,710,o),
(89,683,o),
(89,650,cs),
(89,617,o),
(116,590,o),
(149,590,cs)
);
},
{
pos = (99,0);
ref = _serif.H;
},
{
pos = (199,0);
ref = _serif.H;
scale = (-1,1);
},
{
pos = (99,0);
ref = _serif.i;
}
);
width = 273;
},
{
anchors = (
{
name = bottom;
pos = (179,0);
}
);
layerId = m006;
shapes = (
{
closed = 1;
nodes = (
(279,0,l),
(279,480,l),
(79,480,l),
(79,0,l)
);
},
{
closed = 1;
nodes = (
(241,515,o),
(289,559,o),
(289,615,cs),
(289,671,o),
(241,715,o),
(179,715,cs),
(117,715,o),
(69,671,o),
(69,615,cs),
(69,559,o),
(117,515,o),
(179,515,cs)
);
},
{
pos = (79,0);
ref = _serif.H;
},
{
pos = (279,0);
ref = _serif.H;
scale = (-1,1);
},
{
pos = (79,0);
ref = _serif.i;
}
);
width = 358;
},
{
anchors = (
{
name = bottom;
pos = (148,0);
}
);
layerId = m007;
shapes = (
{
closed = 1;
nodes = (
(186,0,l),
(186,479,l),
(111,480,l),
(111,0,l)
);
},
{
closed = 1;
nodes = (
(174,615,o),
(196,636,o),
(196,662,cs),
(196,688,o),
(174,710,o),
(148,710,cs),
(122,710,o),
(101,688,o),
(101,662,cs),
(101,636,o),
(122,615,o),
(148,615,cs)
);
},
{
pos = (111,0);
ref = _serif.H;
},
{
pos = (186,0);
ref = _serif.H;
scale = (-1,1);
},
{
pos = (111,0);
ref = _serif.i;
}
);
width = 272;
},
{
anchors = (
{
name = bottom;
pos = (149,0);
}
);
hints = (
{
horizontal = 1;
place = (25,21);
target = up;
type = BottomGhost;
},
{
horizontal = 1;
place = (610,145);
type = Stem;
},
{
place = (73,145);
type = Stem;
},
{
place = (85,120);
type = Stem;
}
);
layerId = m008;
shapes = (
{
closed = 1;
nodes = (
(199,0,l),
(199,480,l),
(99,480,l),
(99,0,l)
);
},
{
closed = 1;
nodes = (
(182,590,o),
(209,617,o),
(209,650,cs),
(209,683,o),
(182,710,o),
(149,710,cs),
(116,710,o),
(89,683,o),
(89,650,cs),
(89,617,o),
(116,590,o),
(149,590,cs)
);
},
{
pos = (99,0);
ref = _serif.H;
},
{
pos = (199,0);
ref = _serif.H;
scale = (-1,1);
},
{
pos = (99,0);
ref = _serif.i;
}
);
width = 273;
},
{
anchors = (
{
name = bottom;
pos = (169,0);
}
);
layerId = m009;
shapes = (
{
closed = 1;
nodes = (
(269,0,l),
(269,480,l),
(69,480,l),
(69,0,l)
);
},
{
closed = 1;
nodes = (
(231,515,o),
(279,559,o),
(279,615,cs),
(279,671,o),
(231,715,o),
(169,715,cs),
(107,715,o),
(59,671,o),
(59,615,cs),
(59,559,o),
(107,515,o),
(169,515,cs)
);
},
{
pos = (69,0);
ref = _serif.H;
},
{
pos = (269,0);
ref = _serif.H;
scale = (-1,1);
},
{
pos = (69,0);
ref = _serif.i;
}
);
width = 338;
}
);
metricLeft = "=n";
metricRight = "=n";
note = i;
unicode = 105;
}
{
glyphname = k;
layers = (
{
anchors = (
{
name = bottom;
pos = (292,0);
},
{
name = top;
pos = (292,700);
}
);
layerId = m004;
shapes = (
{
closed = 1;
nodes = (
(186,0,l),
(186,142,l),
(264,237,l),
(360,208,o),
(401,101,o),
(401,0,c),
(471,0,l),
(471,128,o),
(402,266,o),
(309,293,c),
(468,490,l),
(408,490,l),
(186,213,l),
(186,700,l),
(111,700,l),
(111,0,l)
);
},
{
closed = 1;
nodes = (
(410,0,l),
(391,82,ls),
(396,60,o),
(400,35,o),
(350,35,cs),
(338,35,o),
(331,26,o),
(331,18,cs),
(331,9,o),
(338,0,o),
(350,0,cs)
);
},
{
pos = (186,0);
ref = _serif.H;
scale = (-1,1);
},
{
pos = (111,0);
ref = _serif.l;
},
{
closed = 1;
nodes = (
(532,0,o),
(539,9,o),
(539,18,cs),
(539,26,o),
(532,35,o),
(520,35,cs),
(470,35,o),
(466,59,o),
(460,87,c),
(460,0,l),
(520,0,ls)
);
},
{
closed = 1;
nodes = (
(306,490,o),
(299,481,o),
(299,472,cs),
(299,464,o),
(306,455,o),
(318,455,cs),
(368,455,o),
(359,430,o),
(340,405,c),
(418,490,l),
(318,490,ls)
);
},
{
closed = 1;
nodes = (
(422,490,l),
(399,404,l),
(420,430,o),
(442,455,o),
(479,455,cs),
(491,455,o),
(498,464,o),
(498,472,cs),
(498,481,o),
(491,490,o),
(479,490,cs)
);
},
{
pos = (111,0);
ref = _serif.H;
}
);
width = 539;
},
{
anchors = (
{
name = bottom;
pos = (277,0);
},
{
name = top;
pos = (277,700);
}
);
hints = (
{
horizontal = 1;
place = (25,21);
target = up;
type = BottomGhost;
},
{
place = (85,120);
type = Stem;
},
{
place = (355,120);
type = Stem;
}
);
layerId = m005;
shapes = (
{
closed = 1;
nodes = (
(199,0,l),
(199,150,l),
(267,233,l),
(342,204,o),
(389,100,o),
(389,0,c),
(484,0,l),
(484,120,o),
(418,256,o),
(314,292,c),
(474,490,l),
(404,490,l),
(199,235,l),
(199,700,l),
(99,700,l),
(99,0,l)
);
},
{
closed = 1;
nodes = (
(399,0,l),
(380,82,l),
(385,60,o),
(389,35,o),
(339,35,c),
(327,35,o),
(320,26,o),
(320,18,cs),
(320,9,o),
(327,0,o),
(339,0,c)
);
},
{
pos = (199,0);
ref = _serif.H;
scale = (-1,1);
},
{
pos = (99,0);
ref = _serif.l;
},
{
closed = 1;
nodes = (
(546,0,o),
(553,9,o),
(553,18,cs),
(553,26,o),
(546,35,o),
(534,35,c),
(484,35,o),
(480,59,o),
(474,87,c),
(474,0,l),
(534,0,l)
);
},
{
closed = 1;
nodes = (
(302,490,o),
(295,481,o),
(295,472,cs),
(295,464,o),
(302,455,o),
(314,455,cs),
(364,455,o),
(355,430,o),
(336,405,c),
(414,490,l),
(314,490,l)
);
},
{
closed = 1;
nodes = (
(427,490,l),
(404,404,l),
(425,430,o),
(447,455,o),
(484,455,cs),
(496,455,o),
(503,464,o),
(503,472,cs),
(503,481,o),
(496,490,o),
(484,490,c)
);
},
{
pos = (99,0);
ref = _serif.H;
}
);
width = 553;
},
{
anchors = (
{
name = bottom;
pos = (318,0);
},
{
name = top;
pos = (318,700);
}
);
layerId = m006;
shapes = (
{
closed = 1;
nodes = (
(280,0,l),
(279,143,l),
(310,181,l),
(350,135,o),
(369,83,o),
(369,0,c),
(569,0,l),
(569,124,o),
(503,239,o),
(410,289,c),
(586,490,l),
(424,490,l),
(279,332,l),
(279,690,l),
(79,690,l),
(80,0,l)
);
},
{
closed = 1;
nodes = (
(380,0,l),
(361,82,l),
(366,60,o),
(370,35,o),
(320,35,c),
(308,35,o),
(301,26,o),
(301,18,cs),
(301,9,o),
(308,0,o),
(320,0,c)
);
},
{
pos = (280,0);
ref = _serif.H;
scale = (-1,1);
},
{
pos = (79,0);
ref = _serif.l;
},
{
closed = 1;
nodes = (
(629,0,o),
(636,9,o),
(636,18,cs),
(636,26,o),
(629,35,o),
(617,35,c),
(567,35,o),
(563,59,o),
(557,87,c),
(557,0,l),
(617,0,l)
);
},
{
closed = 1;
nodes = (
(312,490,o),
(305,481,o),
(305,472,cs),
(305,464,o),
(312,455,o),
(324,455,cs),
(374,455,o),
(369,430,o),
(346,405,c),
(424,490,l),
(324,490,l)
);
},
{
closed = 1;
nodes = (
(540,490,l),
(511,404,l),
(534,430,o),
(560,455,o),
(597,455,cs),
(609,455,o),
(616,464,o),
(616,472,cs),
(616,481,o),
(609,490,o),
(597,490,c)
);
},
{
pos = (79,0);
ref = _serif.H;
}
);
width = 636;
},
{
anchors = (
{
name = bottom;
pos = (292,0);
},
{
name = top;
pos = (292,700);
}
);
layerId = m007;
shapes = (
{
closed = 1;
nodes = (
(186,0,l),
(186,147,l),
(259,237,l),
(355,208,o),
(401,101,o),
(401,0,c),
(471,0,l),
(471,128,o),
(397,266,o),
(304,293,c),
(463,490,l),
(413,490,l),
(186,207,l),
(186,700,l),
(111,700,l),
(111,0,l)
);
},
{
closed = 1;
nodes = (
(410,0,l),
(391,82,ls),
(396,60,o),
(400,25,o),
(350,25,cs),
(338,25,o),
(331,21,o),
(331,13,cs),
(331,4,o),
(338,0,o),
(350,0,cs)
);
},
{
pos = (186,0);
ref = _serif.H;
scale = (-1,1);
},
{
pos = (111,0);
ref = _serif.l;
},
{
closed = 1;
nodes = (
(532,0,o),
(539,4,o),
(539,13,cs),
(539,21,o),
(532,25,o),
(520,25,cs),
(470,25,o),
(466,59,o),
(460,87,c),
(460,0,l),
(520,0,ls)
);
},
{
closed = 1;
nodes = (
(311,490,o),
(304,486,o),
(304,477,cs),
(304,469,o),
(311,465,o),
(323,465,cs),
(373,465,o),
(364,430,o),
(345,405,c),
(423,490,l),
(323,490,ls)
);
},
{
closed = 1;
nodes = (
(417,490,l),
(394,404,l),
(415,430,o),
(437,465,o),
(474,465,cs),
(486,465,o),
(493,469,o),
(493,477,cs),
(493,486,o),
(486,490,o),
(474,490,cs)
);
},
{
pos = (111,0);
ref = _serif.H;
}
);
width = 539;
},
{
anchors = (
{
name = bottom;
pos = (277,0);
},
{
name = top;
pos = (277,700);
}
);
hints = (
{
horizontal = 1;
place = (25,21);
target = up;
type = BottomGhost;
},
{
place = (85,120);
type = Stem;
},
{
place = (355,120);
type = Stem;
}
);
layerId = m008;
shapes = (
{
closed = 1;
nodes = (
(199,0,l),
(199,150,l),
(267,233,l),
(342,204,o),
(389,100,o),
(389,0,c),
(484,0,l),
(484,120,o),
(418,256,o),
(314,292,c),
(474,490,l),
(413,490,l),
(199,225,l),
(199,700,l),
(99,700,l),
(99,0,l)
);
},
{
closed = 1;
nodes = (
(399,0,l),
(380,82,l),
(385,60,o),
(389,25,o),
(339,25,c),
(327,25,o),
(320,21,o),
(320,13,cs),
(320,4,o),
(327,0,o),
(339,0,c)
);
},
{
pos = (199,0);
ref = _serif.H;
scale = (-1,1);
},
{
pos = (99,0);
ref = _serif.l;
},
{
closed = 1;
nodes = (
(546,0,o),
(553,4,o),
(553,13,cs),
(553,21,o),
(546,25,o),
(534,25,c),
(484,25,o),
(480,59,o),
(474,87,c),
(474,0,l),
(534,0,l)
);
},
{
closed = 1;
nodes = (
(302,490,o),
(295,486,o),
(295,477,cs),
(295,469,o),
(302,465,o),
(314,465,cs),
(364,465,o),
(355,420,o),
(336,395,c),
(414,490,l),
(314,490,l)
);
},
{
closed = 1;
nodes = (
(427,490,l),
(404,404,l),
(425,430,o),
(447,465,o),
(484,465,cs),
(496,465,o),
(503,469,o),
(503,477,cs),
(503,486,o),
(496,490,o),
(484,490,c)
);
},
{
pos = (99,0);
ref = _serif.H;
}
);
width = 553;
},
{
anchors = (
{
name = bottom;
pos = (308,0);
},
{
name = top;
pos = (308,700);
}
);
layerId = m009;
shapes = (
{
closed = 1;
nodes = (
(270,0,l),
(270,168,l),
(316,220,l),
(385,193,o),
(359,83,o),
(359,0,c),
(559,0,l),
(559,124,o),
(518,239,o),
(375,289,c),
(551,490,l),
(439,490,l),
(269,297,l),
(269,690,l),
(69,690,l),
(70,0,l)
);
},
{
closed = 1;
nodes = (
(376,0,l),
(363,83,l),
(363,61,o),
(366,25,o),
(316,25,c),
(304,25,o),
(297,21,o),
(297,13,cs),
(297,4,o),
(304,0,o),
(316,0,c)
);
},
{
pos = (270,0);
ref = _serif.H;
scale = (-1,1);
},
{
pos = (69,0);
ref = _serif.l;
},
{
closed = 1;
nodes = (
(619,0,o),
(626,4,o),
(626,13,cs),
(626,21,o),
(619,25,o),
(607,25,c),
(557,25,o),
(553,59,o),
(547,87,c),
(547,0,l),
(607,0,l)
);
},
{
closed = 1;
nodes = (
(327,490,o),
(320,486,o),
(320,477,cs),
(320,469,o),
(327,465,o),
(339,465,cs),
(389,465,o),
(393,438,o),
(371,413,c),
(449,490,l),
(339,490,l)
);
},
{
closed = 1;
nodes = (
(535,490,l),
(475,404,l),
(498,430,o),
(525,465,o),
(562,465,cs),
(574,465,o),
(581,469,o),
(581,477,cs),
(581,486,o),
(574,490,o),
(562,490,c)
);
},
{
pos = (69,0);
ref = _serif.H;
}
);
width = 616;
}
);
metricLeft = "=n";
metricRight = "=v";
note = k;
unicode = 107;
}
{
glyphname = l;
layers = (
{
anchors = (
{
name = bottom;
pos = (119,0);
},
{
name = center;
pos = (119,250);
},
{
name = top;
pos = (119,700);
},
{
name = topright;
pos = (217,700);
}
);
layerId = m004;
shapes = (
{
closed = 1;
nodes = (
(151,85,l),
(151,700,l),
(76,700,l),
(76,196,l)
);
},
{
pos = (53,0);
ref = _serif.a;
},
{
pos = (76,0);
ref = _serif.l;
}
);
width = 237;
},
{
anchors = (
{
name = bottom;
pos = (119,0);
},
{
name = center;
pos = (119,250);
},
{
name = top;
pos = (119,700);
},
{
name = topright;
pos = (218,700);
}
);
hints = (
{
horizontal = 1;
place = (25,21);
target = up;
type = BottomGhost;
},
{
place = (85,120);
type = Stem;
},
{
horizontal = 1;
place = (22,88);
type = Stem;
}
);
layerId = m005;
shapes = (
{
closed = 1;
nodes = (
(164,84,l),
(164,700,l),
(64,700,l),
(64,200,l)
);
},
{
pos = (54,0);
ref = _serif.a;
},
{
pos = (64,0);
ref = _serif.l;
}
);
width = 238;
},
{
anchors = (
{
name = bottom;
pos = (162,0);
},
{
name = center;
pos = (162,250);
},
{
name = top;
pos = (162,700);
},
{
name = topright;
pos = (303,700);
}
);
layerId = m006;
shapes = (
{
closed = 1;
nodes = (
(244,85,l),
(244,690,l),
(44,690,l),
(44,200,l)
);
},
{
pos = (114,0);
ref = _serif.a;
},
{
pos = (44,0);
ref = _serif.l;
}
);
width = 323;
},
{
anchors = (
{
name = bottom;
pos = (119,0);
},
{
name = center;
pos = (119,250);
},
{
name = top;
pos = (119,700);
},
{
name = topright;
pos = (217,700);
}
);
layerId = m007;
shapes = (
{
closed = 1;
nodes = (
(151,85,l),
(151,700,l),
(76,700,l),
(76,196,l)
);
},
{
pos = (53,0);
ref = _serif.a;
},
{
pos = (76,0);
ref = _serif.l;
}
);
width = 237;
},
{
anchors = (
{
name = bottom;
pos = (119,0);
},
{
name = center;
pos = (119,250);
},
{
name = top;
pos = (119,700);
},
{
name = topright;
pos = (218,700);
}
);
hints = (
{
horizontal = 1;
place = (25,21);
target = up;
type = BottomGhost;
},
{
place = (85,120);
type = Stem;
},
{
horizontal = 1;
place = (22,88);
type = Stem;
}
);
layerId = m008;
shapes = (
{
closed = 1;
nodes = (
(164,84,l),
(164,700,l),
(64,700,l),
(64,200,l)
);
},
{
pos = (54,0);
ref = _serif.a;
},
{
pos = (64,0);
ref = _serif.l;
}
);
width = 238;
},
{
anchors = (
{
name = bottom;
pos = (145,0);
},
{
name = center;
pos = (145,250);
},
{
name = top;
pos = (145,700);
},
{
name = topright;
pos = (280,700);
}
);
layerId = m009;
shapes = (
{
closed = 1;
nodes = (
(234,85,l),
(234,700,l),
(34,700,l),
(34,200,l)
);
},
{
pos = (104,0);
ref = _serif.a;
},
{
pos = (34,0);
ref = _serif.l;
}
);
width = 303;
}
);
metricLeft = "=n-35";
metricRight = "=n";
note = l;
unicode = 108;
}
{
glyphname = m;
layers = (
{
layerId = m004;
shapes = (
{
closed = 1;
nodes = (
(186,0,l),
(186,245,ls),
(186,357,o),
(239,450,o),
(313,450,cs),
(389,450,o),
(401,391,o),
(401,290,cs),
(401,0,l),
(476,0,l),
(476,245,ls),
(476,357,o),
(529,450,o),
(603,450,cs),
(678,450,o),
(691,393,o),
(691,290,cs),
(691,0,l),
(766,0,l),
(766,290,ls),
(766,441,o),
(725,500,o),
(628,500,cs),
(553,500,o),
(489,435,o),
(473,435,cs),
(457,435,o),
(457,441,o),
(446,454,cs),
(420,489,o),
(386,500,o),
(338,500,cs),
(239,500,o),
(193,410,o),
(178,410,cs),
(152,410,o),
(156,451,o),
(156,488,c),
(111,482,l),
(111,0,l)
);
},
{
pos = (111,0);
ref = _serif.n;
},
{
pos = (111,0);
ref = _serif.H;
},
{
pos = (186,0);
ref = _serif.H;
scale = (-1,1);
},
{
pos = (401,0);
ref = _serif.H;
},
{
pos = (476,0);
ref = _serif.H;
scale = (-1,1);
},
{
pos = (691,0);
ref = _serif.H;
},
{
pos = (766,0);
ref = _serif.H;
scale = (-1,1);
}
);
width = 852;
},
{
hints = (
{
horizontal = 1;
place = (25,21);
target = up;
type = BottomGhost;
},
{
horizontal = 1;
place = (460,100);
type = Stem;
},
{
place = (85,120);
type = Stem;
},
{
place = (340,125);
type = Stem;
},
{
place = (600,125);
type = Stem;
}
);
layerId = m005;
shapes = (
{
closed = 1;
nodes = (
(199,0,l),
(199,245,ls),
(199,348,o),
(239,440,o),
(314,440,cs),
(389,440,o),
(389,381,o),
(389,290,cs),
(389,0,l),
(489,0,l),
(489,245,ls),
(489,348,o),
(529,440,o),
(604,440,cs),
(679,440,o),
(679,381,o),
(679,290,cs),
(679,0,l),
(779,0,l),
(779,290,ls),
(779,440,o),
(736,500,o),
(629,500,cs),
(540,500,o),
(494,435,o),
(474,435,cs),
(467,435,o),
(461,443,o),
(452,454,cs),
(428,486,o),
(391,500,o),
(339,500,cs),
(250,500,o),
(204,435,o),
(189,435,cs),
(174,435,o),
(169,459,o),
(169,490,c),
(99,480,l),
(99,0,l)
);
},
{
pos = (99,0);
ref = _serif.n;
},
{
pos = (99,0);
ref = _serif.H;
},
{
pos = (199,0);
ref = _serif.H;
scale = (-1,1);
},
{
pos = (389,0);
ref = _serif.H;
},
{
pos = (489,0);
ref = _serif.H;
scale = (-1,1);
},
{
pos = (679,0);
ref = _serif.H;
},
{
pos = (779,0);
ref = _serif.H;
scale = (-1,1);
}
);
width = 853;
},
{
layerId = m006;
shapes = (
{
closed = 1;
nodes = (
(279,0,l),
(279,245,ls),
(279,376,o),
(298,425,o),
(339,425,cs),
(362,425,o),
(369,387,o),
(369,272,cs),
(369,0,l),
(569,0,l),
(569,245,ls),
(569,376,o),
(588,425,o),
(629,425,cs),
(652,425,o),
(659,387,o),
(659,272,cs),
(659,0,l),
(859,0,l),
(859,272,ls),
(859,435,o),
(815,500,o),
(704,500,cs),
(599,500,o),
(559,445,o),
(544,445,cs),
(534,445,o),
(524,468,o),
(491,484,cs),
(470,495,o),
(445,500,o),
(414,500,cs),
(309,500,o),
(269,445,o),
(249,445,cs),
(239,445,o),
(234,454,o),
(234,480,c),
(79,480,l),
(79,0,l)
);
},
{
pos = (79,0);
ref = _serif.n;
},
{
pos = (79,0);
ref = _serif.H;
},
{
pos = (279,0);
ref = _serif.H;
scale = (-1,1);
},
{
pos = (369,0);
ref = _serif.H;
},
{
pos = (569,0);
ref = _serif.H;
scale = (-1,1);
},
{
pos = (659,0);
ref = _serif.H;
},
{
pos = (859,0);
ref = _serif.H;
scale = (-1,1);
}
);
width = 938;
},
{
layerId = m007;
shapes = (
{
closed = 1;
nodes = (
(186,0,l),
(186,245,ls),
(186,369,o),
(239,462,o),
(313,462,cs),
(389,462,o),
(401,403,o),
(401,290,cs),
(401,0,l),
(476,0,l),
(476,245,ls),
(476,369,o),
(529,462,o),
(603,462,cs),
(678,462,o),
(691,405,o),
(691,290,cs),
(691,0,l),
(766,0,l),
(766,290,ls),
(766,441,o),
(725,500,o),
(628,500,cs),
(553,500,o),
(489,435,o),
(473,435,cs),
(457,435,o),
(457,441,o),
(446,454,cs),
(420,489,o),
(386,500,o),
(338,500,cs),
(239,500,o),
(193,410,o),
(178,410,cs),
(152,410,o),
(156,451,o),
(156,488,c),
(111,482,l),
(111,0,l)
);
},
{
pos = (111,0);
ref = _serif.n;
},
{
pos = (111,0);
ref = _serif.H;
},
{
pos = (186,0);
ref = _serif.H;
scale = (-1,1);
},
{
pos = (401,0);
ref = _serif.H;
},
{
pos = (476,0);
ref = _serif.H;
scale = (-1,1);
},
{
pos = (691,0);
ref = _serif.H;
},
{
pos = (766,0);
ref = _serif.H;
scale = (-1,1);
}
);
width = 852;
},
{
hints = (
{
horizontal = 1;
place = (25,21);
target = up;
type = BottomGhost;
},
{
horizontal = 1;
place = (460,100);
type = Stem;
},
{
place = (85,120);
type = Stem;
},
{
place = (340,125);
type = Stem;
},
{
place = (600,125);
type = Stem;
}
);
layerId = m008;
shapes = (
{
closed = 1;
nodes = (
(199,0,l),
(199,245,ls),
(199,376,o),
(239,456,o),
(314,456,cs),
(389,456,o),
(389,397,o),
(389,290,cs),
(389,0,l),
(489,0,l),
(489,245,ls),
(489,376,o),
(529,456,o),
(604,456,cs),
(679,456,o),
(679,397,o),
(679,290,cs),
(679,0,l),
(779,0,l),
(779,290,ls),
(779,440,o),
(736,500,o),
(629,500,cs),
(540,500,o),
(494,435,o),
(474,435,cs),
(467,435,o),
(461,443,o),
(452,454,cs),
(428,486,o),
(391,500,o),
(339,500,cs),
(250,500,o),
(204,435,o),
(189,435,cs),
(174,435,o),
(169,459,o),
(169,490,c),
(99,480,l),
(99,0,l)
);
},
{
pos = (99,0);
ref = _serif.n;
},
{
pos = (99,0);
ref = _serif.H;
},
{
pos = (199,0);
ref = _serif.H;
scale = (-1,1);
},
{
pos = (389,0);
ref = _serif.H;
},
{
pos = (489,0);
ref = _serif.H;
scale = (-1,1);
},
{
pos = (679,0);
ref = _serif.H;
},
{
pos = (779,0);
ref = _serif.H;
scale = (-1,1);
}
);
width = 853;
},
{
layerId = m009;
shapes = (
{
closed = 1;
nodes = (
(269,0,l),
(269,245,ls),
(269,401,o),
(288,450,o),
(329,450,cs),
(352,450,o),
(359,412,o),
(359,272,cs),
(359,0,l),
(559,0,l),
(559,245,ls),
(559,401,o),
(578,450,o),
(619,450,cs),
(642,450,o),
(649,412,o),
(649,272,cs),
(649,0,l),
(849,0,l),
(849,272,ls),
(849,435,o),
(805,500,o),
(694,500,cs),
(589,500,o),
(549,445,o),
(534,445,cs),
(524,445,o),
(514,468,o),
(481,484,cs),
(460,495,o),
(435,500,o),
(404,500,cs),
(299,500,o),
(259,445,o),
(239,445,cs),
(229,445,o),
(224,454,o),
(224,480,c),
(69,480,l),
(69,0,l)
);
},
{
pos = (69,0);
ref = _serif.n;
},
{
pos = (69,0);
ref = _serif.H;
},
{
pos = (269,0);
ref = _serif.H;
scale = (-1,1);
},
{
pos = (359,0);
ref = _serif.H;
},
{
pos = (559,0);
ref = _serif.H;
scale = (-1,1);
},
{
pos = (649,0);
ref = _serif.H;
},
{
pos = (849,0);
ref = _serif.H;
scale = (-1,1);
}
);
width = 918;
}
);
metricLeft = "=n";
metricRight = "=n";
note = m;
unicode = 109;
}
{
glyphname = n;
layers = (
{
anchors = (
{
name = bottom;
pos = (282,0);
},
{
name = top;
pos = (282,490);
}
);
layerId = m004;
shapes = (
{
closed = 1;
nodes = (
(111,0,l),
(186,0,l),
(186,245,ls),
(186,358,o),
(239,450,o),
(314,450,cs),
(389,450,o),
(402,391,o),
(402,290,cs),
(402,0,l),
(477,0,l),
(477,290,ls),
(477,440,o),
(446,500,o),
(339,500,cs),
(239,500,o),
(193,410,o),
(178,410,cs),
(163,410,o),
(156,459,o),
(156,490,c),
(111,480,l)
);
},
{
pos = (402,0);
ref = _serif.H;
},
{
pos = (477,0);
ref = _serif.H;
scale = (-1,1);
},
{
pos = (111,0);
ref = _serif.H;
},
{
pos = (186,0);
ref = _serif.H;
scale = (-1,1);
},
{
pos = (111,0);
ref = _serif.n;
}
);
width = 563;
},
{
anchors = (
{
name = bottom;
pos = (294,0);
},
{
name = top;
pos = (294,500);
}
);
hints = (
{
horizontal = 1;
place = (25,21);
target = up;
type = BottomGhost;
},
{
horizontal = 1;
place = (460,100);
type = Stem;
},
{
place = (85,120);
type = Stem;
},
{
place = (370,125);
type = Stem;
}
);
layerId = m005;
shapes = (
{
closed = 1;
nodes = (
(99,0,l),
(199,0,l),
(199,245,ls),
(199,370,o),
(239,440,o),
(314,440,cs),
(389,440,o),
(389,380,o),
(389,290,cs),
(389,0,l),
(489,0,l),
(489,290,ls),
(489,440,o),
(446,500,o),
(339,500,cs),
(239,500,o),
(204,435,o),
(189,435,cs),
(174,435,o),
(169,459,o),
(169,490,c),
(99,480,l)
);
},
{
pos = (389,0);
ref = _serif.H;
},
{
pos = (489,0);
ref = _serif.H;
scale = (-1,1);
},
{
pos = (99,0);
ref = _serif.H;
},
{
pos = (199,0);
ref = _serif.H;
scale = (-1,1);
},
{
pos = (99,0);
ref = _serif.n;
}
);
width = 563;
},
{
anchors = (
{
name = bottom;
pos = (294,0);
},
{
name = top;
pos = (294,500);
}
);
layerId = m006;
shapes = (
{
closed = 1;
nodes = (
(79,0,l),
(279,0,l),
(279,245,ls),
(279,376,o),
(298,425,o),
(339,425,cs),
(362,425,o),
(369,387,o),
(369,272,cs),
(369,0,l),
(569,0,l),
(569,272,ls),
(569,435,o),
(525,500,o),
(414,500,cs),
(309,500,o),
(269,445,o),
(249,445,cs),
(239,445,o),
(234,464,o),
(234,490,c),
(79,480,l)
);
},
{
pos = (369,0);
ref = _serif.H;
},
{
pos = (569,0);
ref = _serif.H;
scale = (-1,1);
},
{
pos = (79,0);
ref = _serif.H;
},
{
pos = (279,0);
ref = _serif.H;
scale = (-1,1);
},
{
pos = (79,0);
ref = _serif.n;
}
);
width = 648;
},
{
anchors = (
{
name = bottom;
pos = (294,0);
},
{
name = top;
pos = (294,500);
}
);
layerId = m007;
shapes = (
{
closed = 1;
nodes = (
(111,0,l),
(186,0,l),
(186,245,ls),
(186,373,o),
(239,462,o),
(314,462,cs),
(389,462,o),
(402,403,o),
(402,290,cs),
(402,0,l),
(477,0,l),
(477,290,ls),
(477,440,o),
(446,500,o),
(339,500,cs),
(239,500,o),
(193,410,o),
(178,410,cs),
(163,410,o),
(156,459,o),
(156,490,c),
(111,480,l)
);
},
{
pos = (402,0);
ref = _serif.H;
},
{
pos = (477,0);
ref = _serif.H;
scale = (-1,1);
},
{
pos = (111,0);
ref = _serif.H;
},
{
pos = (186,0);
ref = _serif.H;
scale = (-1,1);
},
{
pos = (111,0);
ref = _serif.n;
}
);
width = 563;
},
{
anchors = (
{
name = bottom;
pos = (294,0);
},
{
name = top;
pos = (294,500);
}
);
hints = (
{
horizontal = 1;
place = (25,21);
target = up;
type = BottomGhost;
},
{
horizontal = 1;
place = (460,100);
type = Stem;
},
{
place = (85,120);
type = Stem;
},
{
place = (370,125);
type = Stem;
}
);
layerId = m008;
shapes = (
{
closed = 1;
nodes = (
(99,0,l),
(199,0,l),
(199,245,ls),
(199,376,o),
(239,456,o),
(314,456,cs),
(389,456,o),
(389,397,o),
(389,290,cs),
(389,0,l),
(489,0,l),
(489,290,ls),
(489,440,o),
(446,500,o),
(339,500,cs),
(239,500,o),
(204,435,o),
(189,435,cs),
(174,435,o),
(169,459,o),
(169,490,c),
(99,480,l)
);
},
{
pos = (389,0);
ref = _serif.H;
},
{
pos = (489,0);
ref = _serif.H;
scale = (-1,1);
},
{
pos = (99,0);
ref = _serif.H;
},
{
pos = (199,0);
ref = _serif.H;
scale = (-1,1);
},
{
pos = (99,0);
ref = _serif.n;
}
);
width = 563;
},
{
anchors = (
{
name = bottom;
pos = (284,0);
},
{
name = top;
pos = (284,500);
}
);
layerId = m009;
shapes = (
{
closed = 1;
nodes = (
(69,0,l),
(269,0,l),
(269,245,ls),
(269,396,o),
(288,445,o),
(329,445,cs),
(352,445,o),
(359,407,o),
(359,272,cs),
(359,0,l),
(559,0,l),
(559,272,ls),
(559,435,o),
(515,500,o),
(404,500,cs),
(299,500,o),
(259,445,o),
(239,445,cs),
(229,445,o),
(224,464,o),
(224,490,c),
(69,480,l)
);
},
{
pos = (359,0);
ref = _serif.H;
},
{
pos = (559,0);
ref = _serif.H;
scale = (-1,1);
},
{
pos = (69,0);
ref = _serif.H;
},
{
pos = (269,0);
ref = _serif.H;
scale = (-1,1);
},
{
pos = (69,0);
ref = _serif.n;
}
);
width = 628;
}
);
note = n;
unicode = 110;
}
{
glyphname = q;
kernLeft = o;
layers = (
{
layerId = m004;
shapes = (
{
closed = 1;
nodes = (
(282,-10,o),
(342,79,o),
(342,79,cs),
(342,79,o),
(342,60,o),
(342,0,cs),
(342,-200,l),
(417,-200,l),
(417,488,l),
(370,483,o),
(320,500,o),
(244,500,cs),
(92,500,o),
(52,394,o),
(52,245,cs),
(52,49,o),
(83,-10,o),
(189,-10,cs)
);
},
{
closed = 1;
nodes = (
(126,45,o),
(127,102,o),
(127,245,cs),
(127,363,o),
(139,450,o),
(244,450,cs),
(292,450,o),
(335,441,o),
(342,437,c),
(342,245,ls),
(342,138,o),
(301,45,o),
(214,45,cs)
);
},
{
pos = (417,-200);
ref = _serif.H;
scale = (-1,1);
},
{
pos = (342,-200);
ref = _serif.H;
}
);
width = 493;
},
{
hints = (
{
horizontal = 1;
place = (15,105);
type = Stem;
},
{
horizontal = 1;
place = (460,100);
type = Stem;
},
{
place = (65,125);
type = Stem;
},
{
place = (355,120);
type = Stem;
}
);
layerId = m005;
shapes = (
{
closed = 1;
nodes = (
(279,-10,o),
(311,40,o),
(320,40,cs),
(329,40,o),
(330,31,o),
(330,0,c),
(330,-200,l),
(430,-200,l),
(430,490,l),
(380,480,o),
(334,500,o),
(245,500,c),
(85,500,o),
(40,395,o),
(40,245,cs),
(40,50,o),
(83,-10,o),
(190,-10,cs)
);
},
{
closed = 1;
nodes = (
(140,50,o),
(140,109,o),
(140,245,cs),
(140,353,o),
(153,440,o),
(245,440,cs),
(295,440,o),
(330,430,o),
(330,430,c),
(330,245,ls),
(330,142,o),
(290,50,o),
(215,50,cs)
);
},
{
pos = (430,-200);
ref = _serif.H;
scale = (-1,1);
},
{
pos = (329,-200);
ref = _serif.H;
}
);
width = 494;
},
{
layerId = m006;
shapes = (
{
closed = 1;
nodes = (
(280,-10,o),
(291,22,o),
(300,22,cs),
(306,22,o),
(310,14,o),
(310,0,c),
(310,-200,l),
(510,-200,l),
(510,490,l),
(410,480,o),
(365,500,o),
(275,500,cs),
(102,500,o),
(20,427,o),
(20,245,cs),
(20,55,o),
(64,-10,o),
(175,-10,cs)
);
},
{
closed = 1;
nodes = (
(228,65,o),
(220,103,o),
(220,245,cs),
(220,376,o),
(239,425,o),
(280,425,cs),
(295,425,o),
(310,422,o),
(310,422,c),
(310,245,ls),
(310,114,o),
(291,65,o),
(250,65,cs)
);
},
{
pos = (510,-200);
ref = _serif.H;
scale = (-1,1);
},
{
pos = (310,-200);
ref = _serif.H;
}
);
width = 554;
},
{
layerId = m007;
shapes = (
{
closed = 1;
nodes = (
(282,-10,o),
(342,79,o),
(342,79,cs),
(342,79,o),
(342,40,o),
(342,0,cs),
(342,-200,l),
(417,-200,l),
(417,488,l),
(370,483,o),
(320,500,o),
(244,500,cs),
(92,500,o),
(52,394,o),
(52,245,cs),
(52,49,o),
(83,-10,o),
(189,-10,cs)
);
},
{
closed = 1;
nodes = (
(126,33,o),
(127,90,o),
(127,245,cs),
(127,375,o),
(139,462,o),
(244,462,cs),
(292,462,o),
(335,453,o),
(342,449,c),
(342,200,ls),
(342,126,o),
(301,33,o),
(214,33,cs)
);
},
{
pos = (417,-200);
ref = _serif.H;
scale = (-1,1);
},
{
pos = (342,-200);
ref = _serif.H;
}
);
width = 493;
},
{
hints = (
{
horizontal = 1;
place = (15,105);
type = Stem;
},
{
horizontal = 1;
place = (460,100);
type = Stem;
},
{
place = (65,125);
type = Stem;
},
{
place = (355,120);
type = Stem;
}
);
layerId = m008;
shapes = (
{
closed = 1;
nodes = (
(279,-10,o),
(311,40,o),
(320,40,cs),
(329,40,o),
(330,31,o),
(330,0,c),
(330,-200,l),
(430,-200,l),
(430,490,l),
(380,480,o),
(334,500,o),
(245,500,c),
(85,500,o),
(40,395,o),
(40,245,cs),
(40,50,o),
(83,-10,o),
(190,-10,cs)
);
},
{
closed = 1;
nodes = (
(140,34,o),
(140,93,o),
(140,245,cs),
(140,369,o),
(153,456,o),
(245,456,cs),
(295,456,o),
(330,446,o),
(330,446,c),
(330,245,ls),
(330,126,o),
(290,34,o),
(215,34,cs)
);
},
{
pos = (430,-200);
ref = _serif.H;
scale = (-1,1);
},
{
pos = (329,-200);
ref = _serif.H;
}
);
width = 494;
},
{
layerId = m009;
shapes = (
{
closed = 1;
nodes = (
(270,-10,o),
(281,22,o),
(290,22,cs),
(296,22,o),
(300,14,o),
(300,0,c),
(300,-200,l),
(500,-200,l),
(500,490,l),
(400,480,o),
(355,500,o),
(265,500,cs),
(92,500,o),
(10,427,o),
(10,245,cs),
(10,55,o),
(54,-10,o),
(165,-10,cs)
);
},
{
closed = 1;
nodes = (
(218,40,o),
(210,78,o),
(210,245,cs),
(210,401,o),
(229,450,o),
(270,450,cs),
(285,450,o),
(300,447,o),
(300,447,c),
(300,245,ls),
(300,89,o),
(281,40,o),
(240,40,cs)
);
},
{
pos = (500,-200);
ref = _serif.H;
scale = (-1,1);
},
{
pos = (300,-200);
ref = _serif.H;
}
);
width = 534;
}
);
metricLeft = "=o";
metricRight = "=|n-35";
note = q;
unicode = 113;
}
{
glyphname = r;
kernLeft = o;
layers = (
{
layerId = m004;
shapes = (
{
closed = 1;
nodes = (
(111,0,l),
(186,0,l),
(186,290,ls),
(186,357,o),
(239,450,o),
(313,450,cs),
(382,450,o),
(362,385,o),
(378,385,cs),
(402,385,o),
(420,483,o),
(399,490,cs),
(378,498,o),
(361,500,o),
(338,500,cs),
(239,500,o),
(193,410,o),
(178,410,cs),
(152,410,o),
(156,451,o),
(156,488,c),
(111,482,l)
);
},
{
pos = (111,0);
ref = _serif.H;
},
{
pos = (186,0);
ref = _serif.H;
scale = (-1,1);
},
{
pos = (111,0);
ref = _serif.n;
}
);
width = 425;
},
{
hints = (
{
horizontal = 1;
place = (25,21);
target = up;
type = BottomGhost;
},
{
horizontal = 1;
place = (455,106);
type = Stem;
},
{
place = (85,120);
type = Stem;
}
);
layerId = m005;
shapes = (
{
closed = 1;
nodes = (
(99,0,l),
(199,0,l),
(199,290,ls),
(199,348,o),
(239,440,o),
(314,440,cs),
(371,440,o),
(341,385,o),
(379,385,c),
(417,385,o),
(440,478,o),
(404,490,c),
(386,497,o),
(364,500,o),
(339,500,cs),
(250,500,o),
(204,435,o),
(189,435,cs),
(174,435,o),
(169,459,o),
(169,490,c),
(99,480,l)
);
},
{
pos = (99,0);
ref = _serif.H;
},
{
pos = (199,0);
ref = _serif.H;
scale = (-1,1);
},
{
pos = (99,0);
ref = _serif.n;
}
);
width = 427;
},
{
layerId = m006;
shapes = (
{
closed = 1;
nodes = (
(79,0,l),
(279,0,l),
(279,272,ls),
(279,376,o),
(298,425,o),
(339,425,cs),
(385,425,o),
(353,315,o),
(428,315,cs),
(503,315,o),
(533,471,o),
(478,490,c),
(460,497,o),
(439,500,o),
(414,500,cs),
(309,500,o),
(269,445,o),
(249,445,cs),
(239,445,o),
(234,454,o),
(234,480,c),
(79,480,l)
);
},
{
pos = (79,0);
ref = _serif.H;
},
{
pos = (279,0);
ref = _serif.H;
scale = (-1,1);
},
{
pos = (79,0);
ref = _serif.n;
}
);
width = 516;
},
{
layerId = m007;
shapes = (
{
closed = 1;
nodes = (
(111,0,l),
(186,0,l),
(186,290,ls),
(186,369,o),
(239,462,o),
(313,462,cs),
(382,462,o),
(362,385,o),
(378,385,cs),
(402,385,o),
(420,483,o),
(399,490,cs),
(378,498,o),
(361,500,o),
(338,500,cs),
(239,500,o),
(193,410,o),
(178,410,cs),
(152,410,o),
(156,451,o),
(156,488,c),
(111,482,l)
);
},
{
pos = (111,0);
ref = _serif.H;
},
{
pos = (186,0);
ref = _serif.H;
scale = (-1,1);
},
{
pos = (111,0);
ref = _serif.n;
}
);
width = 425;
},
{
hints = (
{
horizontal = 1;
place = (25,21);
target = up;
type = BottomGhost;
},
{
horizontal = 1;
place = (455,106);
type = Stem;
},
{
place = (85,120);
type = Stem;
}
);
layerId = m008;
shapes = (
{
closed = 1;
nodes = (
(99,0,l),
(199,0,l),
(199,290,ls),
(199,364,o),
(239,456,o),
(314,456,cs),
(371,456,o),
(341,385,o),
(379,385,c),
(417,385,o),
(440,478,o),
(404,490,c),
(386,497,o),
(364,500,o),
(339,500,cs),
(250,500,o),
(204,435,o),
(189,435,cs),
(174,435,o),
(169,459,o),
(169,490,c),
(99,480,l)
);
},
{
pos = (99,0);
ref = _serif.H;
},
{
pos = (199,0);
ref = _serif.H;
scale = (-1,1);
},
{
pos = (99,0);
ref = _serif.n;
}
);
width = 427;
},
{
layerId = m009;
shapes = (
{
closed = 1;
nodes = (
(69,0,l),
(269,0,l),
(269,272,ls),
(269,401,o),
(288,450,o),
(329,450,cs),
(375,450,o),
(343,315,o),
(418,315,cs),
(493,315,o),
(523,471,o),
(468,490,c),
(450,497,o),
(429,500,o),
(404,500,cs),
(299,500,o),
(259,445,o),
(239,445,cs),
(229,445,o),
(224,454,o),
(224,480,c),
(69,480,l)
);
},
{
pos = (69,0);
ref = _serif.H;
},
{
pos = (269,0);
ref = _serif.H;
scale = (-1,1);
},
{
pos = (69,0);
ref = _serif.n;
}
);
width = 496;
}
);
metricLeft = "=n";
metricRight = "=n";
note = r;
unicode = 114;
}
{
glyphname = t;
layers = (
{
anchors = (
{
name = bottom;
pos = (175,0);
},
{
name = center;
pos = (175,245);
},
{
name = top;
pos = (175,619);
},
{
name = topright;
pos = (330,700);
}
);
layerId = m004;
shapes = (
{
closed = 1;
nodes = (
(280,440,ls),
(289,440,o),
(295,446,o),
(295,455,cs),
(295,475,ls),
(295,484,o),
(289,490,o),
(280,490,cs),
(130,490,l),
(130,440,l)
);
},
{
closed = 1;
nodes = (
(246,-9,o),
(281,9,o),
(297,17,cs),
(303,20,o),
(306,33,o),
(304,40,cs),
(301,52,o),
(301,52,o),
(296,50,cs),
(249,34,o),
(181,36,o),
(184,119,c),
(110,182,l),
(110,54,o),
(113,-9,o),
(202,-9,cs)
);
},
{
closed = 1;
nodes = (
(264,9,l),
(264,40,l),
(246,40,ls),
(177,40,o),
(183,87,o),
(185,200,cs),
(187,601,ls),
(187,615,o),
(182,619,o),
(175,619,cs),
(168,619,o),
(164,612,o),
(162,602,cs),
(154,558,o),
(110,481,o),
(39,475,cs),
(28,474,o),
(20,472,o),
(20,457,cs),
(20,442,o),
(28,440,o),
(38,440,cs),
(110,440,l),
(110,200,ls),
(110,89,o),
(119,0,o),
(245,8,cs)
);
}
);
width = 350;
},
{
anchors = (
{
name = bottom;
pos = (175,0);
},
{
name = center;
pos = (175,245);
},
{
name = top;
pos = (175,619);
},
{
name = topright;
pos = (330,700);
}
);
hints = (
{
horizontal = 1;
place = (23,87);
type = Stem;
},
{
horizontal = 1;
place = (460,90);
type = Stem;
},
{
place = (105,120);
type = Stem;
}
);
layerId = m005;
shapes = (
{
closed = 1;
nodes = (
(285,430,ls),
(294,430,o),
(300,436,o),
(300,445,cs),
(300,475,ls),
(300,484,o),
(294,490,o),
(285,490,cs),
(110,490,l),
(110,430,l)
);
},
{
closed = 1;
nodes = (
(245,-9,o),
(284,11,o),
(296,17,cs),
(308,23,o),
(311,32,o),
(309,40,cs),
(307,48,o),
(297,54,o),
(285,50,cs),
(238,34,o),
(190,40,o),
(190,115,c),
(90,200,l),
(90,59,o),
(89,-9,o),
(195,-9,cs)
);
},
{
closed = 1;
nodes = (
(269,10,l),
(269,40,l),
(239,40,ls),
(184,40,o),
(189,90,o),
(190,200,cs),
(192,601,ls),
(192,611,o),
(184,619,o),
(174,619,cs),
(165,619,o),
(158,612,o),
(156,602,cs),
(146,546,o),
(83,485,o),
(30,475,cs),
(19,473,o),
(13,463,o),
(13,452,cs),
(13,441,o),
(20,430,o),
(31,430,cs),
(90,430,l),
(90,200,ls),
(90,90,o),
(100,-1,o),
(239,8,cs)
);
}
);
width = 350;
},
{
anchors = (
{
name = bottom;
pos = (191,0);
},
{
name = center;
pos = (191,245);
},
{
name = top;
pos = (191,619);
},
{
name = topright;
pos = (351,700);
}
);
layerId = m006;
shapes = (
{
closed = 1;
nodes = (
(345,415,ls),
(354,415,o),
(360,421,o),
(360,430,cs),
(360,475,ls),
(360,484,o),
(354,490,o),
(345,490,cs),
(178,490,l),
(178,415,l)
);
},
{
closed = 1;
nodes = (
(306,-9,o),
(345,11,o),
(357,17,cs),
(369,23,o),
(372,32,o),
(370,40,cs),
(368,48,o),
(358,54,o),
(346,50,cs),
(299,34,o),
(251,40,o),
(251,115,c),
(51,200,l),
(51,59,o),
(100,-9,o),
(206,-9,cs)
);
},
{
closed = 1;
nodes = (
(330,10,l),
(330,35,l),
(290,35,ls),
(261,35,o),
(251,62,o),
(251,115,cs),
(251,602,ls),
(251,619,o),
(227,619,o),
(202,619,cs),
(177,619,o),
(155,619,o),
(151,602,cs),
(131,514,o),
(96,490,o),
(15,490,c),
(6,490,o),
(0,479,o),
(0,454,c),
(0,429,o),
(6,416,o),
(15,415,c),
(51,415,l),
(51,200,ls),
(51,58,o),
(169,-23,o),
(267,-3,cs)
);
}
);
width = 371;
},
{
anchors = (
{
name = bottom;
pos = (175,0);
},
{
name = center;
pos = (175,245);
},
{
name = top;
pos = (175,619);
},
{
name = topright;
pos = (330,700);
}
);
layerId = m007;
shapes = (
{
closed = 1;
nodes = (
(280,440,ls),
(289,440,o),
(295,446,o),
(295,455,cs),
(295,475,ls),
(295,484,o),
(289,490,o),
(280,490,cs),
(130,490,l),
(130,440,l)
);
},
{
closed = 1;
nodes = (
(246,-9,o),
(281,9,o),
(297,17,cs),
(303,20,o),
(306,33,o),
(304,40,cs),
(301,52,o),
(301,52,o),
(296,50,cs),
(249,34,o),
(181,36,o),
(184,119,c),
(110,182,l),
(110,54,o),
(113,-9,o),
(202,-9,cs)
);
},
{
closed = 1;
nodes = (
(264,9,l),
(264,40,l),
(246,40,ls),
(177,40,o),
(183,87,o),
(185,200,cs),
(187,601,ls),
(187,615,o),
(182,619,o),
(175,619,cs),
(168,619,o),
(164,612,o),
(162,602,cs),
(154,558,o),
(110,481,o),
(39,475,cs),
(28,474,o),
(20,472,o),
(20,457,cs),
(20,442,o),
(28,440,o),
(38,440,cs),
(110,440,l),
(110,200,ls),
(110,89,o),
(119,0,o),
(245,8,cs)
);
}
);
width = 350;
},
{
anchors = (
{
name = bottom;
pos = (175,0);
},
{
name = center;
pos = (175,245);
},
{
name = top;
pos = (175,619);
},
{
name = topright;
pos = (330,700);
}
);
hints = (
{
horizontal = 1;
place = (23,87);
type = Stem;
},
{
horizontal = 1;
place = (460,90);
type = Stem;
},
{
place = (105,120);
type = Stem;
}
);
layerId = m008;
shapes = (
{
closed = 1;
nodes = (
(285,446,ls),
(294,446,o),
(300,452,o),
(300,461,cs),
(300,475,ls),
(300,484,o),
(294,490,o),
(285,490,cs),
(110,490,l),
(110,446,l)
);
},
{
closed = 1;
nodes = (
(245,-9,o),
(284,11,o),
(296,17,cs),
(308,23,o),
(311,27,o),
(309,35,cs),
(307,43,o),
(297,44,o),
(285,40,cs),
(238,24,o),
(190,30,o),
(190,115,c),
(90,200,l),
(90,59,o),
(89,-9,o),
(195,-9,cs)
);
},
{
closed = 1;
nodes = (
(269,10,l),
(269,30,l),
(239,30,ls),
(184,30,o),
(189,80,o),
(190,200,cs),
(192,601,ls),
(192,611,o),
(184,619,o),
(174,619,cs),
(165,619,o),
(158,612,o),
(156,602,cs),
(146,546,o),
(83,485,o),
(30,475,cs),
(19,473,o),
(13,469,o),
(13,460,cs),
(13,450,o),
(20,446,o),
(31,446,cs),
(90,446,l),
(90,200,ls),
(90,90,o),
(100,-1,o),
(239,8,cs)
);
}
);
width = 350;
},
{
anchors = (
{
name = bottom;
pos = (181,0);
},
{
name = center;
pos = (181,245);
},
{
name = top;
pos = (181,619);
},
{
name = topright;
pos = (341,700);
}
);
layerId = m009;
shapes = (
{
closed = 1;
nodes = (
(335,440,ls),
(344,440,o),
(350,446,o),
(350,455,cs),
(350,475,ls),
(350,484,o),
(344,490,o),
(335,490,cs),
(168,490,l),
(168,440,l)
);
},
{
closed = 1;
nodes = (
(296,-9,o),
(335,11,o),
(347,17,cs),
(359,23,o),
(362,32,o),
(360,40,cs),
(358,48,o),
(348,44,o),
(336,40,cs),
(289,24,o),
(241,30,o),
(241,105,c),
(41,200,l),
(41,59,o),
(90,-9,o),
(196,-9,cs)
);
},
{
closed = 1;
nodes = (
(320,10,l),
(320,25,l),
(280,25,ls),
(251,25,o),
(241,52,o),
(241,105,cs),
(241,602,ls),
(241,619,o),
(217,619,o),
(192,619,cs),
(167,619,o),
(145,619,o),
(141,602,cs),
(121,513,o),
(86,490,o),
(5,490,c),
(-4,490,o),
(-10,485,o),
(-10,466,c),
(-10,447,o),
(-4,441,o),
(5,440,c),
(41,440,l),
(41,200,ls),
(41,58,o),
(159,-23,o),
(257,-3,cs)
);
}
);
width = 351;
}
);
note = t;
unicode = 116;
}
{
glyphname = w;
kernLeft = v;
kernRight = v;
layers = (
{
anchors = (
{
name = bottom;
pos = (355,0);
},
{
name = top;
pos = (355,490);
}
);
layerId = m004;
shapes = (
{
closed = 1;
nodes = (
(514,0,ls),
(524,0,o),
(531,5,o),
(534,15,cs),
(587,173,o),
(622,326,o),
(654,490,c),
(600,490,l),
(577,328,o),
(548,195,o),
(497,25,c),
(444,195,o),
(414,328,o),
(391,490,c),
(340,490,l),
(371,327,o),
(383,173,o),
(435,15,cs),
(438,5,o),
(445,0,o),
(455,0,cs)
);
},
{
closed = 1;
nodes = (
(350,490,l),
(290,490,ls),
(278,490,o),
(271,481,o),
(271,472,cs),
(271,464,o),
(278,455,o),
(290,455,cs),
(335,455,o),
(331,430,o),
(327,405,c)
);
},
{
closed = 1;
nodes = (
(400,430,o),
(396,455,o),
(441,455,cs),
(453,455,o),
(460,464,o),
(460,472,cs),
(460,481,o),
(453,490,o),
(441,490,cs),
(381,490,l),
(404,405,l)
);
},
{
closed = 1;
nodes = (
(609,490,l),
(549,490,ls),
(537,490,o),
(530,481,o),
(530,472,cs),
(530,464,o),
(537,455,o),
(549,455,cs),
(595,455,o),
(591,430,o),
(587,405,c)
);
},
{
closed = 1;
nodes = (
(642,430,o),
(647,455,o),
(690,455,cs),
(702,455,o),
(709,464,o),
(709,472,cs),
(709,481,o),
(702,490,o),
(690,490,cs),
(630,490,l),
(637,405,l)
);
},
{
closed = 1;
nodes = (
(254,0,ls),
(264,0,o),
(271,5,o),
(274,15,cs),
(326,173,o),
(349,326,o),
(381,490,c),
(340,490,l),
(317,328,o),
(288,195,o),
(237,25,c),
(184,195,o),
(154,328,o),
(131,490,c),
(55,490,l),
(87,326,o),
(122,173,o),
(175,15,cs),
(178,5,o),
(185,0,o),
(195,0,cs)
);
},
{
closed = 1;
nodes = (
(79,490,l),
(19,490,ls),
(7,490,o),
(0,481,o),
(0,472,cs),
(0,464,o),
(7,455,o),
(19,455,cs),
(63,455,o),
(67,430,o),
(72,405,c)
);
},
{
closed = 1;
nodes = (
(140,430,o),
(136,455,o),
(181,455,cs),
(193,455,o),
(200,464,o),
(200,472,cs),
(200,481,o),
(193,490,o),
(181,490,cs),
(121,490,l),
(144,405,l)
);
}
);
width = 709;
},
{
anchors = (
{
name = bottom;
pos = (366,0);
},
{
name = top;
pos = (366,490);
}
);
hints = (
{
horizontal = 1;
place = (25,125);
type = Stem;
},
{
place = (55,645);
type = Stem;
}
);
layerId = m005;
shapes = (
{
closed = 1;
nodes = (
(524,0,ls),
(534,0,o),
(541,5,o),
(544,15,cs),
(598,176,o),
(633,328,o),
(664,490,c),
(601,490,l),
(579,340,o),
(553,200,o),
(509,50,c),
(465,200,o),
(438,340,o),
(416,490,c),
(341,490,l),
(372,328,o),
(383,176,o),
(436,15,cs),
(439,5,o),
(446,0,o),
(456,0,cs)
);
},
{
closed = 1;
nodes = (
(351,490,l),
(291,490,l),
(279,490,o),
(272,481,o),
(272,472,cs),
(272,464,o),
(279,455,o),
(291,455,c),
(336,455,o),
(332,430,o),
(328,405,c)
);
},
{
closed = 1;
nodes = (
(425,430,o),
(421,455,o),
(466,455,c),
(478,455,o),
(485,464,o),
(485,472,cs),
(485,481,o),
(478,490,o),
(466,490,c),
(406,490,l),
(429,405,l)
);
},
{
closed = 1;
nodes = (
(610,490,l),
(550,490,l),
(538,490,o),
(531,481,o),
(531,472,cs),
(531,464,o),
(538,455,o),
(550,455,c),
(596,455,o),
(592,430,o),
(588,405,c)
);
},
{
closed = 1;
nodes = (
(652,430,o),
(657,455,o),
(700,455,c),
(712,455,o),
(719,464,o),
(719,472,cs),
(719,481,o),
(712,490,o),
(700,490,c),
(640,490,l),
(647,405,l)
);
},
{
closed = 1;
nodes = (
(264,0,ls),
(274,0,o),
(281,5,o),
(284,15,cs),
(337,176,o),
(360,328,o),
(391,490,c),
(341,490,l),
(319,340,o),
(293,200,o),
(249,50,c),
(205,200,o),
(178,340,o),
(156,490,c),
(56,490,l),
(87,328,o),
(122,176,o),
(176,15,cs),
(179,5,o),
(186,0,o),
(196,0,cs)
);
},
{
closed = 1;
nodes = (
(79,490,l),
(19,490,l),
(7,490,o),
(0,481,o),
(0,472,cs),
(0,464,o),
(7,455,o),
(19,455,c),
(63,455,o),
(68,430,o),
(72,405,c)
);
},
{
closed = 1;
nodes = (
(165,430,o),
(161,455,o),
(206,455,c),
(218,455,o),
(225,464,o),
(225,472,cs),
(225,481,o),
(218,490,o),
(206,490,c),
(146,490,l),
(169,405,l)
);
}
);
width = 719;
},
{
anchors = (
{
name = bottom;
pos = (405,0);
},
{
name = top;
pos = (405,490);
}
);
layerId = m006;
shapes = (
{
closed = 1;
nodes = (
(605,0,ls),
(615,0,o),
(622,4,o),
(625,14,cs),
(688,176,o),
(731,328,o),
(750,490,c),
(600,490,l),
(593,288,o),
(567,147,o),
(550,77,c),
(533,147,o),
(508,288,o),
(500,490,c),
(362,490,l),
(401,328,o),
(395,176,o),
(455,14,cs),
(458,4,o),
(465,0,o),
(475,0,cs)
);
},
{
closed = 1;
nodes = (
(369,490,l),
(309,490,l),
(297,490,o),
(290,481,o),
(290,472,cs),
(290,464,o),
(297,455,o),
(309,455,c),
(354,455,o),
(348,430,o),
(346,405,c)
);
},
{
closed = 1;
nodes = (
(502,430,o),
(514,455,o),
(558,455,c),
(570,455,o),
(577,464,o),
(577,472,cs),
(577,481,o),
(570,490,o),
(558,490,c),
(498,490,l),
(504,405,l)
);
},
{
closed = 1;
nodes = (
(619,490,l),
(559,490,l),
(547,490,o),
(540,481,o),
(540,472,cs),
(540,464,o),
(547,455,o),
(559,455,c),
(604,455,o),
(598,430,o),
(596,405,c)
);
},
{
closed = 1;
nodes = (
(743,430,o),
(747,455,o),
(791,455,c),
(803,455,o),
(810,464,o),
(810,472,cs),
(810,481,o),
(803,490,o),
(791,490,c),
(731,490,l),
(737,405,l)
);
},
{
closed = 1;
nodes = (
(335,0,ls),
(345,0,o),
(352,4,o),
(355,14,cs),
(416,176,o),
(429,328,o),
(448,490,c),
(350,490,l),
(343,288,o),
(317,147,o),
(300,77,c),
(283,147,o),
(258,288,o),
(250,490,c),
(60,490,l),
(79,328,o),
(122,176,o),
(185,14,cs),
(188,4,o),
(195,0,o),
(205,0,cs)
);
},
{
closed = 1;
nodes = (
(79,490,l),
(19,490,l),
(7,490,o),
(0,481,o),
(0,472,cs),
(0,464,o),
(7,455,o),
(19,455,c),
(63,455,o),
(67,430,o),
(73,405,c)
);
},
{
closed = 1;
nodes = (
(252,430,o),
(264,455,o),
(308,455,c),
(320,455,o),
(327,464,o),
(327,472,cs),
(327,481,o),
(320,490,o),
(308,490,c),
(248,490,l),
(254,405,l)
);
}
);
width = 810;
},
{
anchors = (
{
name = bottom;
pos = (357,0);
},
{
name = top;
pos = (357,490);
}
);
layerId = m007;
shapes = (
{
closed = 1;
nodes = (
(520,0,ls),
(527,0,o),
(532,3,o),
(535,11,cs),
(589,171,o),
(624,325,o),
(656,490,c),
(602,490,l),
(579,328,o),
(550,195,o),
(499,25,c),
(446,195,o),
(416,328,o),
(393,490,c),
(342,490,l),
(373,326,o),
(385,171,o),
(438,11,cs),
(441,3,o),
(446,0,o),
(453,0,cs)
);
},
{
closed = 1;
nodes = (
(354,490,l),
(294,490,ls),
(282,490,o),
(275,486,o),
(275,477,cs),
(275,469,o),
(282,465,o),
(294,465,cs),
(339,465,o),
(335,440,o),
(331,415,c)
);
},
{
closed = 1;
nodes = (
(400,440,o),
(396,465,o),
(441,465,cs),
(453,465,o),
(460,469,o),
(460,477,cs),
(460,486,o),
(453,490,o),
(441,490,cs),
(381,490,l),
(404,415,l)
);
},
{
closed = 1;
nodes = (
(613,490,l),
(553,490,ls),
(541,490,o),
(534,486,o),
(534,477,cs),
(534,469,o),
(541,465,o),
(553,465,cs),
(599,465,o),
(595,440,o),
(591,415,c)
);
},
{
closed = 1;
nodes = (
(646,440,o),
(651,465,o),
(694,465,cs),
(706,465,o),
(713,469,o),
(713,477,cs),
(713,486,o),
(706,490,o),
(694,490,cs),
(634,490,l),
(641,415,l)
);
},
{
closed = 1;
nodes = (
(260,0,ls),
(267,0,o),
(272,3,o),
(275,11,cs),
(328,171,o),
(351,325,o),
(383,490,c),
(342,490,l),
(319,328,o),
(290,195,o),
(239,25,c),
(186,195,o),
(156,328,o),
(133,490,c),
(57,490,l),
(89,325,o),
(124,171,o),
(178,11,cs),
(181,3,o),
(186,0,o),
(193,0,cs)
);
},
{
closed = 1;
nodes = (
(79,490,l),
(19,490,ls),
(7,490,o),
(0,486,o),
(0,477,cs),
(0,469,o),
(7,465,o),
(19,465,cs),
(63,465,o),
(67,440,o),
(72,415,c)
);
},
{
closed = 1;
nodes = (
(140,440,o),
(136,465,o),
(181,465,cs),
(193,465,o),
(200,469,o),
(200,477,cs),
(200,486,o),
(193,490,o),
(181,490,cs),
(121,490,l),
(144,415,l)
);
}
);
width = 713;
},
{
anchors = (
{
name = bottom;
pos = (361,0);
},
{
name = top;
pos = (361,490);
}
);
hints = (
{
horizontal = 1;
place = (25,125);
type = Stem;
},
{
place = (55,645);
type = Stem;
}
);
layerId = m008;
shapes = (
{
closed = 1;
nodes = (
(529,0,ls),
(536,0,o),
(541,3,o),
(544,11,cs),
(599,174,o),
(634,327,o),
(665,490,c),
(602,490,l),
(580,340,o),
(554,200,o),
(510,50,c),
(466,200,o),
(439,340,o),
(417,490,c),
(342,490,l),
(373,327,o),
(385,174,o),
(438,11,cs),
(441,3,o),
(446,0,o),
(453,0,cs)
);
},
{
closed = 1;
nodes = (
(354,490,l),
(294,490,l),
(282,490,o),
(275,486,o),
(275,477,cs),
(275,469,o),
(282,465,o),
(294,465,c),
(339,465,o),
(335,440,o),
(331,415,c)
);
},
{
closed = 1;
nodes = (
(424,440,o),
(420,465,o),
(465,465,c),
(477,465,o),
(484,469,o),
(484,477,cs),
(484,486,o),
(477,490,o),
(465,490,c),
(405,490,l),
(428,415,l)
);
},
{
closed = 1;
nodes = (
(613,490,l),
(553,490,l),
(541,490,o),
(534,486,o),
(534,477,cs),
(534,469,o),
(541,465,o),
(553,465,c),
(599,465,o),
(595,440,o),
(591,415,c)
);
},
{
closed = 1;
nodes = (
(655,440,o),
(660,465,o),
(703,465,c),
(715,465,o),
(722,469,o),
(722,477,cs),
(722,486,o),
(715,490,o),
(703,490,c),
(643,490,l),
(650,415,l)
);
},
{
closed = 1;
nodes = (
(269,0,ls),
(276,0,o),
(281,3,o),
(284,11,cs),
(338,174,o),
(361,327,o),
(392,490,c),
(342,490,l),
(320,340,o),
(294,200,o),
(250,50,c),
(206,200,o),
(179,340,o),
(157,490,c),
(57,490,l),
(88,327,o),
(123,174,o),
(178,11,cs),
(181,3,o),
(186,0,o),
(193,0,cs)
);
},
{
closed = 1;
nodes = (
(79,490,l),
(19,490,l),
(7,490,o),
(0,486,o),
(0,477,cs),
(0,469,o),
(7,465,o),
(19,465,c),
(63,465,o),
(68,440,o),
(72,415,c)
);
},
{
closed = 1;
nodes = (
(164,440,o),
(160,465,o),
(205,465,c),
(217,465,o),
(224,469,o),
(224,477,cs),
(224,486,o),
(217,490,o),
(205,490,c),
(145,490,l),
(168,415,l)
);
}
);
width = 722;
},
{
anchors = (
{
name = bottom;
pos = (395,0);
},
{
name = top;
pos = (395,490);
}
);
layerId = m009;
shapes = (
{
closed = 1;
nodes = (
(599,0,ls),
(606,0,o),
(611,3,o),
(614,10,cs),
(677,173,o),
(720,326,o),
(740,490,c),
(590,490,l),
(583,288,o),
(557,147,o),
(540,77,c),
(523,147,o),
(498,288,o),
(490,490,c),
(352,490,l),
(391,326,o),
(385,173,o),
(446,10,cs),
(449,3,o),
(454,0,o),
(461,0,cs)
);
},
{
closed = 1;
nodes = (
(359,490,l),
(299,490,l),
(287,490,o),
(280,481,o),
(280,472,cs),
(280,464,o),
(287,455,o),
(299,455,c),
(344,455,o),
(338,430,o),
(336,405,c)
);
},
{
closed = 1;
nodes = (
(492,430,o),
(504,455,o),
(548,455,c),
(560,455,o),
(567,464,o),
(567,472,cs),
(567,481,o),
(560,490,o),
(548,490,c),
(488,490,l),
(494,405,l)
);
},
{
closed = 1;
nodes = (
(609,490,l),
(549,490,l),
(537,490,o),
(530,481,o),
(530,472,cs),
(530,464,o),
(537,455,o),
(549,455,c),
(594,455,o),
(588,430,o),
(586,405,c)
);
},
{
closed = 1;
nodes = (
(733,430,o),
(737,455,o),
(781,455,c),
(793,455,o),
(800,464,o),
(800,472,cs),
(800,481,o),
(793,490,o),
(781,490,c),
(721,490,l),
(727,405,l)
);
},
{
closed = 1;
nodes = (
(329,0,ls),
(336,0,o),
(341,3,o),
(344,10,cs),
(406,173,o),
(418,326,o),
(438,490,c),
(340,490,l),
(333,288,o),
(307,147,o),
(290,77,c),
(273,147,o),
(248,288,o),
(240,490,c),
(50,490,l),
(70,326,o),
(113,173,o),
(176,10,cs),
(179,3,o),
(184,0,o),
(191,0,cs)
);
},
{
closed = 1;
nodes = (
(69,490,l),
(9,490,l),
(-3,490,o),
(-10,481,o),
(-10,472,cs),
(-10,464,o),
(-3,455,o),
(9,455,c),
(53,455,o),
(57,430,o),
(63,405,c)
);
},
{
closed = 1;
nodes = (
(242,430,o),
(254,455,o),
(298,455,c),
(310,455,o),
(317,464,o),
(317,472,cs),
(317,481,o),
(310,490,o),
(298,490,c),
(238,490,l),
(244,405,l)
);
}
);
width = 790;
}
);
metricLeft = "=v";
metricRight = "=v";
note = w;
unicode = 119;
}
{
glyphname = x;
layers = (
{
anchors = (
{
name = bottom;
pos = (243,0);
},
{
name = top;
pos = (243,490);
}
);
layerId = m004;
shapes = (
{
closed = 1;
nodes = (
(440,0,l),
(407,100,o),
(349,196,o),
(270,285,c),
(192,355,o),
(155,432,o),
(140,490,c),
(64,490,l),
(92,398,o),
(145,322,o),
(217,240,c),
(302,162,o),
(345,67,o),
(364,0,c)
);
},
{
closed = 1;
nodes = (
(79,0,l),
(97,85,l),
(82,60,o),
(56,35,o),
(19,35,c),
(7,35,o),
(0,26,o),
(0,18,cs),
(0,9,o),
(7,0,o),
(19,0,c)
);
},
{
closed = 1;
nodes = (
(111,0,l),
(124,82,o),
(194,168,o),
(276,260,cs),
(337,334,o),
(399,404,o),
(424,490,c),
(373,490,l),
(364,415,o),
(298,345,o),
(220,260,c),
(155,179,o),
(89,94,o),
(60,0,c)
);
},
{
closed = 1;
nodes = (
(174,0,l),
(186,0,o),
(193,9,o),
(193,18,cs),
(193,26,o),
(186,35,o),
(174,35,c),
(135,35,o),
(129,60,o),
(142,85,c),
(84,0,l)
);
},
{
closed = 1;
nodes = (
(393,0,l),
(331,85,l),
(343,60,o),
(342,35,o),
(303,35,c),
(291,35,o),
(284,26,o),
(284,18,cs),
(284,9,o),
(291,0,o),
(303,0,c)
);
},
{
closed = 1;
nodes = (
(466,0,l),
(478,0,o),
(485,9,o),
(485,18,cs),
(485,26,o),
(478,35,o),
(466,35,c),
(434,35,o),
(421,60,o),
(406,85,c),
(406,0,l)
);
},
{
closed = 1;
nodes = (
(99,490,l),
(39,490,l),
(27,490,o),
(20,481,o),
(20,472,cs),
(20,464,o),
(27,455,o),
(39,455,c),
(71,455,o),
(84,430,o),
(99,405,c)
);
},
{
closed = 1;
nodes = (
(162,430,o),
(163,455,o),
(202,455,c),
(214,455,o),
(221,464,o),
(221,472,cs),
(221,481,o),
(214,490,o),
(202,490,c),
(112,490,l),
(174,405,l)
);
},
{
closed = 1;
nodes = (
(399,490,l),
(309,490,l),
(297,490,o),
(290,481,o),
(290,472,cs),
(290,464,o),
(297,455,o),
(309,455,c),
(348,455,o),
(354,430,o),
(341,405,c)
);
},
{
closed = 1;
nodes = (
(401,430,o),
(427,455,o),
(464,455,c),
(476,455,o),
(483,464,o),
(483,472,cs),
(483,481,o),
(476,490,o),
(464,490,c),
(404,490,l),
(386,405,l)
);
}
);
width = 485;
},
{
anchors = (
{
name = bottom;
pos = (250,0);
},
{
name = top;
pos = (250,490);
}
);
hints = (
{
horizontal = 1;
place = (25,21);
target = up;
type = BottomGhost;
},
{
place = (65,415);
type = Stem;
}
);
layerId = m005;
shapes = (
{
closed = 1;
nodes = (
(457,0,l),
(426,93,o),
(370,187,o),
(289,280,c),
(220,340,o),
(176,417,o),
(157,490,c),
(57,490,l),
(84,403,o),
(136,327,o),
(213,240,c),
(286,173,o),
(334,80,o),
(357,0,c)
);
},
{
closed = 1;
nodes = (
(79,0,l),
(97,85,l),
(82,60,o),
(56,35,o),
(19,35,c),
(7,35,o),
(0,26,o),
(0,18,cs),
(0,9,o),
(7,0,o),
(19,0,c)
);
},
{
closed = 1;
nodes = (
(122,0,l),
(136,87,o),
(207,173,o),
(284,260,c),
(351,340,o),
(412,410,o),
(435,490,c),
(372,490,l),
(362,410,o),
(295,340,o),
(222,260,c),
(151,173,o),
(86,87,o),
(59,0,c)
);
},
{
closed = 1;
nodes = (
(184,0,l),
(196,0,o),
(203,9,o),
(203,18,cs),
(203,26,o),
(196,35,o),
(184,35,c),
(145,35,o),
(139,60,o),
(152,85,c),
(94,0,l)
);
},
{
closed = 1;
nodes = (
(387,0,l),
(325,85,l),
(337,60,o),
(336,35,o),
(297,35,c),
(285,35,o),
(278,26,o),
(278,18,cs),
(278,9,o),
(285,0,o),
(297,0,c)
);
},
{
closed = 1;
nodes = (
(481,0,l),
(493,0,o),
(500,9,o),
(500,18,cs),
(500,26,o),
(493,35,o),
(481,35,c),
(449,35,o),
(436,60,o),
(421,85,c),
(421,0,l)
);
},
{
closed = 1;
nodes = (
(93,490,l),
(33,490,l),
(21,490,o),
(14,481,o),
(14,472,cs),
(14,464,o),
(21,455,o),
(33,455,c),
(65,455,o),
(78,430,o),
(93,405,c)
);
},
{
closed = 1;
nodes = (
(177,430,o),
(178,455,o),
(217,455,c),
(229,455,o),
(236,464,o),
(236,472,cs),
(236,481,o),
(229,490,o),
(217,490,c),
(127,490,l),
(189,405,l)
);
},
{
closed = 1;
nodes = (
(398,490,l),
(308,490,l),
(296,490,o),
(289,481,o),
(289,472,cs),
(289,464,o),
(296,455,o),
(308,455,c),
(347,455,o),
(353,430,o),
(340,405,c)
);
},
{
closed = 1;
nodes = (
(411,430,o),
(437,455,o),
(474,455,c),
(486,455,o),
(493,464,o),
(493,472,cs),
(493,481,o),
(486,490,o),
(474,490,c),
(414,490,l),
(396,405,l)
);
}
);
width = 500;
},
{
anchors = (
{
name = bottom;
pos = (308,0);
},
{
name = top;
pos = (308,490);
}
);
layerId = m006;
shapes = (
{
closed = 1;
nodes = (
(583,0,l),
(532,93,o),
(488,191,o),
(420,260,cs),
(356,325,o),
(252,417,o),
(233,490,c),
(33,490,l),
(80,403,o),
(155,319,o),
(214,260,cs),
(283,191,o),
(350,80,o),
(373,0,c)
);
},
{
closed = 1;
nodes = (
(79,0,l),
(97,85,l),
(81,60,o),
(56,35,o),
(19,35,c),
(7,35,o),
(0,26,o),
(0,18,cs),
(0,9,o),
(7,0,o),
(19,0,c)
);
},
{
closed = 1;
nodes = (
(165,0,l),
(209,80,o),
(284,172,o),
(360,260,cs),
(428,339,o),
(532,410,o),
(576,490,c),
(456,490,l),
(412,410,o),
(319,342,o),
(248,260,cs),
(175,175,o),
(83,80,o),
(39,0,c)
);
},
{
closed = 1;
nodes = (
(251,0,l),
(263,0,o),
(270,9,o),
(270,18,cs),
(270,26,o),
(263,35,o),
(251,35,c),
(212,35,o),
(202,60,o),
(219,85,c),
(160,0,l)
);
},
{
closed = 1;
nodes = (
(401,0,l),
(339,85,l),
(352,60,o),
(350,35,o),
(311,35,c),
(299,35,o),
(292,26,o),
(292,18,cs),
(292,9,o),
(299,0,o),
(311,0,c)
);
},
{
closed = 1;
nodes = (
(597,0,l),
(609,0,o),
(616,9,o),
(616,18,cs),
(616,26,o),
(609,35,o),
(597,35,c),
(565,35,o),
(550,60,o),
(537,85,c),
(537,0,l)
);
},
{
closed = 1;
nodes = (
(89,490,l),
(29,490,l),
(17,490,o),
(10,481,o),
(10,472,cs),
(10,464,o),
(17,455,o),
(29,455,c),
(61,455,o),
(71,430,o),
(89,405,c)
);
},
{
closed = 1;
nodes = (
(263,430,o),
(270,455,o),
(309,455,c),
(321,455,o),
(328,464,o),
(328,472,cs),
(328,481,o),
(321,490,o),
(309,490,c),
(219,490,l),
(281,405,l)
);
},
{
closed = 1;
nodes = (
(476,490,l),
(359,490,l),
(347,490,o),
(340,481,o),
(340,472,cs),
(340,464,o),
(347,455,o),
(359,455,c),
(398,455,o),
(412,430,o),
(391,405,c)
);
},
{
closed = 1;
nodes = (
(531,430,o),
(550,455,o),
(587,455,c),
(599,455,o),
(606,464,o),
(606,472,cs),
(606,481,o),
(599,490,o),
(587,490,c),
(527,490,l),
(509,405,l)
);
}
);
width = 616;
},
{
anchors = (
{
name = bottom;
pos = (235,0);
},
{
name = top;
pos = (235,490);
}
);
layerId = m007;
shapes = (
{
closed = 1;
nodes = (
(440,0,l),
(407,100,o),
(349,196,o),
(270,285,c),
(192,355,o),
(155,432,o),
(140,490,c),
(64,490,l),
(92,398,o),
(145,322,o),
(217,240,c),
(302,162,o),
(345,67,o),
(364,0,c)
);
},
{
closed = 1;
nodes = (
(79,0,l),
(97,85,l),
(82,60,o),
(56,25,o),
(19,25,c),
(7,25,o),
(0,21,o),
(0,13,cs),
(0,4,o),
(7,0,o),
(19,0,c)
);
},
{
closed = 1;
nodes = (
(111,0,l),
(124,82,o),
(194,168,o),
(276,260,cs),
(337,334,o),
(399,404,o),
(424,490,c),
(373,490,l),
(364,415,o),
(298,345,o),
(220,260,c),
(155,179,o),
(89,94,o),
(60,0,c)
);
},
{
closed = 1;
nodes = (
(174,0,l),
(186,0,o),
(193,4,o),
(193,13,cs),
(193,21,o),
(186,25,o),
(174,25,c),
(135,25,o),
(129,60,o),
(142,85,c),
(84,0,l)
);
},
{
closed = 1;
nodes = (
(393,0,l),
(331,85,l),
(343,60,o),
(342,25,o),
(303,25,c),
(291,25,o),
(284,21,o),
(284,13,cs),
(284,4,o),
(291,0,o),
(303,0,c)
);
},
{
closed = 1;
nodes = (
(466,0,l),
(478,0,o),
(485,4,o),
(485,13,cs),
(485,21,o),
(478,25,o),
(466,25,c),
(434,25,o),
(421,60,o),
(406,85,c),
(406,0,l)
);
},
{
closed = 1;
nodes = (
(99,490,l),
(39,490,l),
(27,490,o),
(20,486,o),
(20,477,cs),
(20,469,o),
(27,465,o),
(39,465,c),
(71,465,o),
(84,430,o),
(99,405,c)
);
},
{
closed = 1;
nodes = (
(162,430,o),
(163,465,o),
(202,465,c),
(214,465,o),
(221,469,o),
(221,477,cs),
(221,486,o),
(214,490,o),
(202,490,c),
(112,490,l),
(174,405,l)
);
},
{
closed = 1;
nodes = (
(399,490,l),
(309,490,l),
(297,490,o),
(290,486,o),
(290,477,cs),
(290,469,o),
(297,465,o),
(309,465,c),
(348,465,o),
(354,430,o),
(341,405,c)
);
},
{
closed = 1;
nodes = (
(401,430,o),
(427,465,o),
(464,465,c),
(476,465,o),
(483,469,o),
(483,477,cs),
(483,486,o),
(476,490,o),
(464,490,c),
(404,490,l),
(386,405,l)
);
}
);
width = 485;
},
{
anchors = (
{
name = bottom;
pos = (253,0);
},
{
name = top;
pos = (253,490);
}
);
hints = (
{
horizontal = 1;
place = (25,21);
target = up;
type = BottomGhost;
},
{
place = (65,415);
type = Stem;
}
);
layerId = m008;
shapes = (
{
closed = 1;
nodes = (
(457,0,l),
(426,93,o),
(370,187,o),
(289,280,c),
(220,340,o),
(176,417,o),
(157,490,c),
(57,490,l),
(84,403,o),
(136,327,o),
(213,240,c),
(286,173,o),
(334,80,o),
(357,0,c)
);
},
{
closed = 1;
nodes = (
(79,0,l),
(97,85,l),
(82,60,o),
(56,25,o),
(19,25,c),
(7,25,o),
(0,21,o),
(0,13,cs),
(0,4,o),
(7,0,o),
(19,0,c)
);
},
{
closed = 1;
nodes = (
(122,0,l),
(136,87,o),
(207,173,o),
(284,260,c),
(351,340,o),
(412,410,o),
(435,490,c),
(372,490,l),
(362,410,o),
(295,340,o),
(222,260,c),
(151,173,o),
(86,87,o),
(59,0,c)
);
},
{
closed = 1;
nodes = (
(184,0,l),
(196,0,o),
(203,4,o),
(203,13,cs),
(203,21,o),
(196,25,o),
(184,25,c),
(145,25,o),
(139,60,o),
(152,85,c),
(94,0,l)
);
},
{
closed = 1;
nodes = (
(387,0,l),
(325,85,l),
(337,60,o),
(336,25,o),
(297,25,c),
(285,25,o),
(278,21,o),
(278,13,cs),
(278,4,o),
(285,0,o),
(297,0,c)
);
},
{
closed = 1;
nodes = (
(481,0,l),
(493,0,o),
(500,4,o),
(500,13,cs),
(500,21,o),
(493,25,o),
(481,25,c),
(449,25,o),
(436,60,o),
(421,85,c),
(421,0,l)
);
},
{
closed = 1;
nodes = (
(93,490,l),
(33,490,l),
(21,490,o),
(14,486,o),
(14,477,cs),
(14,469,o),
(21,465,o),
(33,465,c),
(65,465,o),
(78,430,o),
(93,405,c)
);
},
{
closed = 1;
nodes = (
(177,430,o),
(178,465,o),
(217,465,c),
(229,465,o),
(236,469,o),
(236,477,cs),
(236,486,o),
(229,490,o),
(217,490,c),
(127,490,l),
(189,405,l)
);
},
{
closed = 1;
nodes = (
(398,490,l),
(308,490,l),
(296,490,o),
(289,486,o),
(289,477,cs),
(289,469,o),
(296,465,o),
(308,465,c),
(347,465,o),
(353,430,o),
(340,405,c)
);
},
{
closed = 1;
nodes = (
(411,430,o),
(437,465,o),
(474,465,c),
(486,465,o),
(493,469,o),
(493,477,cs),
(493,486,o),
(486,490,o),
(474,490,c),
(414,490,l),
(396,405,l)
);
}
);
width = 500;
},
{
anchors = (
{
name = bottom;
pos = (298,0);
},
{
name = top;
pos = (298,490);
}
);
layerId = m009;
shapes = (
{
closed = 1;
nodes = (
(573,0,l),
(522,93,o),
(478,191,o),
(410,260,cs),
(346,325,o),
(242,417,o),
(223,490,c),
(23,490,l),
(70,403,o),
(145,319,o),
(204,260,cs),
(273,191,o),
(340,80,o),
(363,0,c)
);
},
{
closed = 1;
nodes = (
(69,0,l),
(87,85,l),
(71,60,o),
(46,25,o),
(9,25,c),
(-3,25,o),
(-10,21,o),
(-10,13,cs),
(-10,4,o),
(-3,0,o),
(9,0,c)
);
},
{
closed = 1;
nodes = (
(155,0,l),
(199,80,o),
(274,172,o),
(350,260,cs),
(418,339,o),
(522,410,o),
(566,490,c),
(446,490,l),
(402,410,o),
(309,342,o),
(238,260,cs),
(165,175,o),
(73,80,o),
(29,0,c)
);
},
{
closed = 1;
nodes = (
(241,0,l),
(253,0,o),
(260,4,o),
(260,13,cs),
(260,21,o),
(253,25,o),
(241,25,c),
(202,25,o),
(192,60,o),
(209,85,c),
(150,0,l)
);
},
{
closed = 1;
nodes = (
(391,0,l),
(329,85,l),
(342,60,o),
(340,25,o),
(301,25,c),
(289,25,o),
(282,21,o),
(282,13,cs),
(282,4,o),
(289,0,o),
(301,0,c)
);
},
{
closed = 1;
nodes = (
(587,0,l),
(599,0,o),
(606,4,o),
(606,13,cs),
(606,21,o),
(599,25,o),
(587,25,c),
(555,25,o),
(540,60,o),
(527,85,c),
(527,0,l)
);
},
{
closed = 1;
nodes = (
(79,490,l),
(19,490,l),
(7,490,o),
(0,486,o),
(0,477,cs),
(0,469,o),
(7,465,o),
(19,465,c),
(51,465,o),
(61,430,o),
(79,405,c)
);
},
{
closed = 1;
nodes = (
(253,430,o),
(260,465,o),
(299,465,c),
(311,465,o),
(318,469,o),
(318,477,cs),
(318,486,o),
(311,490,o),
(299,490,c),
(209,490,l),
(271,405,l)
);
},
{
closed = 1;
nodes = (
(466,490,l),
(349,490,l),
(337,490,o),
(330,486,o),
(330,477,cs),
(330,469,o),
(337,465,o),
(349,465,c),
(388,465,o),
(402,430,o),
(381,405,c)
);
},
{
closed = 1;
nodes = (
(521,430,o),
(540,465,o),
(577,465,c),
(589,465,o),
(596,469,o),
(596,477,cs),
(596,486,o),
(589,490,o),
(577,490,c),
(517,490,l),
(499,405,l)
);
}
);
width = 596;
}
);
metricLeft = "=v";
metricRight = "=v";
note = x;
unicode = 120;
}
{
glyphname = y;
kernLeft = v;
kernRight = v;
layers = (
{
anchors = (
{
name = bottom;
pos = (260,0);
},
{
name = top;
pos = (260,490);
}
);
layerId = m004;
shapes = (
{
closed = 1;
nodes = (
(314,0,l),
(393,162,o),
(430,320,o),
(463,490,c),
(404,490,l),
(381,334,o),
(346,187,o),
(288,53,c),
(196,189,o),
(167,336,o),
(145,490,c),
(56,490,l),
(89,320,o),
(126,162,o),
(271,-48,c)
);
},
{
closed = 1;
nodes = (
(126,-200,ls),
(204,-200,o),
(241,-150,o),
(314,0,c),
(268,0,l),
(212,-117,o),
(180,-150,o),
(136,-150,cs),
(106,-150,o),
(101,-100,o),
(71,-100,cs),
(41,-100,o),
(66,-200,o),
(66,-200,c)
);
},
{
closed = 1;
nodes = (
(79,490,l),
(19,490,ls),
(7,490,o),
(0,481,o),
(0,472,cs),
(0,464,o),
(7,455,o),
(19,455,cs),
(63,455,o),
(68,430,o),
(73,405,c)
);
},
{
closed = 1;
nodes = (
(154,430,o),
(150,455,o),
(195,455,cs),
(207,455,o),
(214,464,o),
(214,472,cs),
(214,481,o),
(207,490,o),
(195,490,cs),
(135,490,l),
(158,405,l)
);
},
{
closed = 1;
nodes = (
(414,490,l),
(354,490,ls),
(342,490,o),
(335,481,o),
(335,472,cs),
(335,464,o),
(342,455,o),
(354,455,cs),
(399,455,o),
(395,430,o),
(391,405,c)
);
},
{
closed = 1;
nodes = (
(451,430,o),
(456,455,o),
(500,455,cs),
(512,455,o),
(519,464,o),
(519,472,cs),
(519,481,o),
(512,490,o),
(500,490,cs),
(440,490,l),
(446,405,l)
);
}
);
width = 519;
},
{
anchors = (
{
name = bottom;
pos = (262,0);
},
{
name = top;
pos = (262,490);
}
);
hints = (
{
horizontal = 1;
place = (-175,85);
type = Stem;
},
{
place = (35,475);
type = Stem;
}
);
layerId = m005;
shapes = (
{
closed = 1;
nodes = (
(317,0,l),
(399,167,o),
(435,323,o),
(467,490,c),
(404,490,l),
(382,340,o),
(349,200,o),
(299,80,c),
(219,200,o),
(191,340,o),
(169,490,c),
(56,490,l),
(88,323,o),
(124,160,o),
(274,-40,c)
);
},
{
closed = 1;
nodes = (
(129,-200,ls),
(207,-200,o),
(244,-150,o),
(317,0,c),
(269,0,l),
(213,-117,o),
(180,-150,o),
(139,-150,cs),
(109,-150,o),
(104,-100,o),
(74,-100,cs),
(44,-100,o),
(69,-200,o),
(69,-200,c)
);
},
{
closed = 1;
nodes = (
(79,490,l),
(19,490,l),
(7,490,o),
(0,481,o),
(0,472,cs),
(0,464,o),
(7,455,o),
(19,455,c),
(63,455,o),
(68,430,o),
(73,405,c)
);
},
{
closed = 1;
nodes = (
(178,430,o),
(174,455,o),
(219,455,c),
(231,455,o),
(238,464,o),
(238,472,cs),
(238,481,o),
(231,490,o),
(219,490,c),
(159,490,l),
(182,405,l)
);
},
{
closed = 1;
nodes = (
(414,490,l),
(354,490,l),
(342,490,o),
(335,481,o),
(335,472,cs),
(335,464,o),
(342,455,o),
(354,455,c),
(399,455,o),
(395,430,o),
(391,405,c)
);
},
{
closed = 1;
nodes = (
(455,430,o),
(460,455,o),
(504,455,c),
(516,455,o),
(523,464,o),
(523,472,cs),
(523,481,o),
(516,490,o),
(504,490,c),
(444,490,l),
(450,405,l)
);
}
);
width = 523;
},
{
anchors = (
{
name = bottom;
pos = (312,0);
},
{
name = top;
pos = (312,490);
}
);
layerId = m006;
shapes = (
{
closed = 1;
nodes = (
(433,0,l),
(503,167,o),
(530,323,o),
(570,490,c),
(425,490,l),
(418,288,o),
(370,147,o),
(363,120,c),
(326,147,o),
(278,288,o),
(271,490,c),
(51,490,l),
(91,323,o),
(123,90,o),
(348,-60,c)
);
},
{
closed = 1;
nodes = (
(208,-200,ls),
(295,-200,o),
(367,-136,o),
(433,0,c),
(323,-1,l),
(277,-94,o),
(253,-125,o),
(213,-125,cs),
(195,-125,o),
(189,-75,o),
(139,-75,cs),
(89,-75,o),
(109,-200,o),
(109,-200,c)
);
},
{
closed = 1;
nodes = (
(79,490,l),
(19,490,l),
(7,490,o),
(0,481,o),
(0,472,cs),
(0,464,o),
(7,455,o),
(19,455,c),
(63,455,o),
(67,430,o),
(73,405,c)
);
},
{
closed = 1;
nodes = (
(273,430,o),
(268,455,o),
(313,455,c),
(325,455,o),
(332,464,o),
(332,472,cs),
(332,481,o),
(325,490,o),
(313,490,c),
(253,490,l),
(276,405,l)
);
},
{
closed = 1;
nodes = (
(443,490,l),
(383,490,l),
(371,490,o),
(364,481,o),
(364,472,cs),
(364,464,o),
(371,455,o),
(383,455,c),
(428,455,o),
(423,430,o),
(420,405,c)
);
},
{
closed = 1;
nodes = (
(556,430,o),
(560,455,o),
(604,455,c),
(616,455,o),
(623,464,o),
(623,472,cs),
(623,481,o),
(616,490,o),
(604,490,c),
(544,490,l),
(550,405,l)
);
}
);
width = 623;
},
{
anchors = (
{
name = bottom;
pos = (260,0);
},
{
name = top;
pos = (260,490);
}
);
layerId = m007;
shapes = (
{
closed = 1;
nodes = (
(314,0,l),
(393,162,o),
(430,320,o),
(463,490,c),
(404,490,l),
(381,334,o),
(346,187,o),
(288,53,c),
(196,189,o),
(167,336,o),
(145,490,c),
(56,490,l),
(89,320,o),
(126,162,o),
(271,-48,c)
);
},
{
closed = 1;
nodes = (
(126,-200,ls),
(204,-200,o),
(241,-150,o),
(314,0,c),
(268,0,l),
(212,-117,o),
(180,-162,o),
(136,-162,cs),
(106,-162,o),
(101,-100,o),
(71,-100,cs),
(41,-100,o),
(66,-200,o),
(66,-200,c)
);
},
{
closed = 1;
nodes = (
(79,490,l),
(19,490,ls),
(7,490,o),
(0,486,o),
(0,477,cs),
(0,469,o),
(7,465,o),
(19,465,cs),
(63,465,o),
(68,430,o),
(73,405,c)
);
},
{
closed = 1;
nodes = (
(154,430,o),
(150,465,o),
(195,465,cs),
(207,465,o),
(214,469,o),
(214,477,cs),
(214,486,o),
(207,490,o),
(195,490,cs),
(135,490,l),
(158,405,l)
);
},
{
closed = 1;
nodes = (
(414,490,l),
(354,490,ls),
(342,490,o),
(335,486,o),
(335,477,cs),
(335,469,o),
(342,465,o),
(354,465,cs),
(399,465,o),
(395,430,o),
(391,405,c)
);
},
{
closed = 1;
nodes = (
(451,430,o),
(456,465,o),
(500,465,cs),
(512,465,o),
(519,469,o),
(519,477,cs),
(519,486,o),
(512,490,o),
(500,490,cs),
(440,490,l),
(446,405,l)
);
}
);
width = 519;
},
{
anchors = (
{
name = bottom;
pos = (262,0);
},
{
name = top;
pos = (262,490);
}
);
hints = (
{
horizontal = 1;
place = (-175,85);
type = Stem;
},
{
place = (35,475);
type = Stem;
}
);
layerId = m008;
shapes = (
{
closed = 1;
nodes = (
(317,0,l),
(399,167,o),
(435,323,o),
(467,490,c),
(404,490,l),
(382,340,o),
(349,200,o),
(299,80,c),
(219,200,o),
(191,340,o),
(169,490,c),
(56,490,l),
(88,323,o),
(124,160,o),
(274,-40,c)
);
},
{
closed = 1;
nodes = (
(129,-200,ls),
(207,-200,o),
(244,-150,o),
(317,0,c),
(269,0,l),
(213,-117,o),
(180,-156,o),
(139,-156,cs),
(109,-156,o),
(104,-100,o),
(74,-100,cs),
(44,-100,o),
(69,-200,o),
(69,-200,c)
);
},
{
closed = 1;
nodes = (
(79,490,l),
(19,490,l),
(7,490,o),
(0,486,o),
(0,477,cs),
(0,469,o),
(7,465,o),
(19,465,c),
(63,465,o),
(68,430,o),
(73,405,c)
);
},
{
closed = 1;
nodes = (
(178,430,o),
(174,465,o),
(219,465,c),
(231,465,o),
(238,469,o),
(238,477,cs),
(238,486,o),
(231,490,o),
(219,490,c),
(159,490,l),
(182,405,l)
);
},
{
closed = 1;
nodes = (
(414,490,l),
(354,490,l),
(342,490,o),
(335,486,o),
(335,477,cs),
(335,469,o),
(342,465,o),
(354,465,c),
(399,465,o),
(395,430,o),
(391,405,c)
);
},
{
closed = 1;
nodes = (
(455,430,o),
(460,465,o),
(504,465,c),
(516,465,o),
(523,469,o),
(523,477,cs),
(523,486,o),
(516,490,o),
(504,490,c),
(444,490,l),
(450,405,l)
);
}
);
width = 523;
},
{
anchors = (
{
name = bottom;
pos = (302,0);
},
{
name = top;
pos = (302,490);
}
);
layerId = m009;
shapes = (
{
closed = 1;
nodes = (
(423,0,l),
(493,167,o),
(520,323,o),
(560,490,c),
(415,490,l),
(408,288,o),
(360,147,o),
(353,120,c),
(316,147,o),
(268,288,o),
(261,490,c),
(41,490,l),
(81,323,o),
(113,90,o),
(338,-60,c)
);
},
{
closed = 1;
nodes = (
(198,-200,ls),
(285,-200,o),
(357,-136,o),
(423,0,c),
(313,-1,l),
(267,-94,o),
(243,-155,o),
(203,-155,cs),
(185,-155,o),
(179,-75,o),
(129,-75,cs),
(79,-75,o),
(99,-200,o),
(99,-200,c)
);
},
{
closed = 1;
nodes = (
(69,490,l),
(9,490,l),
(-3,490,o),
(-10,486,o),
(-10,477,cs),
(-10,469,o),
(-3,465,o),
(9,465,c),
(53,465,o),
(57,430,o),
(63,405,c)
);
},
{
closed = 1;
nodes = (
(263,430,o),
(258,465,o),
(303,465,c),
(315,465,o),
(322,469,o),
(322,477,cs),
(322,486,o),
(315,490,o),
(303,490,c),
(243,490,l),
(266,405,l)
);
},
{
closed = 1;
nodes = (
(433,490,l),
(373,490,l),
(361,490,o),
(354,486,o),
(354,477,cs),
(354,469,o),
(361,465,o),
(373,465,c),
(418,465,o),
(413,430,o),
(410,405,c)
);
},
{
closed = 1;
nodes = (
(546,430,o),
(550,465,o),
(594,465,c),
(606,465,o),
(613,469,o),
(613,477,cs),
(613,486,o),
(606,490,o),
(594,490,c),
(534,490,l),
(540,405,l)
);
}
);
width = 603;
}
);
metricLeft = "=v";
metricRight = "=v";
note = y;
unicode = 121;
}
{
glyphname = z;
layers = (
{
anchors = (
{
name = bottom;
pos = (197,0);
},
{
name = center;
pos = (197,245);
},
{
name = top;
pos = (197,490);
}
);
layerId = m004;
shapes = (
{
closed = 1;
nodes = (
(339,458,ls),
(347,471,o),
(349,500,o),
(325,500,cs),
(42,500,l),
(42,450,l),
(270,450,l),
(37,70,ls),
(30,60,o),
(27,45,o),
(27,27,cs),
(27,0,l),
(352,0,l),
(352,50,l),
(103,50,l)
);
},
{
pos = (41,0);
ref = _serif.z;
},
{
angle = 180;
pos = (352,500);
ref = _serif.z;
}
);
width = 393;
},
{
anchors = (
{
name = bottom;
pos = (204,0);
},
{
name = center;
pos = (204,245);
},
{
name = top;
pos = (204,490);
}
);
hints = (
{
horizontal = 1;
place = (25,95);
type = Stem;
},
{
horizontal = 1;
place = (455,95);
type = Stem;
},
{
place = (65,375);
type = Stem;
}
);
layerId = m005;
shapes = (
{
closed = 1;
nodes = (
(356,458,ls),
(371,483,o),
(359,500,o),
(331,500,cs),
(35,500,l),
(35,440,l),
(265,440,l),
(32,70,ls),
(23,56,o),
(20,44,o),
(20,27,cs),
(20,0,l),
(370,0,l),
(370,60,l),
(120,60,l)
);
},
{
pos = (35,0);
ref = _serif.z;
},
{
angle = 180;
pos = (372,500);
ref = _serif.z;
}
);
width = 407;
},
{
anchors = (
{
name = bottom;
pos = (244,0);
},
{
name = center;
pos = (244,245);
},
{
name = top;
pos = (244,490);
}
);
layerId = m006;
shapes = (
{
closed = 1;
nodes = (
(438,424,ls),
(466,466,o),
(450,500,o),
(398,500,cs),
(26,500,l),
(26,425,l),
(256,425,l),
(41,108,ls),
(22,81,o),
(11,62,o),
(11,30,cs),
(11,0,l),
(461,0,l),
(461,75,l),
(206,75,l)
);
},
{
pos = (25,0);
ref = _serif.z;
},
{
angle = 180;
pos = (462,500);
ref = _serif.z;
}
);
width = 487;
},
{
anchors = (
{
name = bottom;
pos = (205,0);
},
{
name = center;
pos = (205,245);
},
{
name = top;
pos = (205,490);
}
);
layerId = m007;
shapes = (
{
closed = 1;
nodes = (
(339,458,ls),
(346,471,o),
(349,500,o),
(325,500,cs),
(42,500,l),
(42,462,l),
(270,462,l),
(37,58,ls),
(31,48,o),
(27,33,o),
(27,15,cs),
(27,0,l),
(352,0,l),
(352,38,l),
(103,38,l)
);
},
{
pos = (41,0);
ref = _serif.z;
},
{
angle = 180;
pos = (352,500);
ref = _serif.z;
}
);
width = 393;
},
{
anchors = (
{
name = bottom;
pos = (204,0);
},
{
name = center;
pos = (204,245);
},
{
name = top;
pos = (204,490);
}
);
hints = (
{
horizontal = 1;
place = (25,95);
type = Stem;
},
{
horizontal = 1;
place = (455,95);
type = Stem;
},
{
place = (65,375);
type = Stem;
}
);
layerId = m008;
shapes = (
{
closed = 1;
nodes = (
(356,458,ls),
(370,483,o),
(359,500,o),
(331,500,cs),
(35,500,l),
(35,456,l),
(265,456,l),
(32,70,ls),
(23,56,o),
(20,44,o),
(20,27,cs),
(20,0,l),
(370,0,l),
(370,44,l),
(120,44,l)
);
},
{
pos = (35,0);
ref = _serif.z;
},
{
angle = 180;
pos = (372,500);
ref = _serif.z;
}
);
width = 407;
},
{
anchors = (
{
name = bottom;
pos = (239,0);
},
{
name = center;
pos = (239,245);
},
{
name = top;
pos = (239,490);
}
);
layerId = m009;
shapes = (
{
closed = 1;
nodes = (
(433,424,ls),
(459,466,o),
(445,500,o),
(393,500,cs),
(21,500,l),
(21,450,l),
(251,450,l),
(36,108,ls),
(18,80,o),
(6,62,o),
(6,30,cs),
(6,0,l),
(456,0,l),
(456,50,l),
(201,50,l)
);
},
{
pos = (20,0);
ref = _serif.z;
},
{
angle = 180;
pos = (457,500);
ref = _serif.z;
}
);
width = 477;
}
);
metricLeft = "=o/2";
metricRight = "=o/2";
note = z;
unicode = 122;
}
{
glyphname = bar;
layers = (
{
layerId = m004;
shapes = (
{
closed = 1;
nodes = (
(118,-200,l),
(118,700,l),
(43,700,l),
(43,-200,l)
);
}
);
width = 161;
},
{
hints = (
{
horizontal = 1;
place = (-200,900);
type = Stem;
},
{
place = (95,85);
type = Stem;
}
);
layerId = m005;
shapes = (
{
closed = 1;
nodes = (
(130,-200,l),
(130,700,l),
(30,700,l),
(30,-200,l)
);
}
);
width = 160;
},
{
layerId = m006;
shapes = (
{
closed = 1;
nodes = (
(200,-200,l),
(200,700,l),
(0,700,l),
(0,-200,l)
);
}
);
width = 200;
},
{
layerId = m007;
shapes = (
{
closed = 1;
nodes = (
(118,-200,l),
(118,700,l),
(43,700,l),
(43,-200,l)
);
}
);
width = 161;
},
{
hints = (
{
horizontal = 1;
place = (-200,900);
type = Stem;
},
{
place = (95,85);
type = Stem;
}
);
layerId = m008;
shapes = (
{
closed = 1;
nodes = (
(130,-200,l),
(130,700,l),
(30,700,l),
(30,-200,l)
);
}
);
width = 160;
},
{
layerId = m009;
shapes = (
{
closed = 1;
nodes = (
(200,-200,l),
(200,700,l),
(0,700,l),
(0,-200,l)
);
}
);
width = 200;
}
);
metricLeft = "=H";
metricRight = "=H";
note = bar;
unicode = 124;
}
{
glyphname = asciitilde;
layers = (
{
layerId = m004;
shapes = (
{
closed = 1;
nodes = (
(104,217,l),
(129,237,o),
(168,255,o),
(210,255,cs),
(280,255,o),
(319,195,o),
(390,195,cs),
(435,195,o),
(479,220,o),
(509,246,c),
(496,283,l),
(471,263,o),
(432,245,o),
(390,245,cs),
(320,245,o),
(281,305,o),
(210,305,cs),
(165,305,o),
(121,280,o),
(91,254,c)
);
}
);
width = 600;
},
{
hints = (
{
horizontal = 1;
place = (245,65);
type = Stem;
},
{
place = (25,450);
type = Stem;
},
{
horizontal = 1;
place = (190,65);
type = Stem;
}
);
layerId = m005;
shapes = (
{
closed = 1;
nodes = (
(100,205,l),
(100,205,o),
(145,250,o),
(210,250,cs),
(275,250,o),
(315,190,o),
(390,190,cs),
(465,190,o),
(525,250,o),
(525,250,c),
(500,295,l),
(500,295,o),
(455,250,o),
(390,250,cs),
(325,250,o),
(285,310,o),
(210,310,cs),
(135,310,o),
(75,250,o),
(75,250,c)
);
}
);
width = 600;
},
{
layerId = m006;
shapes = (
{
closed = 1;
nodes = (
(100,190,l),
(100,190,o),
(145,235,o),
(210,235,cs),
(275,235,o),
(315,175,o),
(390,175,cs),
(465,175,o),
(525,235,o),
(525,235,c),
(500,310,l),
(500,310,o),
(455,265,o),
(390,265,cs),
(325,265,o),
(285,325,o),
(210,325,cs),
(135,325,o),
(75,265,o),
(75,265,c)
);
}
);
width = 600;
},
{
layerId = m007;
shapes = (
{
closed = 1;
nodes = (
(104,224,l),
(129,244,o),
(168,262,o),
(210,262,cs),
(280,262,o),
(319,202,o),
(390,202,cs),
(435,202,o),
(479,227,o),
(509,253,c),
(496,276,l),
(471,256,o),
(432,238,o),
(390,238,cs),
(320,238,o),
(281,298,o),
(210,298,cs),
(165,298,o),
(121,273,o),
(91,247,c)
);
}
);
width = 600;
},
{
hints = (
{
horizontal = 1;
place = (245,65);
type = Stem;
},
{
place = (25,450);
type = Stem;
},
{
horizontal = 1;
place = (190,65);
type = Stem;
}
);
layerId = m008;
shapes = (
{
closed = 1;
nodes = (
(100,208,l),
(100,208,o),
(145,253,o),
(210,253,cs),
(275,253,o),
(315,193,o),
(390,193,cs),
(465,193,o),
(525,253,o),
(525,253,c),
(500,292,l),
(500,292,o),
(455,247,o),
(390,247,cs),
(325,247,o),
(285,307,o),
(210,307,cs),
(135,307,o),
(75,247,o),
(75,247,c)
);
}
);
width = 600;
},
{
layerId = m009;
shapes = (
{
closed = 1;
nodes = (
(100,198,l),
(100,198,o),
(145,243,o),
(210,243,cs),
(275,243,o),
(315,183,o),
(390,183,cs),
(465,183,o),
(525,243,o),
(525,243,c),
(500,303,l),
(500,303,o),
(455,258,o),
(390,258,cs),
(325,258,o),
(285,318,o),
(210,318,cs),
(135,318,o),
(75,258,o),
(75,258,c)
);
}
);
width = 600;
}
);
note = asciitilde;
unicode = 126;
}
{
glyphname = cent;
layers = (
{
layerId = m004;
shapes = (
{
closed = 1;
nodes = (
(270,-70,l),
(270,570,l),
(220,570,l),
(220,-70,l)
);
},
{
ref = c;
}
);
width = 399;
},
{
hints = (
{
horizontal = 1;
place = (-9,79);
type = Stem;
},
{
horizontal = 1;
place = (435,150);
type = Stem;
},
{
place = (40,100);
type = Stem;
},
{
place = (220,50);
type = Stem;
},
{
horizontal = 1;
place = (-85,155);
type = Stem;
},
{
horizontal = 1;
place = (-9,21);
target = up;
type = BottomGhost;
}
);
layerId = m005;
shapes = (
{
closed = 1;
nodes = (
(275,-70,l),
(275,570,l),
(215,570,l),
(215,-70,l)
);
},
{
ref = c;
}
);
width = 414;
},
{
layerId = m006;
shapes = (
{
closed = 1;
nodes = (
(320,-70,l),
(320,570,l),
(230,570,l),
(230,-70,l)
);
},
{
ref = c;
}
);
width = 451;
},
{
associatedMasterId = m004;
attr = {
axisRules = (
{
min = 500;
},
{
}
);
};
layerId = "631101AE-EC04-4BD0-B751-16FDEDC812ED";
name = "13. Jan. 24, 14:07";
shapes = (
{
closed = 1;
nodes = (
(270,497,l),
(270,570,l),
(220,570,l),
(220,497,l)
);
},
{
closed = 1;
nodes = (
(220,-3,l),
(220,-70,l),
(270,-70,l),
(270,-3,l)
);
},
{
ref = c;
}
);
width = 399;
},
{
associatedMasterId = m005;
attr = {
axisRules = (
{
min = 500;
},
{
}
);
};
hints = (
{
horizontal = 1;
place = (-9,79);
type = Stem;
},
{
horizontal = 1;
place = (435,150);
type = Stem;
},
{
place = (40,100);
type = Stem;
},
{
place = (220,50);
type = Stem;
},
{
horizontal = 1;
place = (-85,155);
type = Stem;
},
{
horizontal = 1;
place = (-9,21);
target = up;
type = BottomGhost;
}
);
layerId = "F38CDD38-3065-406C-8CE8-37FE03967503";
name = "13. Jan. 24, 14:07";
shapes = (
{
closed = 1;
nodes = (
(275,483,l),
(275,570,l),
(215,570,l),
(215,483,l)
);
},
{
closed = 1;
nodes = (
(215,14,l),
(215,-70,l),
(275,-70,l),
(275,14,l)
);
},
{
ref = c;
}
);
width = 414;
},
{
associatedMasterId = m006;
attr = {
axisRules = (
{
min = 500;
},
{
}
);
};
layerId = "8BC136CB-7BF0-4322-A106-2FE522FB4428";
name = "13. Jan. 24, 14:08";
shapes = (
{
closed = 1;
nodes = (
(320,475,l),
(320,570,l),
(230,570,l),
(230,475,l)
);
},
{
closed = 1;
nodes = (
(230,46,l),
(230,-70,l),
(320,-70,l),
(320,46,l)
);
},
{
ref = c;
}
);
width = 451;
},
{
layerId = m007;
shapes = (
{
closed = 1;
nodes = (
(264,-70,l),
(264,570,l),
(226,570,l),
(226,-70,l)
);
},
{
ref = c;
}
);
width = 399;
},
{
associatedMasterId = m007;
attr = {
axisRules = (
{
min = 500;
},
{
}
);
};
layerId = "295D5434-D8E1-41F2-A3D8-8D3B999B4DF8";
name = "13. Jan. 24, 14:07";
shapes = (
{
closed = 1;
nodes = (
(264,497,l),
(264,570,l),
(226,570,l),
(226,497,l)
);
},
{
closed = 1;
nodes = (
(226,-3,l),
(226,-70,l),
(264,-70,l),
(264,-3,l)
);
},
{
ref = c;
}
);
width = 399;
},
{
hints = (
{
horizontal = 1;
place = (-9,79);
type = Stem;
},
{
horizontal = 1;
place = (435,150);
type = Stem;
},
{
place = (40,100);
type = Stem;
},
{
place = (220,50);
type = Stem;
},
{
horizontal = 1;
place = (-85,155);
type = Stem;
},
{
horizontal = 1;
place = (-9,21);
target = up;
type = BottomGhost;
}
);
layerId = m008;
shapes = (
{
closed = 1;
nodes = (
(275,-70,l),
(275,570,l),
(215,570,l),
(215,-70,l)
);
},
{
ref = c;
}
);
width = 414;
},
{
associatedMasterId = m008;
attr = {
axisRules = (
{
min = 500;
},
{
}
);
};
hints = (
{
horizontal = 1;
place = (-9,79);
type = Stem;
},
{
horizontal = 1;
place = (435,150);
type = Stem;
},
{
place = (40,100);
type = Stem;
},
{
place = (220,50);
type = Stem;
},
{
horizontal = 1;
place = (-85,155);
type = Stem;
},
{
horizontal = 1;
place = (-9,21);
target = up;
type = BottomGhost;
}
);
layerId = "D20E8161-56C6-4ABD-AA40-C61F97B1BB4C";
name = "13. Jan. 24, 14:07";
shapes = (
{
closed = 1;
nodes = (
(275,483,l),
(275,570,l),
(215,570,l),
(215,483,l)
);
},
{
closed = 1;
nodes = (
(215,14,l),
(215,-70,l),
(275,-70,l),
(275,14,l)
);
},
{
ref = c;
}
);
width = 414;
},
{
layerId = m009;
shapes = (
{
closed = 1;
nodes = (
(310,-70,l),
(310,570,l),
(220,570,l),
(220,-70,l)
);
},
{
ref = c;
}
);
width = 436;
},
{
associatedMasterId = m009;
attr = {
axisRules = (
{
min = 500;
},
{
}
);
};
layerId = "0FFD6A42-E410-403A-B6CE-8B8B5FD8534F";
name = "13. Jan. 24, 14:08";
shapes = (
{
closed = 1;
nodes = (
(310,475,l),
(310,570,l),
(220,570,l),
(220,475,l)
);
},
{
closed = 1;
nodes = (
(220,16,l),
(220,-70,l),
(310,-70,l),
(310,16,l)
);
},
{
ref = c;
}
);
width = 436;
}
);
metricLeft = "=c";
metricRight = "=c";
note = cent;
unicode = 162;
}
{
glyphname = currency;
layers = (
{
layerId = m004;
shapes = (
{
closed = 1;
nodes = (
(346,165,o),
(425,243,o),
(425,340,cs),
(425,437,o),
(346,515,o),
(250,515,cs),
(153,515,o),
(75,437,o),
(75,340,cs),
(75,243,o),
(153,165,o),
(250,165,cs)
);
},
{
closed = 1;
nodes = (
(156,218,l),
(125,243,l),
(59,177,l),
(87,149,l)
);
},
{
closed = 1;
nodes = (
(153,465,l),
(87,531,l),
(59,503,l),
(128,434,l)
);
},
{
closed = 1;
nodes = (
(181,215,o),
(125,271,o),
(125,340,cs),
(125,409,o),
(181,465,o),
(250,465,cs),
(319,465,o),
(375,409,o),
(375,340,cs),
(375,271,o),
(319,215,o),
(250,215,cs)
);
},
{
closed = 1;
nodes = (
(441,177,l),
(373,245,l),
(345,217,l),
(413,149,l)
);
},
{
closed = 1;
nodes = (
(441,503,l),
(413,531,l),
(345,463,l),
(371,433,l)
);
}
);
width = 500;
},
{
layerId = m005;
shapes = (
{
closed = 1;
nodes = (
(346,165,o),
(425,243,o),
(425,340,cs),
(425,437,o),
(346,515,o),
(250,515,cs),
(153,515,o),
(75,437,o),
(75,340,cs),
(75,243,o),
(153,165,o),
(250,165,cs)
);
},
{
closed = 1;
nodes = (
(160,214,l),
(121,247,l),
(55,181,l),
(91,145,l)
);
},
{
closed = 1;
nodes = (
(157,469,l),
(91,535,l),
(55,499,l),
(124,430,l)
);
},
{
closed = 1;
nodes = (
(194,240,o),
(150,284,o),
(150,340,cs),
(150,396,o),
(194,440,o),
(250,440,cs),
(305,440,o),
(350,396,o),
(350,340,cs),
(350,284,o),
(305,240,o),
(250,240,cs)
);
},
{
closed = 1;
nodes = (
(445,181,l),
(377,249,l),
(341,213,l),
(409,145,l)
);
},
{
closed = 1;
nodes = (
(445,499,l),
(409,535,l),
(341,467,l),
(375,429,l)
);
}
);
width = 500;
},
{
layerId = m006;
shapes = (
{
closed = 1;
nodes = (
(346,165,o),
(425,243,o),
(425,340,cs),
(425,437,o),
(346,515,o),
(250,515,cs),
(153,515,o),
(75,437,o),
(75,340,cs),
(75,243,o),
(153,165,o),
(250,165,cs)
);
},
{
closed = 1;
nodes = (
(169,205,l),
(112,256,l),
(46,190,l),
(100,136,l)
);
},
{
closed = 1;
nodes = (
(166,478,l),
(100,544,l),
(46,490,l),
(115,421,l)
);
},
{
closed = 1;
nodes = (
(222,290,o),
(200,312,o),
(200,340,cs),
(200,368,o),
(222,390,o),
(250,390,cs),
(277,390,o),
(300,368,o),
(300,340,cs),
(300,312,o),
(277,290,o),
(250,290,cs)
);
},
{
closed = 1;
nodes = (
(454,190,l),
(386,258,l),
(332,204,l),
(400,136,l)
);
},
{
closed = 1;
nodes = (
(454,490,l),
(400,544,l),
(332,476,l),
(384,420,l)
);
}
);
width = 500;
},
{
layerId = m007;
shapes = (
{
closed = 1;
nodes = (
(346,165,o),
(425,243,o),
(425,340,cs),
(425,437,o),
(346,515,o),
(250,515,cs),
(153,515,o),
(75,437,o),
(75,340,cs),
(75,243,o),
(153,165,o),
(250,165,cs)
);
},
{
closed = 1;
nodes = (
(156,218,l),
(125,243,l),
(59,177,l),
(87,149,l)
);
},
{
closed = 1;
nodes = (
(153,465,l),
(87,531,l),
(59,503,l),
(128,434,l)
);
},
{
closed = 1;
nodes = (
(181,215,o),
(125,271,o),
(125,340,cs),
(125,409,o),
(181,465,o),
(250,465,cs),
(319,465,o),
(375,409,o),
(375,340,cs),
(375,271,o),
(319,215,o),
(250,215,cs)
);
},
{
closed = 1;
nodes = (
(441,177,l),
(373,245,l),
(345,217,l),
(413,149,l)
);
},
{
closed = 1;
nodes = (
(441,503,l),
(413,531,l),
(345,463,l),
(371,433,l)
);
}
);
width = 500;
},
{
layerId = m008;
shapes = (
{
closed = 1;
nodes = (
(346,165,o),
(425,243,o),
(425,340,cs),
(425,437,o),
(346,515,o),
(250,515,cs),
(153,515,o),
(75,437,o),
(75,340,cs),
(75,243,o),
(153,165,o),
(250,165,cs)
);
},
{
closed = 1;
nodes = (
(160,214,l),
(121,247,l),
(55,181,l),
(91,145,l)
);
},
{
closed = 1;
nodes = (
(157,469,l),
(91,535,l),
(55,499,l),
(124,430,l)
);
},
{
closed = 1;
nodes = (
(194,240,o),
(150,284,o),
(150,340,cs),
(150,396,o),
(194,440,o),
(250,440,cs),
(305,440,o),
(350,396,o),
(350,340,cs),
(350,284,o),
(305,240,o),
(250,240,cs)
);
},
{
closed = 1;
nodes = (
(445,181,l),
(377,249,l),
(341,213,l),
(409,145,l)
);
},
{
closed = 1;
nodes = (
(445,499,l),
(409,535,l),
(341,467,l),
(375,429,l)
);
}
);
width = 500;
},
{
layerId = m009;
shapes = (
{
closed = 1;
nodes = (
(346,165,o),
(425,243,o),
(425,340,cs),
(425,437,o),
(346,515,o),
(250,515,cs),
(153,515,o),
(75,437,o),
(75,340,cs),
(75,243,o),
(153,165,o),
(250,165,cs)
);
},
{
closed = 1;
nodes = (
(169,205,l),
(112,256,l),
(46,190,l),
(100,136,l)
);
},
{
closed = 1;
nodes = (
(166,478,l),
(100,544,l),
(46,490,l),
(115,421,l)
);
},
{
closed = 1;
nodes = (
(222,290,o),
(200,312,o),
(200,340,cs),
(200,368,o),
(222,390,o),
(250,390,cs),
(277,390,o),
(300,368,o),
(300,340,cs),
(300,312,o),
(277,290,o),
(250,290,cs)
);
},
{
closed = 1;
nodes = (
(454,190,l),
(386,258,l),
(332,204,l),
(400,136,l)
);
},
{
closed = 1;
nodes = (
(454,490,l),
(400,544,l),
(332,476,l),
(384,420,l)
);
}
);
width = 500;
}
);
unicode = 164;
}
{
glyphname = section;
layers = (
{
layerId = m004;
shapes = (
{
closed = 1;
nodes = (
(299,-77,o),
(364,-11,o),
(364,88,cs),
(364,178,o),
(305,214,o),
(232,240,cs),
(159,266,o),
(96,298,o),
(96,341,cs),
(96,380,o),
(107,417,o),
(150,437,c),
(121,475,l),
(91,449,o),
(59,400,o),
(59,341,cs),
(59,247,o),
(121,199,o),
(190,176,cs),
(263,151,o),
(289,129,o),
(289,88,cs),
(289,32,o),
(258,-27,o),
(191,-27,c),
(191,-77,l)
);
},
{
closed = 1;
nodes = (
(191,-27,l),
(86,-26,o),
(99,73,o),
(84,73,cs),
(69,73,o),
(50,8,o),
(52,-45,c),
(86,-61,o),
(130,-77,o),
(191,-77,c)
);
},
{
closed = 1;
nodes = (
(338,177,o),
(364,226,o),
(364,289,cs),
(364,389,o),
(306,441,o),
(232,464,cs),
(159,486,o),
(134,508,o),
(134,542,cs),
(134,579,o),
(157,627,o),
(211,627,c),
(211,677,l),
(122,677,o),
(69,623,o),
(69,542,cs),
(69,458,o),
(123,424,o),
(190,400,cs),
(263,374,o),
(327,339,o),
(327,289,cs),
(327,248,o),
(314,215,o),
(286,187,c),
(314,149,l)
);
},
{
closed = 1;
nodes = (
(328,547,o),
(336,595,o),
(335,645,c),
(302,661,o),
(262,677,o),
(211,677,c),
(211,627,l),
(290,627,o),
(298,547,o),
(313,547,cs)
);
}
);
width = 416;
},
{
hints = (
{
horizontal = 1;
place = (-10,64);
type = Stem;
},
{
horizontal = 1;
place = (649,61);
type = Stem;
},
{
place = (40,68);
type = Stem;
},
{
place = (259,84);
type = Stem;
}
);
layerId = m005;
shapes = (
{
closed = 1;
nodes = (
(304,-77,o),
(377,-12,o),
(377,88,cs),
(377,175,o),
(316,212,o),
(237,240,cs),
(170,264,o),
(109,294,o),
(109,341,cs),
(109,387,o),
(127,425,o),
(160,439,c),
(125,483,l),
(77,450,o),
(47,395,o),
(47,341,cs),
(47,250,o),
(112,201,o),
(187,176,cs),
(252,154,o),
(277,132,o),
(277,88,cs),
(277,40,o),
(247,-17,o),
(192,-17,c),
(192,-77,l)
);
},
{
closed = 1;
nodes = (
(192,-17,l),
(97,-17,o),
(110,73,o),
(85,73,c),
(60,73,o),
(40,5,o),
(40,-42,c),
(40,-42,o),
(107,-77,o),
(192,-77,c)
);
},
{
closed = 1;
nodes = (
(354,176,o),
(377,232,o),
(377,289,cs),
(377,386,o),
(318,439,o),
(237,464,cs),
(171,484,o),
(147,505,o),
(147,542,cs),
(147,571,o),
(170,617,o),
(212,617,c),
(212,677,l),
(118,677,o),
(57,624,o),
(57,542,cs),
(57,461,o),
(114,426,o),
(187,400,cs),
(254,376,o),
(315,343,o),
(315,289,cs),
(315,246,o),
(301,210,o),
(277,186,c),
(313,138,l)
);
},
{
closed = 1;
nodes = (
(339,547,o),
(349,592,o),
(349,642,c),
(349,642,o),
(282,677,o),
(212,677,c),
(212,617,l),
(282,617,o),
(289,547,o),
(314,547,c)
);
}
);
width = 417;
},
{
layerId = m006;
shapes = (
{
closed = 1;
nodes = (
(390,-77,o),
(466,-24,o),
(466,88,cs),
(466,194,o),
(403,218,o),
(301,248,cs),
(244,265,o),
(161,288,o),
(161,323,cs),
(161,358,o),
(178,378,o),
(214,384,c),
(138,478,l),
(71,436,o),
(36,357,o),
(36,283,cs),
(36,212,o),
(96,157,o),
(201,123,cs),
(249,108,o),
(266,89,o),
(266,58,cs),
(266,20,o),
(250,-2,o),
(201,-2,c),
(231,-77,l)
);
},
{
closed = 1;
nodes = (
(201,-2,l),
(131,-2,o),
(117,83,o),
(59,83,c),
(1,83,o),
(25,-27,o),
(25,-27,c),
(25,-27,o),
(106,-77,o),
(231,-77,c)
);
},
{
closed = 1;
nodes = (
(432,168,o),
(466,247,o),
(466,322,cs),
(466,403,o),
(413,448,o),
(301,482,cs),
(246,499,o),
(226,517,o),
(226,547,cs),
(226,581,o),
(239,602,o),
(276,602,c),
(251,677,l),
(112,677,o),
(46,626,o),
(46,517,cs),
(46,421,o),
(106,388,o),
(201,357,cs),
(252,340,o),
(341,317,o),
(341,282,cs),
(341,247,o),
(325,230,o),
(284,219,c),
(361,124,l)
);
},
{
closed = 1;
nodes = (
(461,517,o),
(437,627,o),
(437,627,c),
(437,627,o),
(356,677,o),
(251,677,c),
(276,602,l),
(346,602,o),
(345,517,o),
(403,517,c)
);
}
);
width = 486;
},
{
layerId = m007;
shapes = (
{
closed = 1;
nodes = (
(299,-77,o),
(364,-11,o),
(364,88,cs),
(364,178,o),
(305,214,o),
(232,240,cs),
(159,266,o),
(96,298,o),
(96,341,cs),
(96,380,o),
(107,417,o),
(150,437,c),
(121,475,l),
(91,449,o),
(59,400,o),
(59,341,cs),
(59,247,o),
(121,199,o),
(190,176,cs),
(263,151,o),
(289,129,o),
(289,88,cs),
(289,20,o),
(258,-39,o),
(191,-39,c),
(191,-77,l)
);
},
{
closed = 1;
nodes = (
(191,-39,l),
(86,-38,o),
(99,73,o),
(84,73,cs),
(69,73,o),
(50,8,o),
(52,-45,c),
(86,-61,o),
(130,-77,o),
(191,-77,c)
);
},
{
closed = 1;
nodes = (
(338,177,o),
(364,226,o),
(364,289,cs),
(364,389,o),
(306,441,o),
(232,464,cs),
(159,486,o),
(134,508,o),
(134,542,cs),
(134,591,o),
(157,639,o),
(211,639,c),
(211,677,l),
(122,677,o),
(69,623,o),
(69,542,cs),
(69,458,o),
(123,424,o),
(190,400,cs),
(263,374,o),
(327,339,o),
(327,289,cs),
(327,248,o),
(314,215,o),
(286,187,c),
(314,149,l)
);
},
{
closed = 1;
nodes = (
(328,547,o),
(336,595,o),
(335,645,c),
(302,661,o),
(262,677,o),
(211,677,c),
(211,639,l),
(290,639,o),
(298,547,o),
(313,547,cs)
);
}
);
width = 416;
},
{
hints = (
{
horizontal = 1;
place = (-10,64);
type = Stem;
},
{
horizontal = 1;
place = (649,61);
type = Stem;
},
{
place = (40,68);
type = Stem;
},
{
place = (259,84);
type = Stem;
}
);
layerId = m008;
shapes = (
{
closed = 1;
nodes = (
(304,-77,o),
(377,-12,o),
(377,88,cs),
(377,175,o),
(316,212,o),
(237,240,cs),
(170,264,o),
(109,294,o),
(109,341,cs),
(109,387,o),
(127,425,o),
(160,439,c),
(125,483,l),
(77,450,o),
(47,395,o),
(47,341,cs),
(47,250,o),
(112,201,o),
(187,176,cs),
(252,154,o),
(277,132,o),
(277,88,cs),
(277,34,o),
(247,-23,o),
(192,-23,c),
(192,-77,l)
);
},
{
closed = 1;
nodes = (
(192,-23,l),
(97,-23,o),
(110,73,o),
(85,73,c),
(60,73,o),
(40,5,o),
(40,-42,c),
(40,-42,o),
(107,-77,o),
(192,-77,c)
);
},
{
closed = 1;
nodes = (
(354,176,o),
(377,232,o),
(377,289,cs),
(377,386,o),
(318,439,o),
(237,464,cs),
(171,484,o),
(147,505,o),
(147,542,cs),
(147,577,o),
(170,623,o),
(212,623,c),
(212,677,l),
(118,677,o),
(57,624,o),
(57,542,cs),
(57,461,o),
(114,426,o),
(187,400,cs),
(254,376,o),
(315,343,o),
(315,289,cs),
(315,246,o),
(301,210,o),
(277,186,c),
(313,138,l)
);
},
{
closed = 1;
nodes = (
(339,547,o),
(349,592,o),
(349,642,c),
(349,642,o),
(282,677,o),
(212,677,c),
(212,623,l),
(282,623,o),
(289,547,o),
(314,547,c)
);
}
);
width = 417;
},
{
layerId = m009;
shapes = (
{
closed = 1;
nodes = (
(380,-77,o),
(456,-24,o),
(456,88,cs),
(456,194,o),
(393,218,o),
(291,248,cs),
(234,265,o),
(151,288,o),
(151,323,cs),
(151,358,o),
(168,378,o),
(204,384,c),
(128,478,l),
(61,436,o),
(26,357,o),
(26,283,cs),
(26,212,o),
(86,157,o),
(191,123,cs),
(239,108,o),
(256,89,o),
(256,58,cs),
(256,-5,o),
(240,-27,o),
(191,-27,c),
(221,-77,l)
);
},
{
closed = 1;
nodes = (
(191,-27,l),
(121,-27,o),
(107,83,o),
(49,83,c),
(-9,83,o),
(15,-27,o),
(15,-27,c),
(15,-27,o),
(96,-77,o),
(221,-77,c)
);
},
{
closed = 1;
nodes = (
(422,168,o),
(456,247,o),
(456,322,cs),
(456,403,o),
(403,448,o),
(291,482,cs),
(236,499,o),
(216,517,o),
(216,547,cs),
(216,606,o),
(229,627,o),
(266,627,c),
(241,677,l),
(102,677,o),
(36,626,o),
(36,517,cs),
(36,421,o),
(96,388,o),
(191,357,cs),
(242,340,o),
(331,317,o),
(331,282,cs),
(331,247,o),
(315,230,o),
(274,219,c),
(351,124,l)
);
},
{
closed = 1;
nodes = (
(451,517,o),
(427,627,o),
(427,627,c),
(427,627,o),
(346,677,o),
(241,677,c),
(266,627,l),
(336,627,o),
(335,517,o),
(393,517,c)
);
}
);
width = 466;
}
);
metricLeft = "=|";
metricRight = "=s";
note = section;
unicode = 167;
}
{
glyphname = registered;
layers = (
{
layerId = m004;
shapes = (
{
closed = 1;
nodes = (
(566,-10,o),
(720,144,o),
(720,334,cs),
(720,523,o),
(566,677,o),
(377,677,cs),
(187,677,o),
(33,523,o),
(33,334,cs),
(33,144,o),
(187,-10,o),
(377,-10,cs)
);
},
{
closed = 1;
nodes = (
(216,40,o),
(83,173,o),
(83,334,cs),
(83,494,o),
(216,627,o),
(377,627,cs),
(537,627,o),
(670,494,o),
(670,334,cs),
(670,173,o),
(537,40,o),
(377,40,cs)
);
},
{
pos = (224,160);
ref = R;
scale = (0.52,0.52);
}
);
width = 753;
},
{
layerId = m005;
shapes = (
{
closed = 1;
nodes = (
(553,-10,o),
(707,144,o),
(707,334,cs),
(707,523,o),
(553,677,o),
(364,677,cs),
(174,677,o),
(20,523,o),
(20,334,cs),
(20,144,o),
(174,-10,o),
(364,-10,cs)
);
},
{
closed = 1;
nodes = (
(208,50,o),
(80,178,o),
(80,334,cs),
(80,489,o),
(208,617,o),
(364,617,cs),
(519,617,o),
(647,489,o),
(647,334,cs),
(647,178,o),
(519,50,o),
(364,50,cs)
);
},
{
pos = (206,160);
ref = R;
scale = (0.52,0.52);
}
);
width = 727;
},
{
layerId = m006;
shapes = (
{
closed = 1;
nodes = (
(543,-10,o),
(697,144,o),
(697,334,cs),
(697,523,o),
(543,677,o),
(354,677,cs),
(164,677,o),
(10,523,o),
(10,334,cs),
(10,144,o),
(164,-10,o),
(354,-10,cs)
);
},
{
closed = 1;
nodes = (
(220,90,o),
(110,200,o),
(110,334,cs),
(110,467,o),
(220,577,o),
(354,577,cs),
(487,577,o),
(597,467,o),
(597,334,cs),
(597,200,o),
(487,90,o),
(354,90,cs)
);
},
{
pos = (171,160);
ref = R;
scale = (0.52,0.52);
}
);
width = 707;
},
{
layerId = m007;
shapes = (
{
closed = 1;
nodes = (
(566,-10,o),
(720,144,o),
(720,334,cs),
(720,523,o),
(566,677,o),
(377,677,cs),
(187,677,o),
(33,523,o),
(33,334,cs),
(33,144,o),
(187,-10,o),
(377,-10,cs)
);
},
{
closed = 1;
nodes = (
(207,25,o),
(68,164,o),
(68,334,cs),
(68,503,o),
(207,642,o),
(377,642,cs),
(546,642,o),
(685,503,o),
(685,334,cs),
(685,164,o),
(546,25,o),
(377,25,cs)
);
},
{
pos = (217,160);
ref = R;
scale = (0.52,0.52);
}
);
width = 753;
},
{
layerId = m008;
shapes = (
{
closed = 1;
nodes = (
(553,-10,o),
(707,144,o),
(707,334,cs),
(707,523,o),
(553,677,o),
(364,677,cs),
(174,677,o),
(20,523,o),
(20,334,cs),
(20,144,o),
(174,-10,o),
(364,-10,cs)
);
},
{
closed = 1;
nodes = (
(205,44,o),
(74,175,o),
(74,334,cs),
(74,492,o),
(205,623,o),
(364,623,cs),
(522,623,o),
(653,492,o),
(653,334,cs),
(653,175,o),
(522,44,o),
(364,44,cs)
);
},
{
pos = (206,160);
ref = R;
scale = (0.52,0.52);
}
);
width = 727;
},
{
layerId = m009;
shapes = (
{
closed = 1;
nodes = (
(543,-10,o),
(697,144,o),
(697,334,cs),
(697,523,o),
(543,677,o),
(354,677,cs),
(164,677,o),
(10,523,o),
(10,334,cs),
(10,144,o),
(164,-10,o),
(354,-10,cs)
);
},
{
closed = 1;
nodes = (
(206,65,o),
(85,186,o),
(85,334,cs),
(85,481,o),
(206,602,o),
(354,602,cs),
(501,602,o),
(622,481,o),
(622,334,cs),
(622,186,o),
(501,65,o),
(354,65,cs)
);
},
{
pos = (172,160);
ref = R;
scale = (0.52,0.52);
}
);
width = 707;
}
);
metricLeft = "=O";
metricRight = "=O";
unicode = 174;
}
{
glyphname = macron;
layers = (
{
layerId = m004;
shapes = (
{
closed = 1;
nodes = (
(432,700,l),
(68,700,l),
(68,671,l),
(432,671,l)
);
}
);
width = 500;
},
{
hints = (
{
horizontal = 1;
place = (635,65);
type = Stem;
},
{
place = (50,400);
type = Stem;
}
);
layerId = m005;
shapes = (
{
closed = 1;
nodes = (
(450,700,l),
(50,700,l),
(50,635,l),
(450,635,l)
);
}
);
width = 500;
},
{
layerId = m006;
shapes = (
{
closed = 1;
nodes = (
(468,700,l),
(32,700,l),
(32,599,l),
(468,599,l)
);
}
);
width = 500;
},
{
layerId = m007;
shapes = (
{
closed = 1;
nodes = (
(432,700,l),
(68,700,l),
(68,671,l),
(432,671,l)
);
}
);
width = 500;
},
{
hints = (
{
horizontal = 1;
place = (635,65);
type = Stem;
},
{
place = (50,400);
type = Stem;
}
);
layerId = m008;
shapes = (
{
closed = 1;
nodes = (
(450,700,l),
(50,700,l),
(50,635,l),
(450,635,l)
);
}
);
width = 500;
},
{
layerId = m009;
shapes = (
{
closed = 1;
nodes = (
(468,700,l),
(32,700,l),
(32,599,l),
(468,599,l)
);
}
);
width = 500;
}
);
note = macron;
unicode = 175;
}
{
glyphname = plusminus;
layers = (
{
layerId = m004;
shapes = (
{
closed = 1;
nodes = (
(275,375,l),
(100,375,l),
(100,325,l),
(275,325,l),
(275,200,l),
(325,200,l),
(325,325,l),
(500,325,l),
(500,375,l),
(325,375,l),
(325,500,l),
(275,500,l)
);
},
{
pos = (0,-100);
ref = minus;
}
);
width = 600;
},
{
hints = (
{
horizontal = 1;
place = (85,65);
type = Stem;
},
{
horizontal = 1;
place = (368,65);
type = Stem;
},
{
place = (248,65);
type = Stem;
},
{
horizontal = 1;
place = (318,65);
type = Stem;
},
{
place = (248,65);
type = Stem;
}
);
layerId = m005;
shapes = (
{
closed = 1;
nodes = (
(270,380,l),
(100,380,l),
(100,320,l),
(270,320,l),
(270,200,l),
(330,200,l),
(330,320,l),
(500,320,l),
(500,380,l),
(330,380,l),
(330,500,l),
(270,500,l)
);
},
{
pos = (0,-100);
ref = minus;
}
);
width = 600;
},
{
layerId = m006;
shapes = (
{
closed = 1;
nodes = (
(256,396,l),
(100,396,l),
(100,306,l),
(256,306,l),
(256,200,l),
(346,200,l),
(346,306,l),
(500,306,l),
(500,396,l),
(346,396,l),
(346,500,l),
(256,500,l)
);
},
{
pos = (0,-100);
ref = minus;
}
);
width = 600;
},
{
layerId = m007;
shapes = (
{
closed = 1;
nodes = (
(281,369,l),
(100,369,l),
(100,331,l),
(281,331,l),
(281,200,l),
(319,200,l),
(319,331,l),
(500,331,l),
(500,369,l),
(319,369,l),
(319,500,l),
(281,500,l)
);
},
{
pos = (0,-100);
ref = minus;
}
);
width = 600;
},
{
hints = (
{
horizontal = 1;
place = (85,65);
type = Stem;
},
{
horizontal = 1;
place = (368,65);
type = Stem;
},
{
place = (248,65);
type = Stem;
},
{
horizontal = 1;
place = (318,65);
type = Stem;
},
{
place = (248,65);
type = Stem;
}
);
layerId = m008;
shapes = (
{
closed = 1;
nodes = (
(278,372,l),
(100,372,l),
(100,328,l),
(278,328,l),
(278,200,l),
(322,200,l),
(322,328,l),
(500,328,l),
(500,372,l),
(322,372,l),
(322,500,l),
(278,500,l)
);
},
{
pos = (0,-100);
ref = minus;
}
);
width = 560;
},
{
layerId = m009;
shapes = (
{
closed = 1;
nodes = (
(271,381,l),
(100,381,l),
(100,321,l),
(271,321,l),
(271,200,l),
(331,200,l),
(331,321,l),
(500,321,l),
(500,381,l),
(331,381,l),
(331,500,l),
(271,500,l)
);
},
{
pos = (0,-100);
ref = minus;
}
);
width = 600;
}
);
note = plusminus;
unicode = 177;
}
{
export = 0;
glyphname = twosuperior;
layers = (
{
layerId = m004;
width = 600;
},
{
hints = (
{
horizontal = 1;
place = (330,51);
type = Stem;
},
{
horizontal = 1;
place = (641,54);
type = Stem;
},
{
place = (70,99);
type = Stem;
},
{
place = (271,81);
type = Stem;
}
);
layerId = m005;
shapes = (
{
closed = 1;
nodes = (
(361,330,l),
(361,381,l),
(169,381,l),
(171,408,o),
(192,435,o),
(225,459,cs),
(267,489,o),
(352,533,o),
(352,585,cs),
(352,657,o),
(309,695,o),
(199,695,cs),
(149,695,o),
(101,680,o),
(72,659,c),
(97,606,l),
(140,627,o),
(170,641,o),
(199,641,cs),
(239,641,o),
(271,630,o),
(271,585,cs),
(271,545,o),
(211,530,o),
(173,502,cs),
(127,469,o),
(67,419,o),
(70,330,c)
);
}
);
width = 462;
},
{
layerId = m006;
width = 600;
},
{
layerId = m007;
width = 600;
},
{
hints = (
{
horizontal = 1;
place = (330,51);
type = Stem;
},
{
horizontal = 1;
place = (641,54);
type = Stem;
},
{
place = (70,99);
type = Stem;
},
{
place = (271,81);
type = Stem;
}
);
layerId = m008;
shapes = (
{
closed = 1;
nodes = (
(361,330,l),
(361,381,l),
(169,381,l),
(171,408,o),
(192,435,o),
(225,459,cs),
(267,489,o),
(352,533,o),
(352,585,cs),
(352,657,o),
(309,695,o),
(199,695,cs),
(149,695,o),
(101,680,o),
(72,659,c),
(97,606,l),
(140,627,o),
(170,641,o),
(199,641,cs),
(239,641,o),
(271,630,o),
(271,585,cs),
(271,545,o),
(211,530,o),
(173,502,cs),
(127,469,o),
(67,419,o),
(70,330,c)
);
}
);
width = 462;
},
{
layerId = m009;
width = 600;
}
);
note = twosuperior;
unicode = 178;
}
{
export = 0;
glyphname = threesuperior;
layers = (
{
layerId = m004;
width = 600;
},
{
hints = (
{
horizontal = 1;
place = (285,51);
type = Stem;
},
{
horizontal = 1;
place = (495,47);
type = Stem;
},
{
horizontal = 1;
place = (639.5,50.5);
type = Stem;
},
{
place = (78,242);
type = Stem;
},
{
place = (259,88);
type = Stem;
}
);
layerId = m005;
shapes = (
{
closed = 1;
nodes = (
(320,690,l),
(78,690,l),
(78,640,l),
(232,639,l),
(134,538,l),
(134,492,l),
(146,493,o),
(158,495,o),
(167,495,cs),
(240,495,o),
(259,460,o),
(259,422,cs),
(259,384,o),
(239,336,o),
(167,336,cs),
(149,336,o),
(127,340,o),
(96,356,c),
(70,311,l),
(94,300,o),
(129,285,o),
(167,285,cs),
(302,285,o),
(347,363,o),
(347,421,cs),
(347,470,o),
(324,536,o),
(219,542,c),
(320,643,l)
);
}
);
width = 447;
},
{
layerId = m006;
width = 600;
},
{
layerId = m007;
width = 600;
},
{
hints = (
{
horizontal = 1;
place = (285,51);
type = Stem;
},
{
horizontal = 1;
place = (495,47);
type = Stem;
},
{
horizontal = 1;
place = (639.5,50.5);
type = Stem;
},
{
place = (78,242);
type = Stem;
},
{
place = (259,88);
type = Stem;
}
);
layerId = m008;
shapes = (
{
closed = 1;
nodes = (
(320,690,l),
(78,690,l),
(78,640,l),
(232,639,l),
(134,538,l),
(134,492,l),
(146,493,o),
(158,495,o),
(167,495,cs),
(240,495,o),
(259,460,o),
(259,422,cs),
(259,384,o),
(239,336,o),
(167,336,cs),
(149,336,o),
(127,340,o),
(96,356,c),
(70,311,l),
(94,300,o),
(129,285,o),
(167,285,cs),
(302,285,o),
(347,363,o),
(347,421,cs),
(347,470,o),
(324,536,o),
(219,542,c),
(320,643,l)
);
}
);
width = 447;
},
{
layerId = m009;
width = 600;
}
);
note = threesuperior;
unicode = 179;
}
{
glyphname = acute;
layers = (
{
layerId = m004;
shapes = (
{
closed = 1;
nodes = (
(178,627,l),
(195,598,l),
(328,671,l),
(306,710,l)
);
}
);
width = 500;
},
{
hints = (
{
horizontal = 1;
place = (580,160);
type = Stem;
},
{
place = (148,205);
type = Stem;
}
);
layerId = m005;
shapes = (
{
closed = 1;
nodes = (
(148,632,l),
(180,580,l),
(353,675,l),
(316,740,l)
);
}
);
width = 500;
},
{
layerId = m006;
shapes = (
{
closed = 1;
nodes = (
(383,669,l),
(326,770,l),
(118,637,l),
(170,552,l)
);
}
);
width = 500;
},
{
layerId = m007;
shapes = (
{
closed = 1;
nodes = (
(178,627,l),
(195,598,l),
(328,671,l),
(306,710,l)
);
}
);
width = 500;
},
{
hints = (
{
horizontal = 1;
place = (580,160);
type = Stem;
},
{
place = (148,205);
type = Stem;
}
);
layerId = m008;
shapes = (
{
closed = 1;
nodes = (
(148,632,l),
(180,580,l),
(353,675,l),
(316,740,l)
);
}
);
width = 500;
},
{
layerId = m009;
shapes = (
{
closed = 1;
nodes = (
(383,669,l),
(326,770,l),
(118,637,l),
(170,552,l)
);
}
);
width = 500;
}
);
note = acute;
unicode = 180;
}
{
export = 0;
glyphname = onesuperior;
layers = (
{
layerId = m004;
width = 600;
},
{
hints = (
{
horizontal = 1;
place = (325,51);
type = Stem;
},
{
place = (164,82);
type = Stem;
}
);
layerId = m005;
shapes = (
{
closed = 1;
nodes = (
(164,376,l),
(83,376,l),
(83,325,l),
(326,325,l),
(326,376,l),
(246,376,l),
(246,685,l),
(187,685,l),
(70,630,l),
(89,584,l),
(164,611,l)
);
}
);
width = 426;
},
{
layerId = m006;
width = 600;
},
{
layerId = m007;
width = 600;
},
{
hints = (
{
horizontal = 1;
place = (325,51);
type = Stem;
},
{
place = (164,82);
type = Stem;
}
);
layerId = m008;
shapes = (
{
closed = 1;
nodes = (
(164,376,l),
(83,376,l),
(83,325,l),
(326,325,l),
(326,376,l),
(246,376,l),
(246,685,l),
(187,685,l),
(70,630,l),
(89,584,l),
(164,611,l)
);
}
);
width = 426;
},
{
layerId = m009;
width = 600;
}
);
note = onesuperior;
unicode = 185;
}
